<svg xmlns="http://www.w3.org/2000/svg" width="258" height="164" viewBox="0 0 258 164">
  <g id="Grupo_84042" data-name="Grupo 84042" transform="translate(-461 -5730)">
    <rect id="Rectángulo_34360" data-name="Rectángulo 34360" width="258" height="164" transform="translate(461 5730)" fill="none"/>
    <g id="Grupo_84037" data-name="Grupo 84037" transform="translate(427.118 5578.551)">
      <g id="Grupo_84036" data-name="Grupo 84036" transform="translate(178.328 172.692)">
        <g id="Grupo_84035" data-name="Grupo 84035" transform="translate(0 0)">
          <g id="Grupo_84012" data-name="Grupo 84012">
            <g id="Grupo_84009" data-name="Grupo 84009">
              <path id="Trazado_117507" data-name="Trazado 117507" d="M796.2,284.33c.007.052.014.1.02.155.013.1.026.2.04.308.16,1.22.335,2.5.517,3.8.078.561.159,1.128.24,1.7.138.954.278,1.914.42,2.867q.119.79.237,1.57c.006.041.012.082.019.122.541,3.553,1.087,6.9,1.527,9.344.006.034.012.067.019.1q.071.392.137.75c.009.046.017.091.026.135s.013.069.019.1q.085.449.162.836c.011.055.022.107.032.16h.072c-.008-.053-.016-.1-.023-.153q1.6.141,3.1.227c.011.1.024.2.04.3h.519c-.015-.1-.028-.188-.039-.276q.523.029,1.034.048a1.346,1.346,0,0,0,1.035.485h.385a1.343,1.343,0,0,0,.984-.427l.544,0q1.132,0,2.218-.037c-.012.092-.025.189-.041.291h.518c.016-.108.029-.211.041-.312,1.774-.076,3.461-.228,5.089-.455q-.018.141-.042.3h.518q.028-.2.048-.372.625-.094,1.241-.2.036-.188.073-.389c.017-.09.035-.183.052-.278h0c.049-.258.1-.53.152-.814l.067-.371c.44-2.41.993-5.584,1.53-8.681.1-.566.2-1.13.292-1.687.025-.143.05-.286.073-.428.133-.768.262-1.517.387-2.236.1-.587.2-1.153.293-1.69.148-.851.284-1.631.4-2.31.217-1.235.38-2.136.462-2.52.266-1.259.567-2.84.776-4.347.127-.918.221-1.81.253-2.585.005-.11.005-.217,0-.323-.056-2.2-1.659-3.309-3.634-4.123a.011.011,0,0,0-.008,0c-.184-.076-.371-.15-.561-.221-.118-.045-.238-.089-.358-.132-.533-.194-1.079-.374-1.618-.556l-.281-.1a8.066,8.066,0,0,1-2.883-1.9c-.215-.209-.415-.417-.6-.619-.1-.108-.194-.214-.282-.317l-.837.188-1.31.294-1.257.282-3.865.867-1.332.3-.311.069a1.862,1.862,0,0,1-.171.135,4.19,4.19,0,0,1-.764.414c-.185.081-.386.16-.6.237-.534.2-1.137.385-1.744.586l-.223.073-.216.075q-.073.024-.146.051l-.277.1-.21.078-.2.078c-.071.028-.141.056-.209.085l-.165.069c-.121.052-.239.105-.355.162l-.128.063-.023.011-.1.052c-.06.032-.12.065-.179.1-.042.024-.084.048-.125.072a4.452,4.452,0,0,0-.512.354,2.034,2.034,0,0,0-.841,1.444A75.065,75.065,0,0,0,796.2,284.33Z" transform="translate(-787.266 -251.449)" fill="#334689"/>
              <g id="Grupo_83972" data-name="Grupo 83972" transform="translate(9.551)">
                <path id="Trazado_117508" data-name="Trazado 117508" d="M827.976,240.886c-.49-1.281-.035-4.244-.417-5.78a7.193,7.193,0,0,1-.2-1.04,2.037,2.037,0,0,1-.009-.252l10.077-3.785q.01.157.014.322a35.818,35.818,0,0,0,.012,4.628c.026.163.051.328.078.5a19.983,19.983,0,0,0,.648,3.047c.365.858-3.991,4.651-7.159,5.548C830.283,244.277,828.339,241.838,827.976,240.886Z" transform="translate(-822.971 -219.548)" fill="#ffb278"/>
                <path id="Trazado_117509" data-name="Trazado 117509" d="M854.027,262.349l.893,2.122c-.862,2.521-1.192,3.686-2.235,6.157-1.4-.953-4.023.807-5.249-.147C850,267.814,852.237,265.642,854.027,262.349Z" transform="translate(-839.389 -245.959)" fill="#465daf"/>
                <path id="Trazado_117510" data-name="Trazado 117510" d="M826.9,270.98c-.58,2.149,1.983,5.122,3.1,6.6l-.524.188c-1.036.342-2.621-.54-3.577.114C825.143,276.313,825.357,271.723,826.9,270.98Z" transform="translate(-821.445 -253.013)" fill="#465daf"/>
                <g id="Grupo_83971" data-name="Grupo 83971">
                  <g id="Grupo_83962" data-name="Grupo 83962" transform="translate(1.26 10.631)">
                    <path id="Trazado_117511" data-name="Trazado 117511" d="M811.36,230.851c.919-.054,1.351,1.078,1.567,1.655l.556,2.378c-1.378,1.745-2.817-1.227-3.087-2.162C810.205,232.06,810.237,230.916,811.36,230.851Z" transform="translate(-810.307 -230.849)" fill="#ffb278"/>
                    <path id="Trazado_117512" data-name="Trazado 117512" d="M814.6,234.69c-.772.335-.356,1.317.307,1.482.04-.04-.849.178-1.106-.337a1.283,1.283,0,0,1,.21-1.483c-.251-.3-.816-.464-.929-.043C813.21,233.01,814.509,233.736,814.6,234.69Z" transform="translate(-812.574 -233.103)" fill="#e5804e"/>
                  </g>
                  <path id="Trazado_117513" data-name="Trazado 117513" d="M827.162,192.852c-.91-1.1-3.152-1.41-4.478-1.374a9.865,9.865,0,0,0-5.341,1.473L816.673,194a33.65,33.65,0,0,0,1.486,10.261c.456,1.264,1.344,3.3,2.845,3.605,1.551.32,3.843.142,4.849-1.041a13.469,13.469,0,0,0,2.208-4.144,18.2,18.2,0,0,0,.03-5.015C828.033,196.248,828.076,193.96,827.162,192.852Z" transform="translate(-814.249 -188.042)" fill="#ffb278"/>
                  <path id="Trazado_117524" data-name="Trazado 117524" d="M839.476,251.023c.634.771,1.807.9,2.134-.295A7.846,7.846,0,0,1,839.476,251.023Z" transform="translate(-832.884 -236.464)" fill="#e5804e"/>
                  <g id="Grupo_83967" data-name="Grupo 83967" transform="translate(1.654 3.974)">
                    <path id="Trazado_117525" data-name="Trazado 117525" d="M813.672,195.135c.006.017-1.046.858-1.04.875-.172.32-.233.692-.083,1.8.06.444,1.346,6.078,1.346,6.078-.027-1.36-.174-3.829-.212-4.458a3.633,3.633,0,0,1,.132-2.734c.009-.025.018-.05.027-.074.247-.649.665-.659,1.247-.62.9.061,1.479.4,2.4.421a10.231,10.231,0,0,0,3.26-.79c.684-.294,1.634-.556,2.04.36.371.837.094,1.664.246,2.482.125.667.9,1.227,1.159,1.919.327.891.1,3.242.741,2.731a62.268,62.268,0,0,0,.238-6.574,16.628,16.628,0,0,0-.794-2.114Z" transform="translate(-812.464 -194.432)" fill="#42150f"/>
                    <path id="Trazado_117526" data-name="Trazado 117526" d="M819.815,195.81c-.184.24-.34.676-.542.687l.134.12c.247-.649.665-.659,1.247-.62.9.061,1.479.4,2.4.421a10.231,10.231,0,0,0,3.26-.79c.684-.294,1.634-.556,2.04.36.371.837.094,1.664.246,2.482a19.855,19.855,0,0,0,.769,2.515c.326.891.5,3.255,1.14,2.744.064-.377.324-5.061.229-7.183a16.646,16.646,0,0,0-.794-2.114Z" transform="translate(-818.028 -194.432)" fill="#42150f"/>
                  </g>
                  <g id="Grupo_83968" data-name="Grupo 83968" transform="translate(13.402 9.401)">
                    <path id="Trazado_117528" data-name="Trazado 117528" d="M878.085,224.144c-1.357.251-1.358,4.351-1.358,4.351,1.671,1.467,2.549-1.717,2.645-2.685C879.44,225.124,879.192,223.939,878.085,224.144Z" transform="translate(-876.727 -224.12)" fill="#ffb278"/>
                    <path id="Trazado_117529" data-name="Trazado 117529" d="M880.339,228.151c.82.19.589,1.231-.034,1.513-.046-.032.867.022,1.026-.531a1.283,1.283,0,0,0-.475-1.421c.192-.342.719-.6.906-.21C881.4,226.247,880.254,227.2,880.339,228.151Z" transform="translate(-879.65 -226.392)" fill="#e5804e"/>
                  </g>
                  <path id="Trazado_117530" data-name="Trazado 117530" d="M838.812,261c.466,1.369,3.351.733,3.185-.291A3.8,3.8,0,0,1,838.812,261Z" transform="translate(-832.341 -244.619)" fill="#e5804e"/>
                  <g id="Grupo_83970" data-name="Grupo 83970">
                    <path id="Trazado_117531" data-name="Trazado 117531" d="M811.255,205.016a3.966,3.966,0,0,0,1.634.949,10.593,10.593,0,0,0,4.758.013c.258-.043.507-.091.744-.137A16.9,16.9,0,0,0,822,204.6a5.18,5.18,0,0,0,2.3-1.844,0,0,0,0,1,0,0h0c-.025-.007-.195-.053-.484-.119-.53-.123-1.457-.32-2.6-.472-.338-.047-.7-.089-1.069-.124a18.37,18.37,0,0,0-5.937.293c-.781.192-2.8.553-3.319,1.366C810.655,204.047,810.708,204.479,811.255,205.016Z" transform="translate(-809.413 -196.586)" fill="#1a1e23"/>
                    <path id="Trazado_117532" data-name="Trazado 117532" d="M804.663,179.074c-.022.215.141.418.2.653.006.025.014.051.019.077a.342.342,0,0,1,.012.047,8.61,8.61,0,0,1,2.4-.611l.032,0a62.7,62.7,0,0,1,7.009-.567c.4-.011.79-.017,1.155-.018.645,0,1.219.008,1.68.033l.224.014.113.008c.109.011.21.022.3.034a1.416,1.416,0,0,1,.484.119h0a.167.167,0,0,0-.011-.029,3.8,3.8,0,0,1-.228-.924,3.913,3.913,0,0,1,.259-1.982c.372-.895-2.732-2.18-3.608-2.49a.166.166,0,0,0-.025-.009,13.173,13.173,0,0,0-2.73-.62c-3.159-.39-6.63.2-8.069,1.917C802.424,176.466,804.867,177.089,804.663,179.074Z" transform="translate(-803.415 -172.692)" fill="#292e35"/>
                    <g id="Grupo_83969" data-name="Grupo 83969" transform="translate(5.07 3.571)">
                      <path id="Trazado_117533" data-name="Trazado 117533" d="M831.777,194.208l-.628-.891.457-.99,1.086-.1.629.891-.457.99Z" transform="translate(-831.149 -192.228)" fill="#eab642"/>
                      <path id="Trazado_117534" data-name="Trazado 117534" d="M833.139,195.089l-.467-.662.34-.736.807-.074.467.662-.34.736Z" transform="translate(-832.393 -193.363)" fill="#fcd27c"/>
                    </g>
                    <path id="Trazado_117535" data-name="Trazado 117535" d="M848.461,207.021c.258-.043.507-.091.744-.137a16.9,16.9,0,0,0,3.605-1.239,5.18,5.18,0,0,0,2.3-1.844s0,0,0,0h0c-.025-.007-.195-.053-.484-.119-.53-.123-1.457-.32-2.6-.472A6.128,6.128,0,0,1,848.461,207.021Z" transform="translate(-840.226 -197.63)" fill="#131519" opacity="0.5" style="mix-blend-mode: multiply;isolation: isolate"/>
                    <path id="Trazado_117536" data-name="Trazado 117536" d="M810.24,201.995a6.021,6.021,0,0,1,.2.653,16.077,16.077,0,0,1,2.435-.486l.032,0q.213-.03.436-.057l.182-.023c.5-.061,1.019-.117,1.556-.169l.218-.02c1.54-.14,3.182-.238,4.618-.282.405-.013.793-.022,1.157-.025.643-.006,1.215,0,1.677.024l.224.014.113.008a3.074,3.074,0,0,1,.775.124,3.8,3.8,0,0,1-.229-.924,25.7,25.7,0,0,0-2.937-.084c-.364,0-.747.014-1.142.027-1.28.044-2.695.13-4.069.268-.067.006-.132.012-.2.02-.738.077-1.462.169-2.145.277l-.156.024A17.847,17.847,0,0,0,810.24,201.995Z" transform="translate(-808.992 -195.612)" fill="#88afb5"/>
                    <path id="Trazado_117537" data-name="Trazado 117537" d="M860.955,180.439c.081.151.246.425.405.713.008.013.014.027.022.04.056.1.113.211.164.313a2.567,2.567,0,0,1,.189.475s0,.007,0,.01c.643-.006,1.215,0,1.677.024l.224.014.113.008c.109.011.21.022.3.034a1.415,1.415,0,0,1,.484.119h0a.16.16,0,0,0-.011-.029,3.8,3.8,0,0,1-.229-.924,3.913,3.913,0,0,1,.259-1.982c.372-.9-2.732-2.18-3.608-2.49.1.061.194.122.291.182a3.421,3.421,0,0,1,1.136,1.01c-.525-.027-2.1-.053-2.349.649C859.85,179.1,860.724,180.008,860.955,180.439Z" transform="translate(-849.659 -176.02)" fill="#131519" opacity="0.5" style="mix-blend-mode: multiply;isolation: isolate"/>
                  </g>
                </g>
              </g>
              <path id="Trazado_117538" data-name="Trazado 117538" d="M780.023,326.743c2.244.659,1.935-1.171,3.112-2.963,1.01-1.54,2.1-8.464,2.213-10.091l-3.4-17.707c-1.044.131-1.853,1.693-2.168,2.789a10.979,10.979,0,0,0-.271,1.275c-.04.248-.076.51-.11.782-.139,1.1-.233,2.376-.306,3.627-.023.382-.043.762-.062,1.134s-.038.74-.057,1.092c-.029.575-.056,1.114-.086,1.593-.02.317-.041.609-.063.866-.21,2.421-.372,6.452-.791,8.865C777.506,321.02,777.9,326.121,780.023,326.743Z" transform="translate(-772.949 -273.444)" fill="#334689"/>
              <g id="Grupo_83974" data-name="Grupo 83974" transform="translate(5.934 26.601)">
                <g id="Grupo_83973" data-name="Grupo 83973" transform="translate(0.143)">
                  <path id="Trazado_117539" data-name="Trazado 117539" d="M784.414,323.756a3.083,3.083,0,0,0,.831-.482c.657-.587,1.082-4.516.619-4.9a3.13,3.13,0,0,0-.971-.157c-.04.248-.076.51-.11.782-.139,1.1-.233,2.376-.306,3.627C784.453,323,784.433,323.383,784.414,323.756Z" transform="translate(-784.414 -318.212)" fill="#e5a31f"/>
                  <path id="Trazado_117540" data-name="Trazado 117540" d="M784.755,326.118a1.361,1.361,0,0,0,.273-.187c.451-.4.741-3.091.424-3.357a1.127,1.127,0,0,0-.391-.083C784.922,323.594,784.828,324.867,784.755,326.118Z" transform="translate(-784.693 -321.709)" fill="#ffc050"/>
                </g>
                <path id="Trazado_117541" data-name="Trazado 117541" d="M783.632,355.965l1.256-.036-.044-1.589-1.125.032C783.69,354.947,783.662,355.486,783.632,355.965Z" transform="translate(-783.632 -347.736)" fill="#ffc050"/>
              </g>
              <g id="Grupo_83976" data-name="Grupo 83976" transform="translate(34.15 27.915)">
                <g id="Grupo_83975" data-name="Grupo 83975">
                  <path id="Trazado_117542" data-name="Trazado 117542" d="M939.375,330.961a3.083,3.083,0,0,1-.8-.531c-.62-.627-.8-4.573-.319-4.934a3.13,3.13,0,0,1,.978-.1c.025.25.045.513.063.787.071,1.109.088,2.386.085,3.639C939.381,330.208,939.378,330.589,939.375,330.961Z" transform="translate(-937.979 -325.399)" fill="#e5a31f"/>
                  <path id="Trazado_117543" data-name="Trazado 117543" d="M942.657,333.345a1.372,1.372,0,0,1-.261-.2c-.426-.429-.552-3.13-.219-3.377a1.132,1.132,0,0,1,.4-.059C942.643,330.815,942.66,332.092,942.657,333.345Z" transform="translate(-941.255 -328.919)" fill="#ffc050"/>
                </g>
                <path id="Trazado_117544" data-name="Trazado 117544" d="M939.906,362.959l-1.251-.113.141-1.583,1.121.1C939.91,361.939,939.905,362.479,939.906,362.959Z" transform="translate(-938.531 -354.707)" fill="#ffc050"/>
              </g>
              <g id="Grupo_84000" data-name="Grupo 84000" transform="translate(4.93 20.454)">
                <path id="Trazado_117545" data-name="Trazado 117545" d="M807.166,473.062a1.688,1.688,0,0,0,1.688,1.688h0a1.688,1.688,0,0,0,1.688-1.688v-4.038a1.688,1.688,0,0,0-1.688-1.688h0a1.688,1.688,0,0,0-1.688,1.688Z" transform="translate(-801.859 -433.928)" fill="#231f20"/>
                <g id="Grupo_83984" data-name="Grupo 83984" transform="translate(0 32.999)">
                  <g id="Grupo_83980" data-name="Grupo 83980" transform="translate(0 48.147)">
                    <g id="Grupo_83979" data-name="Grupo 83979">
                      <g id="Grupo_83977" data-name="Grupo 83977" transform="translate(0 8.035)">
                        <path id="Trazado_117546" data-name="Trazado 117546" d="M778.191,778.816c.447.317,3.013.407,5.284.365h.047a27.426,27.426,0,0,0,3.232-.2l.014,0a1.5,1.5,0,0,0,.528-.152.11.11,0,0,0,.016-.014.74.74,0,0,0,.133-.465c0-.02,0-.041,0-.063,0-.078,0-.163,0-.254,0-.014,0-.029,0-.044s0-.027,0-.042c-.009-.175-.028-.369-.054-.577s-.06-.43-.1-.66a26.9,26.9,0,0,0-1.114-4.276l-2.275.29c-.742,1.856-2.457,2.818-3.824,3.644a4.9,4.9,0,0,0-1.771,1.451,1.266,1.266,0,0,0-.112,1Z" transform="translate(-778.136 -772.43)" fill="#211818"/>
                      </g>
                      <g id="Grupo_83978" data-name="Grupo 83978" transform="translate(0 13.547)">
                        <path id="Trazado_117547" data-name="Trazado 117547" d="M778.191,803.46c.447.317,3.013.407,5.284.365l.047,0c1.268-.037,2.421-.11,3.089-.2l.018,0a2.124,2.124,0,0,0,.636-.151l.018-.014a.661.661,0,0,0,.162-.465c0-.02,0-.041,0-.063,0-.078,0-.164,0-.254,0-.014,0-.029,0-.044s0-.027,0-.042l-.115.024a2.115,2.115,0,0,1-.637.151l-.017,0a43.643,43.643,0,0,1-8.5.033A1.3,1.3,0,0,0,778.191,803.46Z" transform="translate(-778.136 -802.587)" fill="#0c0909"/>
                      </g>
                      <path id="Trazado_117548" data-name="Trazado 117548" d="M811.331,730.26l-3.7-1.783c.1,2.58-.1,9.785.152,10.289,0,0,1.094.332,1.567.076C810.313,738.319,811.492,731.889,811.331,730.26Z" transform="translate(-802.238 -728.477)" fill="#d88d5b"/>
                    </g>
                    <path id="Trazado_117549" data-name="Trazado 117549" d="M779.048,794.8c1.641.148,4.575.232,4.8-.052.429-.548-.895-1.275-1.283-1.415a3.088,3.088,0,0,0-1.745.016A4.9,4.9,0,0,0,779.048,794.8Z" transform="translate(-778.881 -781.379)" fill="#352727"/>
                  </g>
                  <g id="Grupo_83983" data-name="Grupo 83983" transform="translate(19.817 48.179)">
                    <g id="Grupo_83981" data-name="Grupo 83981" transform="translate(0 8.035)">
                      <path id="Trazado_117550" data-name="Trazado 117550" d="M894.762,779.021c-.721.51-5.884.4-7.522.133l-.014,0A1.505,1.505,0,0,1,886.7,779l-.016-.013c-.217-.212-.156-1.074.023-2.1a27.079,27.079,0,0,1,1.114-4.277l2.276.29C891.507,776.42,895.387,776.751,894.762,779.021Z" transform="translate(-886.545 -772.605)" fill="#211818"/>
                    </g>
                    <g id="Grupo_83982" data-name="Grupo 83982" transform="translate(0 13.473)">
                      <path id="Trazado_117551" data-name="Trazado 117551" d="M886.682,803.3l.016.014a1.52,1.52,0,0,0,.527.151l.015,0c1.638.272,6.8.377,7.522-.133a1.543,1.543,0,0,0-.023-.977c-.008.039-.018.079-.029.12-.721.51-5.884.4-7.522.133l-.015,0a1.517,1.517,0,0,1-.528-.151l-.1-.024A1.316,1.316,0,0,0,886.682,803.3Z" transform="translate(-886.544 -802.357)" fill="#0c0909"/>
                    </g>
                    <path id="Trazado_117552" data-name="Trazado 117552" d="M887.684,730.436l3.7-1.783c-.1,2.58.1,9.785-.152,10.289,0,0-1.094.331-1.566.076C888.7,738.495,887.523,732.065,887.684,730.436Z" transform="translate(-887.464 -728.653)" fill="#d88d5b"/>
                  </g>
                  <path id="Trazado_117553" data-name="Trazado 117553" d="M802.206,522.71l4.556.1c.129-.663.408-1.632.74-2.841a45.4,45.4,0,0,0,1.979-13.31c-.333-11.862,2.208-23.19,3.532-28.869.025-.105.049-.21.073-.311.012-.051.023-.1.035-.152.017-.074.035-.147.051-.219l.082.278c.007.026.015.05.022.076.043.156.086.313.128.473q.157.587.307,1.221c1.857,7.849,2.943,20.814,3.508,28.426.439,5.905.762,10.936.924,15.13l4.907.1c.021-2.606,1.939-9,1.1-16.382-1.338-11.753-1.466-39.225-1.5-40.567a4.491,4.491,0,0,0-.049-.636h0c-.014-.074-.032-.116-.053-.126L805,465.182c0,.02-.006.039-.009.059-.045.323-.089.672-.13,1.042-.252,2.233-1.306,32.691-1.728,40.259C802.738,513.544,802.366,519.573,802.206,522.71Z" transform="translate(-797.806 -465.096)" fill="#233360"/>
                  <path id="Trazado_117554" data-name="Trazado 117554" d="M835.607,512.856l1.106,3.5-.035.152c-.023.1-.048.206-.073.311-1.324,5.678-3.864,17.007-3.531,28.869A45.386,45.386,0,0,1,831.094,559l-.019.028a18.526,18.526,0,0,0,.432-3.512c.667-6.669.211-13.746.211-20.677C831.718,528.757,833.029,517.977,835.607,512.856Z" transform="translate(-821.398 -504.125)" fill="#192642"/>
                  <path id="Trazado_117555" data-name="Trazado 117555" d="M847.166,499.657c1.14-.533,2.311-1.8,3.584-2.638a37.792,37.792,0,0,0-2.3,3.066c-.356.668-.749,2.534-.342,3.167l-1.626-1.455c-.487-1.578-1.171-3.161-1.785-4.694A22.2,22.2,0,0,0,847.166,499.657Z" transform="translate(-832.529 -491.183)" fill="#192642"/>
                  <path id="Trazado_117556" data-name="Trazado 117556" d="M896.233,774.84c1.5-.014,1.488.864,1.708,2.081l-3.042.16C894.89,775.926,894.73,774.854,896.233,774.84Z" transform="translate(-873.547 -718.218)" fill="#211818"/>
                  <path id="Trazado_117557" data-name="Trazado 117557" d="M806.3,774.663c1.5-.014,1.488.864,1.708,2.082l-3.042.16C804.955,775.749,804.794,774.677,806.3,774.663Z" transform="translate(-800.052 -718.073)" fill="#211818"/>
                  <path id="Trazado_117558" data-name="Trazado 117558" d="M897.222,793.8c1.67-.605,4.6,1.294,4.6,1.294-.207.211-5.58.51-5.885.121C895.51,794.666,896.834,793.939,897.222,793.8Z" transform="translate(-874.336 -733.613)" fill="#352727"/>
                </g>
                <g id="Grupo_83987" data-name="Grupo 83987" transform="translate(16.271 32.912)">
                  <path id="Trazado_117559" data-name="Trazado 117559" d="M872.71,470.282h.065l-.025-.993c-1.7.042-3.853-2.732-4.7-4.667l-.91.4C867.9,466.747,870.239,470.282,872.71,470.282Z" transform="translate(-867.144 -464.621)" fill="#662c10"/>
                  <g id="Grupo_83986" data-name="Grupo 83986" transform="translate(3.759 0.188)">
                    <path id="Trazado_117560" data-name="Trazado 117560" d="M907.115,471.421c0-2.185-.014-4.643,2.184-5.769a8.321,8.321,0,0,1,2.173,2.376c-1.812.095-3.056,2.317-2.768,3.89Z" transform="translate(-903.568 -465.652)" fill="#0a0909"/>
                    <path id="Trazado_117561" data-name="Trazado 117561" d="M891.1,482.884a2.141,2.141,0,0,0,2.029-1.3c1.214-2.24.8-6.6.8-6.6-2.654.748-2.383-1.638-2.276-3.479a7.707,7.707,0,0,0-.891-.108,27.612,27.612,0,0,0-2.917.184C887.516,473.84,887.524,482.735,891.1,482.884Z" transform="translate(-887.71 -470.343)" fill="#662c10"/>
                    <g id="Grupo_83985" data-name="Grupo 83985" transform="translate(0 1.049)">
                      <path id="Trazado_117562" data-name="Trazado 117562" d="M891.1,482.884a2.141,2.141,0,0,0,2.029-1.3,2.034,2.034,0,0,1-.727-.25c-2.141-1.241-2.421-3.976-2.334-6.206a24.014,24.014,0,0,1,.7-3.728,27.612,27.612,0,0,0-2.917.184C887.516,473.84,887.524,482.735,891.1,482.884Z" transform="translate(-887.71 -471.393)" fill="#7f3112"/>
                    </g>
                  </g>
                </g>
                <g id="Grupo_83989" data-name="Grupo 83989" transform="translate(6.888 31.817)">
                  <path id="Trazado_117563" data-name="Trazado 117563" d="M816.618,460.081c0,.372,0,.743-.023.919l.337.031.081.007q1.6.141,3.1.227c.175.01.349.02.52.028q.523.029,1.034.048l.46.017c.488.016.967.028,1.441.035l.5.006.544,0q1.132,0,2.218-.037c.174-.007.347-.013.519-.021,1.774-.076,3.461-.228,5.089-.455.176-.024.351-.05.524-.076q.625-.094,1.241-.2l.174-.031c0-.067,0-.2.017-.375.02-.315.056-.746.086-1.076.025-.283.045-.493.045-.493-.593.115-1.192.219-1.8.311-.184.028-.37.056-.557.081-1.6.224-3.267.371-5.022.442l-.591.022q-.84.025-1.71.028c-.27,0-.543,0-.818,0s-.57-.006-.858-.013c-.156,0-.314-.006-.471-.011-.293-.007-.589-.017-.887-.028l-.48-.02-.443-.021c-.193-.01-.386-.02-.581-.032q-1.518-.085-3.134-.227-.274-.024-.551-.05l-.059-.005c0,.029.01.067.015.111C816.6,459.415,816.614,459.748,816.618,460.081Z" transform="translate(-816.432 -458.633)" fill="#231f20"/>
                  <g id="Grupo_83988" data-name="Grupo 83988" transform="translate(4.924 0.496)">
                    <path id="Trazado_117564" data-name="Trazado 117564" d="M842.757,462.7a1.348,1.348,0,0,0,1.347,1.348h.385a1.348,1.348,0,0,0,.953-2.3l-.01-.01a1.342,1.342,0,0,0-.943-.385H844.1a1.349,1.349,0,0,0-1.347,1.349Z" transform="translate(-842.757 -461.349)" fill="#eab642"/>
                    <path id="Trazado_117565" data-name="Trazado 117565" d="M844.627,464.355a1.03,1.03,0,0,0,1.03,1.03h.294a1.03,1.03,0,0,0,1.03-1.03h0a1.03,1.03,0,0,0-1.03-1.03h-.294a1.03,1.03,0,0,0-1.03,1.03Z" transform="translate(-844.285 -462.964)" fill="#fcd27c"/>
                  </g>
                  <path id="Trazado_117566" data-name="Trazado 117566" d="M901.7,460.944a4.575,4.575,0,0,1,0,.558c-.007.143-.021.293-.041.457q-.018.141-.041.3h.518q.028-.2.048-.372c.016-.152.027-.294.033-.432a5.094,5.094,0,0,0,0-.538,2.247,2.247,0,0,0-.266-.9c-.013-.025-.027-.048-.041-.072h-.62l-.017.019a.916.916,0,0,1,.12.134A1.678,1.678,0,0,1,901.7,460.944Z" transform="translate(-885.649 -459.703)" fill="#352f31"/>
                  <path id="Trazado_117567" data-name="Trazado 117567" d="M871.031,463.523c0,.076.008.153.008.231a5.742,5.742,0,0,1-.05.788c-.012.092-.025.189-.041.291h.518c.016-.108.03-.211.041-.312a6.373,6.373,0,0,0,.045-.709q0-.164-.009-.322a2.239,2.239,0,0,0-.238-.845c-.021-.042-.044-.082-.069-.123h-.619l-.017.018a.931.931,0,0,1,.114.127A1.673,1.673,0,0,1,871.031,463.523Z" transform="translate(-860.586 -461.812)" fill="#352f31"/>
                  <path id="Trazado_117568" data-name="Trazado 117568" d="M835.764,464.058c.011.1.024.2.04.3h.519c-.015-.1-.028-.188-.039-.276a5.42,5.42,0,0,1-.044-1.036,1.59,1.59,0,0,1,.091-.43,1.631,1.631,0,0,1,.211-.405.932.932,0,0,1,.128-.146l-.016-.019h-.62c-.026.044-.051.089-.074.133a2.319,2.319,0,0,0-.207.62,1.784,1.784,0,0,0-.027.217A5.823,5.823,0,0,0,835.764,464.058Z" transform="translate(-832.081 -461.425)" fill="#352f31"/>
                  <path id="Trazado_117569" data-name="Trazado 117569" d="M815.9,462.3h.518c-.008-.053-.016-.1-.023-.153a6.01,6.01,0,0,1-.066-.928c0-.077,0-.153.008-.23a1.686,1.686,0,0,1,.224-.717,1.148,1.148,0,0,1,.206-.265l-.017-.018h-.62a1.886,1.886,0,0,0-.12.233c-.014.032-.028.063-.04.1a.031.031,0,0,0,0,.01,2.183,2.183,0,0,0-.143.63c0,.07-.007.14-.008.211A6.77,6.77,0,0,0,815.9,462.3Z" transform="translate(-815.818 -459.739)" fill="#352f31"/>
                </g>
                <g id="Grupo_83991" data-name="Grupo 83991" transform="translate(4.005)">
                  <path id="Trazado_117570" data-name="Trazado 117570" d="M800.046,297.009c.007.051.014.1.02.155.152,1.181.321,2.594.5,4.119.063.555.129,1.124.2,1.7.107.944.216,1.912.324,2.879.064.569.128,1.139.191,1.7.6,5.331,1.146,10.175,1.3,10.206.2.038.427.068.67.09a19.559,19.559,0,0,0,2.411.039c2.241-.112,3.022-1.2,3.46-3.258.049-.229.093-.469.135-.722l.08.142c1.253,2.259,1.978,4.351,4.928,4.351a46.867,46.867,0,0,0,6.518-.427c.217-.03.431-.063.645-.1.271-.808.891-5.469,1.488-9.974.076-.573.152-1.143.226-1.7.124-.936.245-1.843.359-2.68.083-.61.163-1.183.237-1.705.139-.973.261-1.768.356-2.289l-.065-.048c-2.148-1.57-3.709-2.961-3.988-5.726a27.488,27.488,0,0,1,1.851-8.194c-.318-.147-.625-.27-.918-.375-.607-.221-1.155-.37-1.631-.52-.1-.03-.191-.061-.282-.092-.728,1.757-3.509,7.855-5.088,8.767a9.108,9.108,0,0,1-4.862.779l-.258-.024h0c-.217-.022-.426-.05-.626-.083-3.638-.606-4.784-4.246-5.116-8.9-.146.048-.293.1-.439.148s-.283.1-.423.149a11.76,11.76,0,0,0-1.293.547c-.1.049-.19.1-.281.15C800.271,290.175,801.232,295.63,800.046,297.009Z" transform="translate(-800.046 -284.581)" fill="#ecf451"/>
                  <g id="Grupo_83990" data-name="Grupo 83990" transform="translate(0.518 0.092)">
                    <path id="Trazado_117571" data-name="Trazado 117571" d="M802.879,372.512c.063.555.129,1.124.2,1.7,2.344-.317,4.522-.527,6.648-.641a54.571,54.571,0,0,1,16.092,1.187c.083-.61.163-1.183.237-1.705a42.369,42.369,0,0,0-5.322-.94q-.837-.1-1.7-.167a69.427,69.427,0,0,0-9.395-.085c-1.078.059-2.17.141-3.289.249q-.854.081-1.732.183Q803.757,372.394,802.879,372.512Z" transform="translate(-802.879 -355.903)" fill="#fffce6"/>
                    <path id="Trazado_117572" data-name="Trazado 117572" d="M805.721,397.674c.064.569.128,1.139.191,1.7,2.277-.3,4.4-.507,6.475-.618a56.377,56.377,0,0,1,15.164.965c.076-.573.151-1.143.226-1.7a58.36,58.36,0,0,0-15.483-.972C810.186,397.162,808.03,397.367,805.721,397.674Z" transform="translate(-805.202 -376.484)" fill="#fffce6"/>
                    <path id="Trazado_117573" data-name="Trazado 117573" d="M890.983,302.325h1.712c0-.351.012-.693.033-1.031.04-.663.113-1.314.187-1.988.039-.354.081-.72.117-1.092a62.442,62.442,0,0,1,2.255-12.612c-.607-.221-1.155-.37-1.631-.52a63.868,63.868,0,0,0-2.329,12.966c-.035.36-.074.72-.114,1.068-.072.652-.146,1.318-.19,2.011C891,301.517,890.983,301.916,890.983,302.325Z" transform="translate(-874.877 -285.082)" fill="#fffce6"/>
                    <path id="Trazado_117574" data-name="Trazado 117574" d="M805.023,289.013c0,.407.015.81.026,1.2.013.416.024.809.024,1.169a55.448,55.448,0,0,0,.262,6c.037.331.072.673.107,1.024a33.522,33.522,0,0,0,.92,5.714,12.065,12.065,0,0,0,.4,1.171l1.587-.64q-.139-.343-.255-.714a30.178,30.178,0,0,1-.948-5.706c-.036-.354-.072-.7-.109-1.036a53.866,53.866,0,0,1-.252-5.813c0-.385-.012-.79-.024-1.219-.017-.6-.036-1.233-.021-1.845q-.213.072-.423.149A11.765,11.765,0,0,0,805.023,289.013Z" transform="translate(-804.631 -287.726)" fill="#fffce6"/>
                  </g>
                  <path id="Trazado_117575" data-name="Trazado 117575" d="M847.372,347.38c.064,1.3.1,2.637.131,3.935.049,1.946.1,3.938.254,5.89.049-.229.093-.469.135-.722l.08.142c-.122-1.766-.168-3.561-.212-5.317-.032-1.3-.067-2.641-.131-3.941-.069-1.385-.044-2.809-.019-4.187.013-.733.026-1.49.026-2.232,0-.187,0-.392,0-.608a32.074,32.074,0,0,1,.117-3.649l-.258-.024a32.443,32.443,0,0,0-.116,3.674c0,.216,0,.42,0,.607,0,.739-.013,1.5-.025,2.227C847.328,344.557,847.3,345.987,847.372,347.38Z" transform="translate(-838.684 -327.146)" fill="#231f20"/>
                </g>
                <g id="Grupo_83999" data-name="Grupo 83999" transform="translate(18.845 8.174)">
                  <path id="Trazado_117576" data-name="Trazado 117576" d="M894.314,333.187a.113.113,0,0,0,.113.112h0a.112.112,0,0,0,.112-.112V329.41a.112.112,0,0,0-.112-.112h0a.113.113,0,0,0-.113.112Z" transform="translate(-891.921 -329.298)" fill="#231f20"/>
                  <g id="Grupo_83998" data-name="Grupo 83998" transform="translate(0 3.119)">
                    <path id="Trazado_117577" data-name="Trazado 117577" d="M881.226,352.57a1.541,1.541,0,0,0,1.457,1.613h.728a1.541,1.541,0,0,0,1.457-1.613v-4.6a1.541,1.541,0,0,0-1.457-1.613h-.728a1.541,1.541,0,0,0-1.457,1.613Z" transform="translate(-881.226 -346.36)" fill="#231f20"/>
                    <g id="Grupo_83997" data-name="Grupo 83997" transform="translate(0.45 0.551)">
                      <path id="Trazado_117578" data-name="Trazado 117578" d="M883.686,350.406a.949.949,0,0,0,.83,1.034H885.6a.949.949,0,0,0,.83-1.034h0a.949.949,0,0,0-.83-1.034h-1.082a.949.949,0,0,0-.83,1.034Z" transform="translate(-883.686 -349.372)" fill="#fff"/>
                      <g id="Grupo_83996" data-name="Grupo 83996" transform="translate(0.108 2.81)">
                        <g id="Grupo_83992" data-name="Grupo 83992">
                          <path id="Trazado_117579" data-name="Trazado 117579" d="M894.147,365.08a.31.31,0,0,0,.271.337h.18a.31.31,0,0,0,.271-.337h0a.309.309,0,0,0-.271-.337h-.18a.309.309,0,0,0-.271.337Z" transform="translate(-892.343 -364.743)" fill="#fff"/>
                          <path id="Trazado_117580" data-name="Trazado 117580" d="M889.213,365.08a.31.31,0,0,0,.271.337h.18a.31.31,0,0,0,.271-.337h0a.309.309,0,0,0-.271-.337h-.18a.309.309,0,0,0-.271.337Z" transform="translate(-888.311 -364.743)" fill="#fff"/>
                          <path id="Trazado_117581" data-name="Trazado 117581" d="M884.278,365.08a.31.31,0,0,0,.27.337h.18a.31.31,0,0,0,.271-.337h0a.309.309,0,0,0-.271-.337h-.18a.309.309,0,0,0-.27.337Z" transform="translate(-884.278 -364.743)" fill="#fff"/>
                        </g>
                        <g id="Grupo_83993" data-name="Grupo 83993" transform="translate(0 1.079)">
                          <path id="Trazado_117582" data-name="Trazado 117582" d="M894.147,370.983a.309.309,0,0,0,.271.337h.18a.309.309,0,0,0,.271-.337h0a.309.309,0,0,0-.271-.337h-.18a.309.309,0,0,0-.271.337Z" transform="translate(-892.343 -370.646)" fill="#fff"/>
                          <path id="Trazado_117583" data-name="Trazado 117583" d="M889.213,370.983a.309.309,0,0,0,.271.337h.18a.309.309,0,0,0,.271-.337h0a.309.309,0,0,0-.271-.337h-.18a.309.309,0,0,0-.271.337Z" transform="translate(-888.311 -370.646)" fill="#fff"/>
                          <path id="Trazado_117584" data-name="Trazado 117584" d="M884.278,370.983a.309.309,0,0,0,.27.337h.18a.309.309,0,0,0,.271-.337h0a.309.309,0,0,0-.271-.337h-.18a.309.309,0,0,0-.27.337Z" transform="translate(-884.278 -370.646)" fill="#fff"/>
                        </g>
                        <g id="Grupo_83994" data-name="Grupo 83994" transform="translate(0 2.158)">
                          <path id="Trazado_117585" data-name="Trazado 117585" d="M894.147,376.885a.309.309,0,0,0,.271.337h.18a.309.309,0,0,0,.271-.337h0a.309.309,0,0,0-.271-.337h-.18a.309.309,0,0,0-.271.337Z" transform="translate(-892.343 -376.548)" fill="#fff"/>
                          <path id="Trazado_117586" data-name="Trazado 117586" d="M889.213,376.885a.309.309,0,0,0,.271.337h.18a.309.309,0,0,0,.271-.337h0a.309.309,0,0,0-.271-.337h-.18a.309.309,0,0,0-.271.337Z" transform="translate(-888.311 -376.548)" fill="#fff"/>
                          <path id="Trazado_117587" data-name="Trazado 117587" d="M884.278,376.885a.309.309,0,0,0,.27.337h.18a.309.309,0,0,0,.271-.337h0a.309.309,0,0,0-.271-.337h-.18a.309.309,0,0,0-.27.337Z" transform="translate(-884.278 -376.548)" fill="#fff"/>
                        </g>
                        <g id="Grupo_83995" data-name="Grupo 83995" transform="translate(0 3.237)">
                          <path id="Trazado_117588" data-name="Trazado 117588" d="M894.147,382.787a.309.309,0,0,0,.271.337h.18a.309.309,0,0,0,.271-.337h0a.309.309,0,0,0-.271-.337h-.18a.309.309,0,0,0-.271.337Z" transform="translate(-892.343 -382.45)" fill="#fff"/>
                          <path id="Trazado_117589" data-name="Trazado 117589" d="M889.213,382.787a.309.309,0,0,0,.271.337h.18a.309.309,0,0,0,.271-.337h0a.309.309,0,0,0-.271-.337h-.18a.31.31,0,0,0-.271.337Z" transform="translate(-888.311 -382.45)" fill="#fff"/>
                          <path id="Trazado_117590" data-name="Trazado 117590" d="M884.278,382.787a.309.309,0,0,0,.27.337h.18a.309.309,0,0,0,.271-.337h0a.309.309,0,0,0-.271-.337h-.18a.309.309,0,0,0-.27.337Z" transform="translate(-884.278 -382.45)" fill="#fff"/>
                        </g>
                      </g>
                    </g>
                  </g>
                </g>
              </g>
              <g id="Grupo_84006" data-name="Grupo 84006" transform="translate(0 22.939)">
                <g id="Grupo_84001" data-name="Grupo 84001" transform="translate(2.581 6.458)">
                  <path id="Trazado_117591" data-name="Trazado 117591" d="M771.325,341.865c-.477-.164-.718.231-1.151.165s-.676-.48-1.13-.513c-.631-.045-.715.25-1.22.409a11.619,11.619,0,0,0-1.158.345c-.549.3-1.129,1.422-1.378,1.5l7.137.5C772.4,343.366,772.3,342.2,771.325,341.865Z" transform="translate(-765.288 -340.049)" fill="#ffb278"/>
                  <path id="Trazado_117592" data-name="Trazado 117592" d="M790.916,340.54a.209.209,0,0,0,.247.162h0a.209.209,0,0,0,.162-.247l-1.417-6.782a.209.209,0,0,0-.247-.162h0a.208.208,0,0,0-.161.247Z" transform="translate(-785.07 -333.507)" fill="#231f20"/>
                </g>
                <g id="Grupo_84005" data-name="Grupo 84005" transform="translate(0 9.404)">
                  <g id="Grupo_84002" data-name="Grupo 84002">
                    <path id="Trazado_117593" data-name="Trazado 117593" d="M770.259,370.356a.593.593,0,0,1-.607.767h-12.3a1.076,1.076,0,0,1-.989-.767l-5.167-19.968a.59.59,0,0,1,.613-.767H764.43a1.069,1.069,0,0,1,1,.767Z" transform="translate(-751.168 -349.621)" fill="#282828"/>
                  </g>
                  <g id="Grupo_84004" data-name="Grupo 84004" transform="translate(3.074 1.061)">
                    <g id="Grupo_84003" data-name="Grupo 84003" transform="translate(0 0.931)">
                      <path id="Trazado_117594" data-name="Trazado 117594" d="M776.741,361.028a.389.389,0,0,1-.395.508h-7.693a.707.707,0,0,1-.65-.508h0a.386.386,0,0,1,.39-.508h7.7a.7.7,0,0,1,.645.508Z" transform="translate(-767.987 -360.52)" fill="#666162"/>
                    </g>
                    <path id="Trazado_117595" data-name="Trazado 117595" d="M778.161,356.758a1.684,1.684,0,0,0-.175-.4,1.937,1.937,0,0,0-1.446-.926c-.043,0-.085-.006-.129-.006h-4.968a1.034,1.034,0,0,0-1.1.931,1.277,1.277,0,0,0,.024.4l.034.158h7.809Zm-7.5-.147a.935.935,0,0,1,.018-.254.812.812,0,0,1,.847-.627h4.965a1.484,1.484,0,0,1,1.161.627,1.426,1.426,0,0,1,.147.254Z" transform="translate(-769.904 -355.426)" fill="#666162"/>
                  </g>
                </g>
                <path id="Trazado_117596" data-name="Trazado 117596" d="M821.8,388.738c-1.4-.86-3.295-3.262-4.847-3.777-1.18-.392-4.323.237-4.323,1.015.233.7,1.969-.061,3.213.478-.518.294-3.957.734-3.674,1.589s3.521.2,4.072-.1c-.489.463-2.714,1.087-2.78,1.787-.1,1.1,2.488.151,3.078,0-.479.683-1.948,1.54-1.092,2.085.974-.017,1.293-.4,2.117-.459a9.43,9.43,0,0,1,1.557.26c.593.078,1.243-.371,1.787-.2Z" transform="translate(-801 -368.999)" fill="#ffb278"/>
                <path id="Trazado_117597" data-name="Trazado 117597" d="M872.105,308.155q0,.6,0,1.2t0,1.186q0,.466,0,.928c0,.231,0,.454,0,.671a38.142,38.142,0,0,1-1.01,10.148c-.487,2.267-2.244,3.213-4.668,2.979-6.156-.6-9.692-3.385-10.724-4.469.026-.058.052-.116.077-.175.418-.976.642-2.1,1.015-3.1a.865.865,0,0,0,.084.038h0a25.6,25.6,0,0,0,4.773.96c1.893.225,3.709.266,4.177-.2.4-1.689-.309-12.251-.309-12.251-.022-.172-.033-.354-.038-.546a9.1,9.1,0,0,1,.041-1.05c.008-.081.017-.165.027-.248a9.828,9.828,0,0,1,1.383-4.16c.9-1.271,2.075-2.7,3.265-1.307a10.826,10.826,0,0,1,1.871,5.145c.019.192.03.374.032.544,0,.085,0,.171,0,.256C872.112,305.834,872.11,306.992,872.105,308.155Z" transform="translate(-836.59 -298.178)" fill="#334689"/>
                <path id="Trazado_117598" data-name="Trazado 117598" d="M894.583,346.8a8.833,8.833,0,0,0-3.462-.6,28.207,28.207,0,0,1-3.376-.673l.092-.1c1.893.225,3.709.266,4.178-.2.4-1.688-.31-12.251-.31-12.251-.021-.172-.033-.354-.038-.546q.025-.53.042-1.05c0-.09.006-.18.008-.269.006.007.013.013.019.021.477.556.387,2.864.475,3.765.15,1.53.247,3.044.4,4.57.139,1.391.416,2.743.419,4.171,0,.687-.14,1.351.276,1.887C893.676,346,894.283,346.183,894.583,346.8Z" transform="translate(-862.778 -325.095)" fill="#1e3159"/>
              </g>
              <g id="Grupo_84008" data-name="Grupo 84008" transform="translate(34.111 28.659)">
                <g id="Grupo_84007" data-name="Grupo 84007">
                  <path id="Trazado_117599" data-name="Trazado 117599" d="M939.175,333.726q0,.6,0,1.2a3.2,3.2,0,0,1-.73-.442c-.752-.646-.9-4.6-.293-4.943a3.622,3.622,0,0,1,.989-.069c.019.192.03.374.032.544,0,.085,0,.171,0,.256C939.181,331.4,939.179,332.562,939.175,333.726Z" transform="translate(-937.771 -329.469)" fill="#e5a31f"/>
                  <path id="Trazado_117600" data-name="Trazado 117600" d="M943.193,337.3c-.016-.011-.031-.024-.046-.036-.516-.443-.618-3.147-.2-3.382a.752.752,0,0,1,.242-.039C943.2,334.979,943.2,336.137,943.193,337.3Z" transform="translate(-941.789 -333.043)" fill="#ffc050"/>
                </g>
                <path id="Trazado_117601" data-name="Trazado 117601" d="M939.284,366.883l-1.373-.135.206-1.579,1.166.115q0,.466,0,.928C939.284,366.443,939.284,366.666,939.284,366.883Z" transform="translate(-937.885 -358.643)" fill="#ffc050"/>
              </g>
            </g>
            <path id="Trazado_117602" data-name="Trazado 117602" d="M853.118,421.134l-.261.051a2.588,2.588,0,0,0,.729,1.565l.315-.329a2.274,2.274,0,0,1-.57-1.344C853.285,421.091,853.166,421.124,853.118,421.134Z" transform="translate(-834.268 -375.671)" fill="#282828"/>
            <g id="Grupo_84011" data-name="Grupo 84011" transform="translate(18.643 45.857)">
              <g id="Grupo_84010" data-name="Grupo 84010">
                <path id="Trazado_117603" data-name="Trazado 117603" d="M860.651,452.134l-5.542-28a.781.781,0,0,0-.685-.571,1.244,1.244,0,0,0-.437.01,1.149,1.149,0,0,0-.644.357.807.807,0,0,0-.136.212.639.639,0,0,0-.044.377l5.542,28a.9.9,0,0,0,1.122.561,1.151,1.151,0,0,0,.645-.357A.694.694,0,0,0,860.651,452.134Z" transform="translate(-853.151 -423.544)" fill="#282828"/>
                <path id="Trazado_117604" data-name="Trazado 117604" d="M883.1,565.757l-.487-2.461-1.849.877.487,2.461Z" transform="translate(-875.719 -537.749)" fill="#fff"/>
                <path id="Trazado_117605" data-name="Trazado 117605" d="M878.735,543.687l-.487-2.461-1.849.878.487,2.461Z" transform="translate(-872.149 -519.714)" fill="#fff"/>
                <path id="Trazado_117606" data-name="Trazado 117606" d="M874.367,521.615l-.487-2.461-1.849.878.487,2.461Z" transform="translate(-868.579 -501.676)" fill="#fff"/>
                <path id="Trazado_117607" data-name="Trazado 117607" d="M870,499.547l-.487-2.461-1.849.877.487,2.461Z" transform="translate(-865.011 -483.642)" fill="#fff"/>
                <path id="Trazado_117608" data-name="Trazado 117608" d="M865.634,477.478l-.487-2.461-1.849.877.487,2.461Z" transform="translate(-861.443 -465.608)" fill="#fff"/>
                <path id="Trazado_117609" data-name="Trazado 117609" d="M861.266,455.406l-.487-2.461-1.849.878.487,2.461Z" transform="translate(-857.873 -447.57)" fill="#fff"/>
              </g>
            </g>
            <path id="Trazado_117610" data-name="Trazado 117610" d="M859.165,400.681a1.4,1.4,0,0,0-1.643-.818,1.751,1.751,0,0,0,.386.391.9.9,0,0,1,.836.6,1.775,1.775,0,0,1-.311,1.5c-.052.1-.1.192-.156.286a4.759,4.759,0,0,0-.581,1.389,7.048,7.048,0,0,0-.091,1.012c-.015.651.057.9.275.963l.121-.439a.159.159,0,0,1,.1.071,5.24,5.24,0,0,1,.044-1.517,4.4,4.4,0,0,1,.533-1.26c.053-.1.106-.193.159-.293A2.222,2.222,0,0,0,859.165,400.681Z" transform="translate(-838.08 -358.288)" fill="#282828"/>
          </g>
        </g>
      </g>
    </g>
    <g id="Car" transform="translate(476.786 5797.283)">
      <g id="Grupo_82850" data-name="Grupo 82850">
        <g id="Grupo_82682" data-name="Grupo 82682" transform="translate(13.331 37.177)">
          <rect id="Rectángulo_34317" data-name="Rectángulo 34317" width="195.036" height="25.568" fill="#ff725e"/>
        </g>
        <g id="Grupo_82683" data-name="Grupo 82683" transform="translate(13.331 37.177)" opacity="0.4">
          <rect id="Rectángulo_34318" data-name="Rectángulo 34318" width="195.036" height="25.568"/>
        </g>
        <g id="Grupo_82684" data-name="Grupo 82684">
          <path id="Trazado_117128" data-name="Trazado 117128" d="M237.977,238.794c-5.542-3.307-19.923-8.5-23.914-8.939-2.417-.269-13.179-1.7-13.179-1.7l-3.486-.268s-37.082-17.734-42.98-19.934c-9.134-3.408-28.437-6.367-48.905-3.931,0,0-27.351,2.413-33.429,4.112S36.6,218.683,36.6,218.683s-12.891,1.309-12.692,1.788a3.933,3.933,0,0,0,1.251,1.787v7.955a18.811,18.811,0,0,0-1.787,2.771c-.357.894-1.162,7.955-1.162,7.955s-3.854,8.849-3.854,11.173,6.983,11.262,8.681,12.6S42.45,268.01,42.45,268.01l-.023-6.691a18.682,18.682,0,0,1,37.358,0l.042,8.67h107l-.072-6.435c-.04-.508-.066-1.019-.066-1.538a18.7,18.7,0,1,1,37.393,0c0,.518-.026,1.03-.066,1.538h.378v6.435h12.335s10.011-7.419,9.742-11.173V248.242a5.559,5.559,0,0,0-1.483-3.786A32.251,32.251,0,0,0,237.977,238.794Z" transform="translate(-18.355 -203.131)" fill="#ffd817"/>
        </g>
        <g id="Grupo_82685" data-name="Grupo 82685" transform="translate(0 35.026)" opacity="0.2">
          <path id="Trazado_117129" data-name="Trazado 117129" d="M246.469,324.548l-7.894-2.816-.939,4.291-12.6-.67s-5.548-10.6-16.894-11.531a31.269,31.269,0,0,0-17.43,4.031L135.2,312.347s-28.156-1.073-39.016-.939-20.431,8.027-20.431,8.027-3.205-4.649-14.563-4.755-16.1,6.564-16.1,6.564a46.659,46.659,0,0,1-22.141-9.133l-.554.444c-.116.953-.192,1.624-.192,1.624s-3.854,8.849-3.854,11.173,6.983,11.262,8.681,12.6,15.415,3.295,15.415,3.295l-.023-6.691a18.682,18.682,0,0,1,37.358,0l.042,8.67h107l-.072-6.435c-.04-.508-.066-1.019-.066-1.538a18.7,18.7,0,1,1,37.393,0c0,.518-.026,1.03-.066,1.538h.378v6.435h12.335s10.011-7.419,9.742-11.173v-7.507Z" transform="translate(-18.355 -311.397)"/>
        </g>
        <g id="Grupo_82686" data-name="Grupo 82686" transform="translate(37.188 2.092)">
          <path id="Trazado_117130" data-name="Trazado 117130" d="M133.843,223.635a1.3,1.3,0,0,0,.584,2.336l9.4,1.255,53.439,5.891,65.158,3.614a2.988,2.988,0,0,0,2.666-1.26c.552-.828.763-1.985-.6-3.3-2.735-2.63-14.832-9.421-17.673-10.759A98.479,98.479,0,0,0,194.3,209.75c-9.005.312-26.285,2.884-48.618,5.81a2.925,2.925,0,0,0-1.325.523Z" transform="translate(-133.302 -209.597)" fill="#263238"/>
        </g>
        <g id="Grupo_82687" data-name="Grupo 82687" transform="translate(48.839 3.866)">
          <path id="Trazado_117131" data-name="Trazado 117131" d="M169.317,229.976c.134-.4,4.943-9.487,5.879-10.021s39.817-5.478,40.351-4.81,1.871,19.775,1.871,19.775Z" transform="translate(-169.317 -215.083)" fill="#455a64"/>
        </g>
        <g id="Grupo_82688" data-name="Grupo 82688" transform="translate(63.317 7.126)">
          <path id="Trazado_117132" data-name="Trazado 117132" d="M214.407,225.381l-.338,13.335h2V225.158Z" transform="translate(-214.069 -225.158)" fill="#263238"/>
        </g>
        <g id="Grupo_82690" data-name="Grupo 82690" transform="translate(46.873 17.359)">
          <g id="Grupo_82689" data-name="Grupo 82689">
            <path id="Trazado_117133" data-name="Trazado 117133" d="M273.459,256.787s.036.067.1.2l.276.6c.116.269.281.595.437,1l.545,1.4a47.226,47.226,0,0,1,2.281,9.541,77.025,77.025,0,0,1,.476,15.205c-.175,2.933-.495,6.045-.991,9.3-.252,1.627-.54,3.291-.9,4.98a7.776,7.776,0,0,1-.344,1.27,9.431,9.431,0,0,1-.609,1.182,25.913,25.913,0,0,1-1.5,2.225l-.03.04h-.051l-44.167-.806-24.105-.552c-3.833-.075-7.56-.152-11.158-.177-.45,0-.9-.009-1.343,0s-.888.009-1.34-.015a6.821,6.821,0,0,1-2.548-.719,9.049,9.049,0,0,1-2.117-1.5,10.585,10.585,0,0,1-1.642-1.94l0,.007c-4.115-5.668-7.833-10.9-11.086-15.578-1.62-2.342-3.134-4.535-4.5-6.588s-2.607-3.948-3.656-5.706A23.853,23.853,0,0,1,164.1,267.6l-.259-.624c-.086-.2-.133-.419-.2-.622s-.134-.4-.169-.609l-.113-.6a8.91,8.91,0,0,1,1.322-6.276,4.944,4.944,0,0,1,.52-.685l-.131.173c-.086.115-.21.29-.362.528a8.97,8.97,0,0,0-1.022,2.27,8.663,8.663,0,0,0-.239,3.976l.115.593c.036.2.114.4.171.6s.114.413.2.615l.26.617a23.9,23.9,0,0,0,1.386,2.538c1.055,1.75,2.3,3.643,3.673,5.687s2.89,4.237,4.514,6.574c3.264,4.665,6.992,9.894,11.113,15.554h0l0,.007a9.936,9.936,0,0,0,3.682,3.36,6.611,6.611,0,0,0,2.471.695c.431.022.874.022,1.323.013s.9,0,1.346,0c3.6.022,7.328.095,11.161.168l24.106.544,44.166.834-.081.039a25.747,25.747,0,0,0,1.494-2.2,9.246,9.246,0,0,0,.6-1.155,7.591,7.591,0,0,0,.336-1.238c.366-1.684.657-3.344.911-4.967.5-3.248.827-6.354,1.008-9.282a77.52,77.52,0,0,0-.428-15.179,48.113,48.113,0,0,0-2.224-9.536l-.531-1.4c-.151-.405-.312-.733-.423-1l-.262-.61C273.485,256.858,273.459,256.787,273.459,256.787Z" transform="translate(-163.24 -256.787)" fill="#263238"/>
          </g>
        </g>
        <g id="Grupo_82692" data-name="Grupo 82692" transform="translate(101.969 25.656)">
          <g id="Grupo_82691" data-name="Grupo 82691">
            <path id="Trazado_117134" data-name="Trazado 117134" d="M333.543,282.435a1.8,1.8,0,0,1,.112.377c.06.25.137.623.217,1.106.158.965.322,2.373.43,4.118.234,3.493.14,8.323.071,13.651-.084,5.331-.2,10.155-.3,13.647-.055,1.73-.1,3.137-.132,4.134l-.049,1.124-.018.292a.345.345,0,0,1-.014.1.328.328,0,0,1-.009-.1c0-.08,0-.176,0-.293q0-.415.006-1.125c.014-1,.035-2.405.06-4.136.06-3.51.143-8.326.234-13.647.069-5.328.188-10.154,0-13.639-.087-1.742-.227-3.148-.357-4.114-.066-.483-.128-.857-.174-1.109l-.053-.287A.377.377,0,0,1,333.543,282.435Z" transform="translate(-333.542 -282.435)" fill="#263238"/>
          </g>
        </g>
        <g id="Grupo_82693" data-name="Grupo 82693" transform="translate(102.416 3.456)">
          <path id="Trazado_117135" data-name="Trazado 117135" d="M334.921,213.91l3.986,20.152,42.514,3.02,6.547-8.88S371.5,218.831,357.025,216C342.343,213.135,334.921,213.91,334.921,213.91Z" transform="translate(-334.921 -213.815)" fill="#455a64"/>
        </g>
        <g id="Grupo_82694" data-name="Grupo 82694" transform="translate(48.839 3.866)" opacity="0.3">
          <path id="Trazado_117136" data-name="Trazado 117136" d="M169.317,229.976c.134-.4,4.943-9.487,5.879-10.021s39.817-5.478,40.351-4.81,1.871,19.775,1.871,19.775Z" transform="translate(-169.317 -215.083)"/>
        </g>
        <g id="Grupo_82695" data-name="Grupo 82695" transform="translate(102.416 3.456)" opacity="0.3">
          <path id="Trazado_117137" data-name="Trazado 117137" d="M334.921,213.91l3.986,20.152,42.514,3.02,6.547-8.88S371.5,218.831,357.025,216C342.343,213.135,334.921,213.91,334.921,213.91Z" transform="translate(-334.921 -213.815)"/>
        </g>
        <g id="Grupo_82696" data-name="Grupo 82696" transform="translate(68.984 49.887)" opacity="0.2">
          <path id="Trazado_117138" data-name="Trazado 117138" d="M231.585,357.555s19.86,8.349,23.472,9.136,61.8,1.237,61.8,1.237l1.2-2.6-60.737-.4S232.926,355.812,231.585,357.555Z" transform="translate(-231.585 -357.333)"/>
        </g>
        <g id="Grupo_82698" data-name="Grupo 82698" transform="translate(15.11 24.564)">
          <g id="Grupo_82697" data-name="Grupo 82697">
            <path id="Trazado_117139" data-name="Trazado 117139" d="M107.349,297.559a.857.857,0,0,1-.105-.1c-.066-.066-.171-.157-.306-.28a13.381,13.381,0,0,0-1.278-.952,18.479,18.479,0,0,0-2.216-1.2,23.26,23.26,0,0,0-3.144-1.116,27.682,27.682,0,0,0-3.971-.766c-.72-.11-1.473-.141-2.246-.206-.387-.033-.78-.017-1.178-.029s-.8-.028-1.21.011a24.79,24.79,0,0,0-10.2,2.691,21.513,21.513,0,0,0-3.945,2.532l-.094.078-.07-.1c-1.894-2.616-3.655-5.089-5.184-7.36s-2.82-4.339-3.871-6.08-1.867-3.15-2.428-4.121l-.635-1.119-.16-.292a.467.467,0,0,1-.048-.1.479.479,0,0,1,.066.092l.177.282.668,1.1,2.484,4.085c1.067,1.729,2.37,3.786,3.908,6.046s3.305,4.726,5.2,7.338l-.165-.018a21.56,21.56,0,0,1,3.99-2.566,24.807,24.807,0,0,1,10.3-2.7c.411-.038.819-.007,1.22-.007s.8,0,1.187.034c.777.068,1.534.1,2.258.218a27.362,27.362,0,0,1,3.991.8,22.8,22.8,0,0,1,3.154,1.155,17.642,17.642,0,0,1,2.212,1.241,11.5,11.5,0,0,1,1.259.992c.131.128.232.226.292.3A.531.531,0,0,1,107.349,297.559Z" transform="translate(-65.06 -279.058)" fill="#263238"/>
          </g>
        </g>
        <g id="Grupo_82700" data-name="Grupo 82700" transform="translate(4.14 37.177)">
          <g id="Grupo_82699" data-name="Grupo 82699">
            <path id="Trazado_117140" data-name="Trazado 117140" d="M33.592,334.554a3.678,3.678,0,0,1-.164-.637c-.091-.413-.212-1.012-.352-1.754-.282-1.485-.633-3.543-.969-5.823s-.593-4.354-.752-5.856c-.08-.751-.137-1.36-.169-1.781a3.642,3.642,0,0,1-.027-.657,3.617,3.617,0,0,1,.115.647c.062.46.143,1.055.24,1.772.2,1.5.481,3.563.817,5.842s.662,4.338.9,5.829l.281,1.766A3.617,3.617,0,0,1,33.592,334.554Z" transform="translate(-31.153 -318.045)" fill="#263238"/>
          </g>
        </g>
        <g id="Grupo_82702" data-name="Grupo 82702" transform="translate(2.192 52.972)">
          <g id="Grupo_82701" data-name="Grupo 82701">
            <path id="Trazado_117141" data-name="Trazado 117141" d="M47.41,369.079a.888.888,0,0,1-.228.017l-.654,0c-.567,0-1.388-.016-2.4-.051-2.028-.067-4.828-.228-7.909-.533s-5.859-.7-7.86-1.031c-1-.166-1.809-.311-2.365-.422l-.64-.132a.86.86,0,0,1-.22-.061.868.868,0,0,1,.228.016l.647.09,2.374.351c2.006.291,4.781.658,7.859.964s5.87.489,7.893.6l2.4.123.652.039A.869.869,0,0,1,47.41,369.079Z" transform="translate(-25.132 -366.867)" fill="#263238"/>
          </g>
        </g>
        <g id="Grupo_82703" data-name="Grupo 82703" transform="translate(217.831 35.663)">
          <path id="Trazado_117142" data-name="Trazado 117142" d="M694.057,323.064s-2.458-5.691-2.388-5.882c.379-1.02,1.79-3.817,1.79-3.817a28.337,28.337,0,0,1,2.556,1.642,32.36,32.36,0,0,1,4.76,4.142,4.555,4.555,0,0,1,1.176,3.054l0,4.767Z" transform="translate(-691.668 -313.365)" fill="#ebebeb"/>
        </g>
        <g id="Grupo_82705" data-name="Grupo 82705" transform="translate(164.4 18.996)">
          <g id="Grupo_82704" data-name="Grupo 82704">
            <path id="Trazado_117143" data-name="Trazado 117143" d="M528.843,261.849a68.529,68.529,0,0,1-2.324,3.039,9.241,9.241,0,0,1,2.324-3.039Z" transform="translate(-526.514 -261.846)" fill="#263238"/>
          </g>
        </g>
        <g id="Grupo_82706" data-name="Grupo 82706" transform="translate(6.804 19.127)">
          <path id="Trazado_117144" data-name="Trazado 117144" d="M39.385,262.253s18.623,1.524,18.418,1.935-18.418,6.02-18.418,6.02Z" transform="translate(-39.385 -262.253)" fill="#ebebeb"/>
        </g>
        <g id="Grupo_82708" data-name="Grupo 82708" transform="translate(6.631 19.163)">
          <g id="Grupo_82707" data-name="Grupo 82707">
            <path id="Trazado_117145" data-name="Trazado 117145" d="M38.967,270.511a73.116,73.116,0,0,1,0-8.147,36.594,36.594,0,0,1,.115,4.074A36.73,36.73,0,0,1,38.967,270.511Z" transform="translate(-38.852 -262.364)" fill="#263238"/>
          </g>
        </g>
        <g id="Grupo_82710" data-name="Grupo 82710" transform="translate(76.153 35.209)">
          <g id="Grupo_82709" data-name="Grupo 82709">
            <path id="Trazado_117146" data-name="Trazado 117146" d="M384.269,325.736s-.034-.053-.1-.16-.156-.266-.289-.47c-.254-.415-.662-1.011-1.22-1.764a26.794,26.794,0,0,0-2.252-2.605,22.828,22.828,0,0,0-3.542-2.985,19.517,19.517,0,0,0-5.1-2.556,22.236,22.236,0,0,0-6.607-1.012,29.62,29.62,0,0,0-7.537.806,23.968,23.968,0,0,0-3.89,1.266,17.65,17.65,0,0,0-3.721,2.061l-.036.027-.04,0-28.347-2.8-26.339-2.621-.756-.076-.754-.039-1.493-.072-2.928-.129-5.6-.2c-3.615-.111-6.984-.179-10.059-.224-6.151-.089-11.13-.1-14.57-.118l-3.962-.023-1.03-.011c-.232,0-.351-.012-.351-.012s.119-.008.351-.011l1.03-.011,3.962-.02c3.441-.007,8.419-.022,14.572.046,3.076.035,6.446.093,10.063.2q2.712.077,5.6.189l2.93.124,1.5.07.755.038.756.074,26.343,2.6,28.347,2.822-.075.022a17.8,17.8,0,0,1,3.775-2.085,24.08,24.08,0,0,1,3.923-1.268,29.688,29.688,0,0,1,7.585-.792,22.317,22.317,0,0,1,6.651,1.041,19.579,19.579,0,0,1,5.125,2.6,22.762,22.762,0,0,1,3.54,3.02,26.065,26.065,0,0,1,2.236,2.633c.551.762.951,1.364,1.2,1.786S384.269,325.736,384.269,325.736Z" transform="translate(-253.744 -311.963)" fill="#263238"/>
          </g>
        </g>
        <g id="Grupo_82712" data-name="Grupo 82712" transform="translate(70 50.684)">
          <g id="Grupo_82711" data-name="Grupo 82711">
            <path id="Trazado_117147" data-name="Trazado 117147" d="M318.984,369.592s-.075.006-.222.007l-.651,0-2.5-.029-9.2-.148-30.339-.574-16.7-.343-.957-.02a8.49,8.49,0,0,1-.954-.047,7.224,7.224,0,0,1-1.776-.583c-1.126-.457-2.227-.883-3.291-1.293-2.132-.815-4.128-1.549-5.95-2.221-3.645-1.337-6.589-2.442-8.605-3.248-1.009-.4-1.79-.721-2.315-.946l-.6-.257c-.134-.059-.2-.095-.2-.095s.072.021.209.073l.606.236,2.33.906c2.026.78,4.976,1.861,8.629,3.18,1.825.662,3.825,1.387,5.961,2.2,1.067.407,2.17.83,3.3,1.284a7.055,7.055,0,0,0,1.73.565,8.469,8.469,0,0,0,.931.043l.957.018,16.7.325,30.337.64,9.2.22,2.5.071.65.024C318.909,369.582,318.984,369.592,318.984,369.592Z" transform="translate(-234.724 -359.794)" fill="#263238"/>
          </g>
        </g>
        <g id="Grupo_82714" data-name="Grupo 82714" transform="translate(147.713 16.243)">
          <g id="Grupo_82713" data-name="Grupo 82713">
            <path id="Trazado_117148" data-name="Trazado 117148" d="M476.471,255.053a13.574,13.574,0,0,0-1.516,6.591,3.136,3.136,0,0,0,3.1,2.938l7.658.057a2.267,2.267,0,0,0,2.3-1.9,2.008,2.008,0,0,0-.194-1.166c-.8-1.622-1.459-1.314-1.459-1.314s-2.318-4.784-5.843-6.6A3.013,3.013,0,0,0,476.471,255.053Z" transform="translate(-474.935 -253.338)" fill="#ff725e"/>
          </g>
        </g>
        <g id="Grupo_82717" data-name="Grupo 82717" transform="translate(157.269 22.82)">
          <g id="Grupo_82716" data-name="Grupo 82716">
            <g id="Grupo_82715" data-name="Grupo 82715">
              <path id="Trazado_117149" data-name="Trazado 117149" d="M504.475,278.124c.012.029.3-.055.7-.338a2.861,2.861,0,0,0,1.112-1.506,6.651,6.651,0,0,0,.156-1.851.385.385,0,1,0-.187-.006,9.933,9.933,0,0,1-.224,1.785,3.082,3.082,0,0,1-.974,1.433C504.71,277.945,504.457,278.087,504.475,278.124Z" transform="translate(-504.474 -273.667)" fill="#263238"/>
            </g>
          </g>
        </g>
        <g id="Grupo_82720" data-name="Grupo 82720" transform="translate(152.756 16.837)">
          <g id="Grupo_82719" data-name="Grupo 82719">
            <g id="Grupo_82718" data-name="Grupo 82718">
              <path id="Trazado_117150" data-name="Trazado 117150" d="M495.616,260.229a3.178,3.178,0,0,0-.426-.993,9.467,9.467,0,0,0-3.669-3.641,3.188,3.188,0,0,0-1-.418,13.133,13.133,0,0,1,5.09,5.051Z" transform="translate(-490.524 -255.174)" fill="#fff"/>
            </g>
          </g>
        </g>
        <g id="Grupo_82722" data-name="Grupo 82722" transform="translate(98.743 2.217)">
          <g id="Grupo_82721" data-name="Grupo 82721">
            <path id="Trazado_117151" data-name="Trazado 117151" d="M323.571,209.983a.961.961,0,0,1,.065.233l.141.676c.117.588.279,1.439.467,2.494.378,2.109.877,5.027,1.357,8.261s.849,6.174,1.036,8.311c.053.533.085,1.017.11,1.443s.052.791.053,1.091c0,.279.006.507.008.691a.121.121,0,1,1-.046,0l-.051-.687c-.015-.3-.052-.663-.091-1.086s-.08-.905-.143-1.437c-.227-2.128-.62-5.06-1.1-8.293s-.953-6.152-1.291-8.268l-.4-2.506c-.04-.276-.073-.5-.1-.683A1,1,0,0,1,323.571,209.983Z" transform="translate(-323.568 -209.983)" fill="#455a64"/>
          </g>
        </g>
        <g id="Grupo_82723" data-name="Grupo 82723" transform="translate(6.804 19.958)" opacity="0.2">
          <path id="Trazado_117152" data-name="Trazado 117152" d="M39.385,271.947l9.21-5.463.266-1.661c3.575.355,7.915.693,8.942,1.1C57.8,266.206,46.478,269.8,39.385,271.947Z" transform="translate(-39.385 -264.823)"/>
        </g>
        <g id="Grupo_82724" data-name="Grupo 82724" transform="translate(217.832 39.48)" opacity="0.2">
          <path id="Trazado_117153" data-name="Trazado 117153" d="M691.673,325.163l4.921,4.178,5.362.843,0,4.767-7.9-3.906C693.089,328.779,692.2,326.659,691.673,325.163Z" transform="translate(-691.673 -325.163)"/>
        </g>
        <g id="Grupo_82726" data-name="Grupo 82726" transform="translate(168.737 27.284)">
          <g id="Grupo_82725" data-name="Grupo 82725">
            <path id="Trazado_117154" data-name="Trazado 117154" d="M588.963,299.663a.585.585,0,0,1-.125-.043l-.357-.147-1.364-.582-5.014-2.146c-2.12-.9-4.647-1.962-7.478-3.078-1.418-.544-2.909-1.135-4.489-1.587-.794-.2-1.629-.322-2.471-.467l-2.569-.406c-6.948-1.061-13.247-1.957-17.8-2.625l-5.4-.794-1.465-.226-.38-.064a.066.066,0,1,1,0-.023l.383.042,1.472.184,5.406.722c4.563.628,10.866,1.5,17.816,2.559l2.571.407c.843.146,1.679.269,2.491.475,1.6.462,3.089,1.057,4.51,1.608,2.83,1.128,5.351,2.208,7.464,3.125s3.813,1.679,4.986,2.212l1.347.621.348.167A.565.565,0,0,1,588.963,299.663Z" transform="translate(-539.922 -287.467)" fill="#263238"/>
          </g>
        </g>
        <g id="Grupo_82782" data-name="Grupo 82782" transform="translate(23.802 40.699)">
          <g id="Grupo_82737" data-name="Grupo 82737" transform="translate(0 0)">
            <g id="Grupo_82736" data-name="Grupo 82736">
              <g id="Grupo_82735" data-name="Grupo 82735">
                <g id="Grupo_82734" data-name="Grupo 82734">
                  <g id="Grupo_82733" data-name="Grupo 82733">
                    <g id="Grupo_82732" data-name="Grupo 82732">
                      <g id="Grupo_82731" data-name="Grupo 82731">
                        <g id="Grupo_82730" data-name="Grupo 82730">
                          <g id="Grupo_82729" data-name="Grupo 82729">
                            <g id="Grupo_82728" data-name="Grupo 82728">
                              <g id="Grupo_82727" data-name="Grupo 82727">
                                <circle id="Elipse_4849" data-name="Elipse 4849" cx="17.424" cy="17.424" r="17.424" transform="matrix(0.996, -0.085, 0.085, 0.996, 0, 2.97)" fill="#263238"/>
                              </g>
                            </g>
                          </g>
                        </g>
                      </g>
                    </g>
                  </g>
                </g>
              </g>
            </g>
          </g>
          <g id="Grupo_82748" data-name="Grupo 82748" transform="translate(1.422 18.549)">
            <g id="Grupo_82747" data-name="Grupo 82747">
              <g id="Grupo_82746" data-name="Grupo 82746">
                <g id="Grupo_82745" data-name="Grupo 82745">
                  <g id="Grupo_82744" data-name="Grupo 82744">
                    <g id="Grupo_82743" data-name="Grupo 82743">
                      <g id="Grupo_82742" data-name="Grupo 82742">
                        <g id="Grupo_82741" data-name="Grupo 82741">
                          <g id="Grupo_82740" data-name="Grupo 82740">
                            <g id="Grupo_82739" data-name="Grupo 82739">
                              <g id="Grupo_82738" data-name="Grupo 82738">
                                <path id="Trazado_117155" data-name="Trazado 117155" d="M96.326,386.266c0,.015,0,.03,0,.045a17.424,17.424,0,0,0,34.843.5c0-.015,0-.03,0-.045Z" transform="translate(-96.321 -386.266)" fill="#263238"/>
                              </g>
                            </g>
                          </g>
                        </g>
                      </g>
                    </g>
                  </g>
                </g>
              </g>
            </g>
          </g>
          <g id="Grupo_82759" data-name="Grupo 82759" transform="translate(6.613 6.612)">
            <g id="Grupo_82758" data-name="Grupo 82758">
              <g id="Grupo_82757" data-name="Grupo 82757">
                <g id="Grupo_82756" data-name="Grupo 82756">
                  <g id="Grupo_82755" data-name="Grupo 82755">
                    <g id="Grupo_82754" data-name="Grupo 82754">
                      <g id="Grupo_82753" data-name="Grupo 82753">
                        <g id="Grupo_82752" data-name="Grupo 82752">
                          <g id="Grupo_82751" data-name="Grupo 82751">
                            <g id="Grupo_82750" data-name="Grupo 82750">
                              <g id="Grupo_82749" data-name="Grupo 82749">
                                <path id="Trazado_117156" data-name="Trazado 117156" d="M112.368,361.426a12.232,12.232,0,1,0,12.408-12.055A12.232,12.232,0,0,0,112.368,361.426Z" transform="translate(-112.367 -349.37)" fill="#fafafa"/>
                              </g>
                            </g>
                          </g>
                        </g>
                      </g>
                    </g>
                  </g>
                </g>
              </g>
            </g>
          </g>
          <g id="Grupo_82770" data-name="Grupo 82770" transform="translate(6.614 6.612)">
            <g id="Grupo_82769" data-name="Grupo 82769">
              <g id="Grupo_82768" data-name="Grupo 82768">
                <g id="Grupo_82767" data-name="Grupo 82767">
                  <g id="Grupo_82766" data-name="Grupo 82766">
                    <g id="Grupo_82765" data-name="Grupo 82765">
                      <g id="Grupo_82764" data-name="Grupo 82764">
                        <g id="Grupo_82763" data-name="Grupo 82763">
                          <g id="Grupo_82762" data-name="Grupo 82762">
                            <g id="Grupo_82761" data-name="Grupo 82761">
                              <g id="Grupo_82760" data-name="Grupo 82760">
                                <path id="Trazado_117157" data-name="Trazado 117157" d="M124.779,349.371a12.233,12.233,0,0,0-12.408,12.055l24.462.353A12.233,12.233,0,0,0,124.779,349.371Z" transform="translate(-112.371 -349.37)" fill="#e0e0e0"/>
                              </g>
                            </g>
                          </g>
                        </g>
                      </g>
                    </g>
                  </g>
                </g>
              </g>
            </g>
          </g>
          <g id="Grupo_82781" data-name="Grupo 82781" transform="translate(11.394 11.393)">
            <g id="Grupo_82780" data-name="Grupo 82780">
              <g id="Grupo_82779" data-name="Grupo 82779">
                <g id="Grupo_82778" data-name="Grupo 82778">
                  <g id="Grupo_82777" data-name="Grupo 82777">
                    <g id="Grupo_82776" data-name="Grupo 82776">
                      <g id="Grupo_82775" data-name="Grupo 82775">
                        <g id="Grupo_82774" data-name="Grupo 82774">
                          <g id="Grupo_82773" data-name="Grupo 82773">
                            <g id="Grupo_82772" data-name="Grupo 82772">
                              <g id="Grupo_82771" data-name="Grupo 82771">
                                <path id="Trazado_117158" data-name="Trazado 117158" d="M127.146,371.493a7.451,7.451,0,1,0,7.558-7.343A7.451,7.451,0,0,0,127.146,371.493Z" transform="translate(-127.146 -364.149)" fill="#263238"/>
                              </g>
                            </g>
                          </g>
                        </g>
                      </g>
                    </g>
                  </g>
                </g>
              </g>
            </g>
          </g>
        </g>
        <g id="Grupo_82838" data-name="Grupo 82838" transform="translate(169.417 42.12)">
          <g id="Grupo_82793" data-name="Grupo 82793">
            <g id="Grupo_82792" data-name="Grupo 82792">
              <g id="Grupo_82791" data-name="Grupo 82791">
                <g id="Grupo_82790" data-name="Grupo 82790">
                  <g id="Grupo_82789" data-name="Grupo 82789">
                    <g id="Grupo_82788" data-name="Grupo 82788">
                      <g id="Grupo_82787" data-name="Grupo 82787">
                        <g id="Grupo_82786" data-name="Grupo 82786">
                          <g id="Grupo_82785" data-name="Grupo 82785">
                            <g id="Grupo_82784" data-name="Grupo 82784">
                              <g id="Grupo_82783" data-name="Grupo 82783">
                                <path id="Trazado_117159" data-name="Trazado 117159" d="M542.024,350.5A17.424,17.424,0,1,0,559.7,333.327,17.424,17.424,0,0,0,542.024,350.5Z" transform="translate(-542.022 -333.325)" fill="#263238"/>
                              </g>
                            </g>
                          </g>
                        </g>
                      </g>
                    </g>
                  </g>
                </g>
              </g>
            </g>
          </g>
          <g id="Grupo_82804" data-name="Grupo 82804" transform="translate(0 17.127)">
            <g id="Grupo_82803" data-name="Grupo 82803">
              <g id="Grupo_82802" data-name="Grupo 82802">
                <g id="Grupo_82801" data-name="Grupo 82801">
                  <g id="Grupo_82800" data-name="Grupo 82800">
                    <g id="Grupo_82799" data-name="Grupo 82799">
                      <g id="Grupo_82798" data-name="Grupo 82798">
                        <g id="Grupo_82797" data-name="Grupo 82797">
                          <g id="Grupo_82796" data-name="Grupo 82796">
                            <g id="Grupo_82795" data-name="Grupo 82795">
                              <g id="Grupo_82794" data-name="Grupo 82794">
                                <path id="Trazado_117160" data-name="Trazado 117160" d="M542.027,386.266c0,.015,0,.03,0,.045a17.424,17.424,0,0,0,34.844.5c0-.015,0-.03,0-.045Z" transform="translate(-542.022 -386.266)" fill="#263238"/>
                              </g>
                            </g>
                          </g>
                        </g>
                      </g>
                    </g>
                  </g>
                </g>
              </g>
            </g>
          </g>
          <g id="Grupo_82815" data-name="Grupo 82815" transform="translate(5.191 5.191)">
            <g id="Grupo_82814" data-name="Grupo 82814">
              <g id="Grupo_82813" data-name="Grupo 82813">
                <g id="Grupo_82812" data-name="Grupo 82812">
                  <g id="Grupo_82811" data-name="Grupo 82811">
                    <g id="Grupo_82810" data-name="Grupo 82810">
                      <g id="Grupo_82809" data-name="Grupo 82809">
                        <g id="Grupo_82808" data-name="Grupo 82808">
                          <g id="Grupo_82807" data-name="Grupo 82807">
                            <g id="Grupo_82806" data-name="Grupo 82806">
                              <g id="Grupo_82805" data-name="Grupo 82805">
                                <path id="Trazado_117161" data-name="Trazado 117161" d="M558.069,361.426a12.233,12.233,0,1,0,12.408-12.055A12.232,12.232,0,0,0,558.069,361.426Z" transform="translate(-558.068 -349.37)" fill="#fafafa"/>
                              </g>
                            </g>
                          </g>
                        </g>
                      </g>
                    </g>
                  </g>
                </g>
              </g>
            </g>
          </g>
          <g id="Grupo_82826" data-name="Grupo 82826" transform="translate(5.192 5.191)">
            <g id="Grupo_82825" data-name="Grupo 82825">
              <g id="Grupo_82824" data-name="Grupo 82824">
                <g id="Grupo_82823" data-name="Grupo 82823">
                  <g id="Grupo_82822" data-name="Grupo 82822">
                    <g id="Grupo_82821" data-name="Grupo 82821">
                      <g id="Grupo_82820" data-name="Grupo 82820">
                        <g id="Grupo_82819" data-name="Grupo 82819">
                          <g id="Grupo_82818" data-name="Grupo 82818">
                            <g id="Grupo_82817" data-name="Grupo 82817">
                              <g id="Grupo_82816" data-name="Grupo 82816">
                                <path id="Trazado_117162" data-name="Trazado 117162" d="M570.48,349.371a12.233,12.233,0,0,0-12.408,12.055l24.463.353A12.233,12.233,0,0,0,570.48,349.371Z" transform="translate(-558.072 -349.37)" fill="#e0e0e0"/>
                              </g>
                            </g>
                          </g>
                        </g>
                      </g>
                    </g>
                  </g>
                </g>
              </g>
            </g>
          </g>
          <g id="Grupo_82837" data-name="Grupo 82837" transform="translate(9.972 9.972)">
            <g id="Grupo_82836" data-name="Grupo 82836">
              <g id="Grupo_82835" data-name="Grupo 82835">
                <g id="Grupo_82834" data-name="Grupo 82834">
                  <g id="Grupo_82833" data-name="Grupo 82833">
                    <g id="Grupo_82832" data-name="Grupo 82832">
                      <g id="Grupo_82831" data-name="Grupo 82831">
                        <g id="Grupo_82830" data-name="Grupo 82830">
                          <g id="Grupo_82829" data-name="Grupo 82829">
                            <g id="Grupo_82828" data-name="Grupo 82828">
                              <g id="Grupo_82827" data-name="Grupo 82827">
                                <path id="Trazado_117163" data-name="Trazado 117163" d="M572.847,371.493a7.451,7.451,0,1,0,7.558-7.343A7.452,7.452,0,0,0,572.847,371.493Z" transform="translate(-572.847 -364.149)" fill="#263238"/>
                              </g>
                            </g>
                          </g>
                        </g>
                      </g>
                    </g>
                  </g>
                </g>
              </g>
            </g>
          </g>
        </g>
        <g id="Grupo_82847" data-name="Grupo 82847" transform="translate(71.624 10.96)">
          <g id="Grupo_82840" data-name="Grupo 82840" transform="translate(49.415 2.022)">
            <g id="Grupo_82839" data-name="Grupo 82839">
              <path id="Trazado_117164" data-name="Trazado 117164" d="M392.488,250.6c-.028-.056,3.2-1.744,7.209-3.77s7.283-3.624,7.312-3.568-3.2,1.744-7.209,3.77S392.516,250.655,392.488,250.6Z" transform="translate(-392.487 -243.261)" fill="#fff"/>
            </g>
          </g>
          <g id="Grupo_82842" data-name="Grupo 82842" transform="translate(44.92 1.664)">
            <g id="Grupo_82841" data-name="Grupo 82841">
              <path id="Trazado_117165" data-name="Trazado 117165" d="M378.593,249.409c-.029-.055,3.036-1.724,6.845-3.727s6.923-3.582,6.952-3.527-3.036,1.724-6.846,3.728S378.622,249.464,378.593,249.409Z" transform="translate(-378.592 -242.154)" fill="#fff"/>
            </g>
          </g>
          <g id="Grupo_82844" data-name="Grupo 82844" transform="translate(0 1.589)">
            <g id="Grupo_82843" data-name="Grupo 82843">
              <path id="Trazado_117166" data-name="Trazado 117166" d="M239.745,248.5a4.022,4.022,0,0,1,.629-.281l1.742-.7,5.746-2.294,5.721-2.358,1.734-.715a4.057,4.057,0,0,1,.647-.236,3.95,3.95,0,0,1-.612.317c-.4.191-.983.458-1.706.782-1.447.647-3.458,1.512-5.7,2.422s-4.286,1.69-5.775,2.234c-.744.272-1.348.487-1.769.628A3.959,3.959,0,0,1,239.745,248.5Z" transform="translate(-239.745 -241.921)" fill="#fff"/>
            </g>
          </g>
          <g id="Grupo_82846" data-name="Grupo 82846" transform="translate(4.152)">
            <g id="Grupo_82845" data-name="Grupo 82845">
              <path id="Trazado_117167" data-name="Trazado 117167" d="M252.577,240.4a75.49,75.49,0,0,1,7.554-3.39,75.572,75.572,0,0,1-7.554,3.39Z" transform="translate(-252.577 -237.009)" fill="#fff"/>
            </g>
          </g>
        </g>
        <g id="Grupo_82849" data-name="Grupo 82849" transform="translate(219.622 35.662)">
          <g id="Grupo_82848" data-name="Grupo 82848">
            <path id="Trazado_117168" data-name="Trazado 117168" d="M705.7,326.968a3.934,3.934,0,0,1-.045-.686c-.01-.482-.022-1.112-.038-1.87-.02-.785,0-1.741-.047-2.764a5.908,5.908,0,0,0-1.588-2.874,15.8,15.8,0,0,0-2.465-2.292c-.82-.642-1.582-1.191-2.225-1.647l-1.534-1.067a4.356,4.356,0,0,1-.554-.406,3.664,3.664,0,0,1,.6.332c.378.229.92.569,1.577,1.009s1.431.978,2.263,1.614a15.243,15.243,0,0,1,2.512,2.313,13.036,13.036,0,0,1,1.051,1.427,3.526,3.526,0,0,1,.57,1.571c.038,1.063,0,1.99,0,2.783-.014.759-.026,1.389-.035,1.871A4.022,4.022,0,0,1,705.7,326.968Z" transform="translate(-697.206 -313.362)" fill="#263238"/>
          </g>
        </g>
      </g>
    </g>
    <g id="Grupo_84041" data-name="Grupo 84041" transform="translate(620 5761.152)">
      <g id="Grupo_84038" data-name="Grupo 84038" transform="translate(0 1.515)">
        <g id="Grupo_83575" data-name="Grupo 83575">
          <g id="Grupo_83574" data-name="Grupo 83574">
            <path id="Trazado_117278" data-name="Trazado 117278" d="M257.263,142.207a.462.462,0,0,0,.464.447.441.441,0,0,0,.458-.435.461.461,0,0,0-.463-.447A.442.442,0,0,0,257.263,142.207Z" transform="translate(-257.263 -141.771)" fill="#263238"/>
          </g>
        </g>
      </g>
      <g id="Grupo_84039" data-name="Grupo 84039" transform="translate(4.241 1.515)">
        <g id="Grupo_83581" data-name="Grupo 83581" transform="translate(0)">
          <g id="Grupo_83580" data-name="Grupo 83580">
            <path id="Trazado_117280" data-name="Trazado 117280" d="M244.153,142.207a.462.462,0,0,0,.464.447.442.442,0,0,0,.458-.435.462.462,0,0,0-.464-.447A.442.442,0,0,0,244.153,142.207Z" transform="translate(-244.153 -141.771)" fill="#263238"/>
          </g>
        </g>
      </g>
      <g id="Grupo_84040" data-name="Grupo 84040" transform="translate(1.355)">
        <g id="Grupo_83587" data-name="Grupo 83587">
          <g id="Grupo_83586" data-name="Grupo 83586">
            <path id="Trazado_117282" data-name="Trazado 117282" d="M253.057,141.234a3.293,3.293,0,0,0-.812-.112c-.127-.008-.248-.028-.273-.114a.644.644,0,0,1,.069-.379l.335-.98a16.6,16.6,0,0,0,.737-2.558,16.65,16.65,0,0,0-.941,2.493c-.111.344-.218.672-.319.985a.733.733,0,0,0-.045.5.319.319,0,0,0,.216.177.871.871,0,0,0,.217.021A3.226,3.226,0,0,0,253.057,141.234Z" transform="translate(-251.778 -137.09)" fill="#263238"/>
          </g>
        </g>
      </g>
    </g>
  </g>
</svg>
