<svg xmlns="http://www.w3.org/2000/svg" xmlns:xlink="http://www.w3.org/1999/xlink" width="314" height="314" viewBox="0 0 314 314">
  <defs>
    <clipPath id="clip-path">
      <rect id="Rectángulo_34595" data-name="Rectángulo 34595" width="314" height="314" transform="translate(-10883 -6683)" fill="#fff"/>
    </clipPath>
  </defs>
  <g id="Grupo_84455" data-name="Grupo 84455" transform="translate(10799 6576)">
    <g id="Grupo_84454" data-name="Grupo 84454">
      <g id="Enmascarar_grupo_147" data-name="Enmascarar grupo 147" transform="translate(84 107)" clip-path="url(#clip-path)">
        <g id="Grupo_84450" data-name="Grupo 84450" transform="translate(-0.333 -19.997)">
          <circle id="Elipse_4823" data-name="Elipse 4823" cx="121.366" cy="121.366" r="121.366" transform="translate(-10907.667 -6492.365) rotate(-45)" fill="#f88f05"/>
          <path id="Trazado_116562" data-name="Trazado 116562" d="M180.707,332.826A121.362,121.362,0,0,1,68.009,166.42,121.358,121.358,0,1,0,273.726,289.391,121.092,121.092,0,0,1,180.707,332.826Z" transform="translate(-10897.057 -6736.718)" fill="#ffa836"/>
          <circle id="Elipse_4824" data-name="Elipse 4824" cx="33.837" cy="33.837" r="33.837" transform="translate(-10852.025 -6371.976) rotate(-76.717)" fill="#f88f05"/>
          <circle id="Elipse_4825" data-name="Elipse 4825" cx="28.904" cy="28.904" r="28.904" transform="translate(-10846.091 -6375.644) rotate(-76.717)" fill="none" stroke="#fff" stroke-miterlimit="10" stroke-width="0.75"/>
          <g id="Grupo_81592" data-name="Grupo 81592" transform="translate(-10870.1 -6648.163)">
            <path id="Trazado_116563" data-name="Trazado 116563" d="M315.27,284.668a6.993,6.993,0,0,1-6.992-6.992c0-78.2-63.616-141.814-141.812-141.814A140.957,140.957,0,0,0,45.354,203.855a6.992,6.992,0,0,1-11.934-7.29,154.845,154.845,0,0,1,133.045-74.689c85.906,0,155.8,69.89,155.8,155.8A6.993,6.993,0,0,1,315.27,284.668Z" transform="translate(-32.394 -121.877)" fill="#f88f05"/>
          </g>
          <path id="Trazado_119161" data-name="Trazado 119161" d="M10.745.35A8.236,8.236,0,0,1,5.688-1.225a9.6,9.6,0,0,1-3.2-4.428A18.492,18.492,0,0,1,1.4-12.25a18.492,18.492,0,0,1,1.085-6.6,9.6,9.6,0,0,1,3.2-4.428,8.236,8.236,0,0,1,5.058-1.575A8.236,8.236,0,0,1,15.8-23.275a9.6,9.6,0,0,1,3.2,4.428,18.492,18.492,0,0,1,1.085,6.6,18.492,18.492,0,0,1-1.085,6.6,9.6,9.6,0,0,1-3.2,4.428A8.236,8.236,0,0,1,10.745.35Zm0-4.2a3.929,3.929,0,0,0,3.517-2.135A12.381,12.381,0,0,0,15.54-12.25a12.381,12.381,0,0,0-1.278-6.265,3.929,3.929,0,0,0-3.517-2.135,3.929,3.929,0,0,0-3.518,2.135A12.381,12.381,0,0,0,5.95-12.25,12.381,12.381,0,0,0,7.228-5.985,3.929,3.929,0,0,0,10.745-3.85ZM29.54-24.5a1.968,1.968,0,0,1,1.47.613,2.1,2.1,0,0,1,.595,1.522v20.23A1.986,1.986,0,0,1,30.94-.613,2.337,2.337,0,0,1,29.3,0a2.214,2.214,0,0,1-1.61-.613,2.037,2.037,0,0,1-.63-1.523v-16.59l-2.17,1.33a2.141,2.141,0,0,1-1.12.315,1.948,1.948,0,0,1-1.487-.665,2.123,2.123,0,0,1-.613-1.47,1.989,1.989,0,0,1,.3-1.05,2.166,2.166,0,0,1,.788-.77l5.285-3.15A3.2,3.2,0,0,1,29.54-24.5Z" transform="translate(-10833.938 -6383.837)" fill="#fff"/>
          <path id="Trazado_119156" data-name="Trazado 119156" d="M4.5-4.824V0H1.074V-14.219H6.748a6.608,6.608,0,0,1,2.886.6,4.526,4.526,0,0,1,1.943,1.709,4.667,4.667,0,0,1,.688,2.515,4.114,4.114,0,0,1-1.489,3.325A6.179,6.179,0,0,1,6.689-4.824Zm0-2.646H6.748a2.118,2.118,0,0,0,1.519-.5,1.85,1.85,0,0,0,.522-1.406,2.287,2.287,0,0,0-.537-1.592,1.9,1.9,0,0,0-1.465-.605H4.5ZM17.412,0h-3.3V-15h3.3Zm7.979,0a3.716,3.716,0,0,1-.312-.947A3.06,3.06,0,0,1,22.539.2,3.749,3.749,0,0,1,20-.708a2.875,2.875,0,0,1-1.045-2.271,2.955,2.955,0,0,1,1.27-2.6,6.468,6.468,0,0,1,3.691-.879h1.016v-.559q0-1.462-1.26-1.462A1.03,1.03,0,0,0,22.5-7.319H19.209a2.95,2.95,0,0,1,1.3-2.487,5.479,5.479,0,0,1,3.325-.956,4.8,4.8,0,0,1,3.193.986,3.429,3.429,0,0,1,1.2,2.705v4.678a4.79,4.79,0,0,0,.449,2.227V0ZM23.33-2.148a1.836,1.836,0,0,0,1.021-.264,1.653,1.653,0,0,0,.581-.6V-4.7h-.957q-1.719,0-1.719,1.543a.942.942,0,0,0,.3.728A1.1,1.1,0,0,0,23.33-2.148Zm9.746-8.418.107,1.24A3.583,3.583,0,0,1,36.2-10.762a3.015,3.015,0,0,1,2.466.986,4.7,4.7,0,0,1,.845,2.969V0h-3.3V-6.67a1.783,1.783,0,0,0-.322-1.177,1.491,1.491,0,0,0-1.172-.376,1.569,1.569,0,0,0-1.436.762V0H29.99V-10.566ZM44.8,0H41.5V-10.566h3.3Zm-3.5-13.3a1.482,1.482,0,0,1,.508-1.159,1.909,1.909,0,0,1,1.318-.452,1.909,1.909,0,0,1,1.318.452,1.482,1.482,0,0,1,.508,1.159,1.482,1.482,0,0,1-.508,1.159,1.909,1.909,0,0,1-1.318.452,1.909,1.909,0,0,1-1.318-.452A1.482,1.482,0,0,1,41.309-13.3ZM47.6,0V-8.281H46.064v-2.285H47.6v-.352a4.034,4.034,0,0,1,1.387-3.232,5.541,5.541,0,0,1,3.6-1.055,12.787,12.787,0,0,1,3.438.566l-.449,2.6-.547-.146a8.7,8.7,0,0,0-2.246-.283q-1.885,0-1.885,1.719v.186h2.07v2.285H50.9V0Zm9.941,0H54.229V-10.566h3.311Zm6.475-2.344a1.464,1.464,0,0,0,1.074-.376,1.379,1.379,0,0,0,.371-1.05h3.086A3.653,3.653,0,0,1,67.3-.918,4.631,4.631,0,0,1,64.092.2,4.689,4.689,0,0,1,60.459-1.25a5.7,5.7,0,0,1-1.328-4v-.137a6.436,6.436,0,0,1,.591-2.827,4.3,4.3,0,0,1,1.7-1.885,5.081,5.081,0,0,1,2.637-.659,4.573,4.573,0,0,1,3.271,1.143,4.053,4.053,0,0,1,1.211,3.1H65.459a1.806,1.806,0,0,0-.4-1.26,1.382,1.382,0,0,0-1.074-.439q-1.279,0-1.494,1.631a11.507,11.507,0,0,0-.068,1.426A4.52,4.52,0,0,0,62.8-2.959,1.319,1.319,0,0,0,64.014-2.344ZM75.889,0a3.716,3.716,0,0,1-.312-.947A3.06,3.06,0,0,1,73.037.2a3.749,3.749,0,0,1-2.539-.9,2.875,2.875,0,0,1-1.045-2.271,2.955,2.955,0,0,1,1.27-2.6,6.468,6.468,0,0,1,3.691-.879H75.43v-.559q0-1.462-1.26-1.462A1.03,1.03,0,0,0,73-7.319H69.707a2.95,2.95,0,0,1,1.3-2.487,5.479,5.479,0,0,1,3.325-.956,4.8,4.8,0,0,1,3.193.986,3.429,3.429,0,0,1,1.2,2.705v4.678A4.79,4.79,0,0,0,79.18-.166V0ZM73.828-2.148a1.836,1.836,0,0,0,1.021-.264,1.653,1.653,0,0,0,.581-.6V-4.7h-.957q-1.719,0-1.719,1.543a.942.942,0,0,0,.3.728A1.1,1.1,0,0,0,73.828-2.148Zm11.191-.2a1.464,1.464,0,0,0,1.074-.376,1.379,1.379,0,0,0,.371-1.05h3.086A3.653,3.653,0,0,1,88.306-.918,4.631,4.631,0,0,1,85.1.2,4.689,4.689,0,0,1,81.465-1.25a5.7,5.7,0,0,1-1.328-4v-.137a6.436,6.436,0,0,1,.591-2.827,4.3,4.3,0,0,1,1.7-1.885,5.081,5.081,0,0,1,2.637-.659A4.573,4.573,0,0,1,88.34-9.619a4.053,4.053,0,0,1,1.211,3.1H86.465a1.806,1.806,0,0,0-.4-1.26,1.382,1.382,0,0,0-1.074-.439q-1.279,0-1.494,1.631a11.508,11.508,0,0,0-.068,1.426,4.52,4.52,0,0,0,.381,2.207A1.319,1.319,0,0,0,85.02-2.344ZM94.414,0h-3.3V-10.566h3.3Zm-3.5-13.3a1.482,1.482,0,0,1,.508-1.159,1.909,1.909,0,0,1,1.318-.452,1.909,1.909,0,0,1,1.318.452A1.482,1.482,0,0,1,94.57-13.3a1.482,1.482,0,0,1-.508,1.159,1.909,1.909,0,0,1-1.318.452,1.909,1.909,0,0,1-1.318-.452A1.482,1.482,0,0,1,90.918-13.3Zm5.107,7.92A6.236,6.236,0,0,1,96.641-8.2a4.4,4.4,0,0,1,1.768-1.9,5.323,5.323,0,0,1,2.705-.664,4.858,4.858,0,0,1,3.74,1.47,5.64,5.64,0,0,1,1.367,4v.117a5.472,5.472,0,0,1-1.372,3.921A4.871,4.871,0,0,1,101.133.2,4.927,4.927,0,0,1,97.51-1.157a5.29,5.29,0,0,1-1.475-3.667Zm3.291.205a3.932,3.932,0,0,0,.459,2.148,1.529,1.529,0,0,0,1.357.684q1.758,0,1.8-2.705v-.332q0-2.842-1.816-2.842-1.65,0-1.787,2.451ZM101.563-15h3.477l-2.715,3.066-2.686,0Zm9.131,4.434.107,1.24a3.583,3.583,0,0,1,3.018-1.436,3.015,3.015,0,0,1,2.466.986,4.7,4.7,0,0,1,.845,2.969V0h-3.3V-6.67a1.783,1.783,0,0,0-.322-1.177,1.491,1.491,0,0,0-1.172-.376,1.569,1.569,0,0,0-1.436.762V0h-3.291V-10.566ZM.508,21.639a6.455,6.455,0,0,1,1.084-3.955,3.568,3.568,0,0,1,3.027-1.445A3.035,3.035,0,0,1,7,17.352V12h3.3V27H7.344l-.166-1.133A3.116,3.116,0,0,1,4.6,27.2,3.562,3.562,0,0,1,1.611,25.75,6.659,6.659,0,0,1,.508,21.639Zm3.291.205q0,2.813,1.641,2.813A1.62,1.62,0,0,0,7,23.738V19.715a1.576,1.576,0,0,0-1.543-.937q-1.523,0-1.65,2.461ZM17.285,27.2a5.432,5.432,0,0,1-3.936-1.45,5.008,5.008,0,0,1-1.5-3.774V21.7a6.489,6.489,0,0,1,.6-2.861A4.395,4.395,0,0,1,14.2,16.917a5.292,5.292,0,0,1,2.734-.679,4.574,4.574,0,0,1,3.516,1.382,5.43,5.43,0,0,1,1.289,3.853v1.279H15.2a2.372,2.372,0,0,0,.771,1.4,2.3,2.3,0,0,0,1.543.508,2.958,2.958,0,0,0,2.441-1.094l1.5,1.777a4.2,4.2,0,0,1-1.743,1.353A5.891,5.891,0,0,1,17.285,27.2Zm-.371-8.418q-1.445,0-1.719,1.914h3.32v-.254a1.63,1.63,0,0,0-.4-1.226A1.593,1.593,0,0,0,16.914,18.777ZM26.533,27h-3.3V12h3.3Zm10.586-4.824V27H33.691V12.781h5.674a6.608,6.608,0,0,1,2.886.6,4.526,4.526,0,0,1,1.943,1.709,4.667,4.667,0,0,1,.688,2.515,4.114,4.114,0,0,1-1.489,3.325,6.179,6.179,0,0,1-4.087,1.245Zm0-2.646h2.246a2.118,2.118,0,0,0,1.519-.5,1.85,1.85,0,0,0,.522-1.406,2.287,2.287,0,0,0-.537-1.592,1.9,1.9,0,0,0-1.465-.605H37.119Zm18.408,1.436H50.137v3.4H56.5V27H46.709V12.781h9.814v2.646H50.137v3h5.391Zm9.707,2.256a1.408,1.408,0,0,0-.532-1.172,6.615,6.615,0,0,0-1.87-.869,17.942,17.942,0,0,1-2.187-.869q-2.764-1.357-2.764-3.73a3.345,3.345,0,0,1,.688-2.085,4.453,4.453,0,0,1,1.948-1.406,7.582,7.582,0,0,1,2.832-.5,6.632,6.632,0,0,1,2.749.547,4.352,4.352,0,0,1,1.89,1.558A4.068,4.068,0,0,1,68.662,17H65.244a1.719,1.719,0,0,0-.532-1.348,2.075,2.075,0,0,0-1.44-.479,2.339,2.339,0,0,0-1.45.405,1.193,1.193,0,0,0,.054,2.021,7.389,7.389,0,0,0,2.061.918,12.623,12.623,0,0,1,2.422,1.021,4.07,4.07,0,0,1,2.3,3.662,3.472,3.472,0,0,1-1.406,2.93A6.255,6.255,0,0,1,63.4,27.2a7.653,7.653,0,0,1-3.13-.62,4.719,4.719,0,0,1-2.109-1.7,4.428,4.428,0,0,1-.708-2.485h3.438a2.181,2.181,0,0,0,.591,1.685,2.793,2.793,0,0,0,1.919.542,2.206,2.206,0,0,0,1.343-.366A1.209,1.209,0,0,0,65.234,23.221Zm10.7-.088L78.77,12.781H82.6L77.813,27h-3.75L69.316,12.781h3.8Z" transform="translate(-10802.667 -6513.009)" fill="#12263f"/>
        </g>
      </g>
    </g>
  </g>
</svg>
