<svg xmlns="http://www.w3.org/2000/svg" width="241" height="159" viewBox="0 0 241 159">
  <g id="Grupo_84441" data-name="Grupo 84441" transform="translate(9984 8695)">
    <g id="Grupo_84437" data-name="Grupo 84437" transform="translate(-18.463 -2.116)">
      <g id="Grupo_81587" data-name="Grupo 81587" transform="translate(-10127.165 -8948.945)">
        <path id="Trazado_116559" data-name="Trazado 116559" d="M225.5,605.868h164l-23.45-38.132h-117.1Z" transform="translate(0 -200.733)" fill="#f88f05"/>
        <path id="Trazado_116560" data-name="Trazado 116560" d="M322.654,442.746l-22.206,38.132H414.409L392.2,442.746Z" transform="translate(-49.706 -117.84)" fill="#535353"/>
        <path id="Trazado_116561" data-name="Trazado 116561" d="M403.8,265.061l-33.429,55.928h66.858Z" transform="translate(-96.081 0)" fill="#f88f05"/>
      </g>
      <path id="Trazado_119154" data-name="Trazado 119154" d="M-26.934-5.432h-4.852v3.059h5.73V0h-8.815V-12.8h8.833v2.382h-5.748v2.7h4.852Zm6.979,2.76a.684.684,0,0,0-.4-.606,6.016,6.016,0,0,0-1.5-.475A6.853,6.853,0,0,1-23.682-4.4a3.062,3.062,0,0,1-1.1-.971,2.319,2.319,0,0,1-.378-1.31,2.628,2.628,0,0,1,1.081-2.158,4.453,4.453,0,0,1,2.83-.848,4.934,4.934,0,0,1,3.023.853,2.666,2.666,0,0,1,1.143,2.241h-2.971q0-1.143-1.2-1.143a1.194,1.194,0,0,0-.782.259.8.8,0,0,0-.316.646.737.737,0,0,0,.387.642,3.654,3.654,0,0,0,1.235.4,10.671,10.671,0,0,1,1.49.378A2.706,2.706,0,0,1-17.1-2.76,2.491,2.491,0,0,1-18.255-.642a5.068,5.068,0,0,1-2.993.817,5.172,5.172,0,0,1-2.18-.439,3.645,3.645,0,0,1-1.494-1.2,2.707,2.707,0,0,1-.536-1.591h2.769a1.145,1.145,0,0,0,.439.962,1.808,1.808,0,0,0,1.081.3,1.422,1.422,0,0,0,.91-.246A.787.787,0,0,0-19.956-2.672Zm7.69-9.2V-9.51H-10.7v2.057h-1.564V-3.1a1.111,1.111,0,0,0,.193.747,1.037,1.037,0,0,0,.765.211,4.345,4.345,0,0,0,.738-.053V-.079a5.466,5.466,0,0,1-1.67.255A3.1,3.1,0,0,1-14.5-.545a2.954,2.954,0,0,1-.729-2.188v-4.72H-16.44V-9.51h1.213v-2.364ZM-4.179,0A3.344,3.344,0,0,1-4.46-.853,2.754,2.754,0,0,1-6.746.176,3.374,3.374,0,0,1-9.031-.637a2.588,2.588,0,0,1-.94-2.043A2.66,2.66,0,0,1-8.829-5.019,5.821,5.821,0,0,1-5.506-5.81h.914v-.5q0-1.316-1.134-1.316A.927.927,0,0,0-6.781-6.587H-9.743A2.655,2.655,0,0,1-8.569-8.825a4.931,4.931,0,0,1,2.993-.86A4.323,4.323,0,0,1-2.7-8.8,3.086,3.086,0,0,1-1.622-6.363v4.21a4.311,4.311,0,0,0,.4,2V0ZM-6.034-1.934a1.652,1.652,0,0,0,.918-.237,1.487,1.487,0,0,0,.523-.536V-4.228h-.861Q-7-4.228-7-2.839a.848.848,0,0,0,.272.655A.986.986,0,0,0-6.034-1.934ZM-5.3-13.5h3.129L-4.61-10.74l-2.417,0ZM2.738-9.51l.1,1.116A3.225,3.225,0,0,1,5.55-9.686,2.713,2.713,0,0,1,7.77-8.8a4.226,4.226,0,0,1,.76,2.672V0H5.559V-6a1.6,1.6,0,0,0-.29-1.059A1.342,1.342,0,0,0,4.214-7.4a1.413,1.413,0,0,0-1.292.686V0H-.04V-9.51ZM9.8-4.825a5.809,5.809,0,0,1,.976-3.56,3.211,3.211,0,0,1,2.725-1.3,2.731,2.731,0,0,1,2.145,1V-13.5h2.971V0H15.948L15.8-1.02a2.8,2.8,0,0,1-2.32,1.2,3.205,3.205,0,0,1-2.689-1.3A5.993,5.993,0,0,1,9.8-4.825Zm2.962.185q0,2.531,1.477,2.531a1.458,1.458,0,0,0,1.406-.826V-6.557A1.419,1.419,0,0,0,14.251-7.4q-1.371,0-1.485,2.215ZM25.651,0a3.344,3.344,0,0,1-.281-.853A2.754,2.754,0,0,1,23.084.176,3.374,3.374,0,0,1,20.8-.637a2.588,2.588,0,0,1-.94-2.043A2.66,2.66,0,0,1,21-5.019a5.821,5.821,0,0,1,3.322-.791h.914v-.5q0-1.316-1.134-1.316a.927.927,0,0,0-1.055,1.042H20.087a2.655,2.655,0,0,1,1.173-2.239,4.931,4.931,0,0,1,2.993-.86,4.323,4.323,0,0,1,2.874.888,3.086,3.086,0,0,1,1.081,2.435v4.21a4.311,4.311,0,0,0,.4,2V0ZM23.8-1.934a1.652,1.652,0,0,0,.918-.237,1.487,1.487,0,0,0,.523-.536V-4.228h-.861q-1.547,0-1.547,1.389a.848.848,0,0,0,.272.655A.986.986,0,0,0,23.8-1.934Zm11.8-4.9-.976-.07a1.752,1.752,0,0,0-1.793.879V0H29.87V-9.51h2.777l.1,1.222a2.294,2.294,0,0,1,2.083-1.4,2.888,2.888,0,0,1,.826.105Z" transform="translate(-9916.667 -8599.409)" fill="#535353"/>
    </g>
    <rect id="Rectángulo_34589" data-name="Rectángulo 34589" width="241" height="159" transform="translate(-9984 -8695)" fill="none"/>
  </g>
</svg>
