<svg xmlns="http://www.w3.org/2000/svg" width="241" height="159" viewBox="0 0 241 159">
  <g id="Grupo_84440" data-name="Grupo 84440" transform="translate(9524 8695)">
    <g id="Grupo_84439" data-name="Grupo 84439" transform="translate(12.565 -2.116)">
      <g id="Grupo_84438" data-name="Grupo 84438">
        <g id="Grupo_81588" data-name="Grupo 81588" transform="translate(-9707.165 -8948.945)">
          <path id="Trazado_116559" data-name="Trazado 116559" d="M225.5,605.868h164l-23.45-38.132h-117.1Z" transform="translate(0 -200.733)" fill="#f88f05"/>
          <path id="Trazado_116560" data-name="Trazado 116560" d="M322.654,442.746l-22.206,38.132H414.409L392.2,442.746Z" transform="translate(-49.706 -117.84)" fill="#f88f05"/>
          <path id="Trazado_116561" data-name="Trazado 116561" d="M403.8,265.061l-33.429,55.928h66.858Z" transform="translate(-96.081 0)" fill="#535353"/>
        </g>
        <path id="Trazado_119153" data-name="Trazado 119153" d="M-31.636-2.391h-4.228L-36.6,0h-3.3L-35.2-12.8h2.9L-27.576,0h-3.313Zm-3.489-2.382h2.751l-1.38-4.438Zm11.7,1.248,1.5-5.985h3.12L-21.907,0H-24.93l-3.1-9.51H-24.9ZM-12.7,0a3.344,3.344,0,0,1-.281-.853A2.754,2.754,0,0,1-15.262.176a3.374,3.374,0,0,1-2.285-.813,2.588,2.588,0,0,1-.94-2.043,2.66,2.66,0,0,1,1.143-2.338,5.821,5.821,0,0,1,3.322-.791h.914v-.5q0-1.316-1.134-1.316A.927.927,0,0,0-15.3-6.587h-2.962a2.655,2.655,0,0,1,1.173-2.239,4.931,4.931,0,0,1,2.993-.86,4.323,4.323,0,0,1,2.874.888,3.086,3.086,0,0,1,1.081,2.435v4.21a4.311,4.311,0,0,0,.4,2V0ZM-14.55-1.934a1.652,1.652,0,0,0,.918-.237,1.487,1.487,0,0,0,.523-.536V-4.228h-.861q-1.547,0-1.547,1.389a.848.848,0,0,0,.272.655A.986.986,0,0,0-14.55-1.934ZM-5.779-9.51l.1,1.116A3.225,3.225,0,0,1-2.966-9.686,2.713,2.713,0,0,1-.747-8.8a4.226,4.226,0,0,1,.76,2.672V0H-2.958V-6a1.6,1.6,0,0,0-.29-1.059A1.342,1.342,0,0,0-4.3-7.4a1.413,1.413,0,0,0-1.292.686V0H-8.556V-9.51ZM5.146-2.285H9.479V0H1.4V-1.652L5.621-7.225H1.586V-9.51h7.8v1.6ZM16.273,0a3.344,3.344,0,0,1-.281-.853A2.754,2.754,0,0,1,13.707.176a3.374,3.374,0,0,1-2.285-.813,2.588,2.588,0,0,1-.94-2.043,2.66,2.66,0,0,1,1.143-2.338,5.821,5.821,0,0,1,3.322-.791h.914v-.5q0-1.316-1.134-1.316a.927.927,0,0,0-1.055,1.042H10.709a2.655,2.655,0,0,1,1.173-2.239,4.931,4.931,0,0,1,2.993-.86A4.323,4.323,0,0,1,17.75-8.8a3.086,3.086,0,0,1,1.081,2.435v4.21a4.311,4.311,0,0,0,.4,2V0ZM14.418-1.934a1.652,1.652,0,0,0,.918-.237,1.487,1.487,0,0,0,.523-.536V-4.228H15q-1.547,0-1.547,1.389a.848.848,0,0,0,.272.655A.986.986,0,0,0,14.418-1.934ZM20.1-4.825a5.809,5.809,0,0,1,.976-3.56,3.211,3.211,0,0,1,2.725-1.3,2.731,2.731,0,0,1,2.145,1V-13.5h2.971V0H26.249L26.1-1.02a2.8,2.8,0,0,1-2.32,1.2,3.205,3.205,0,0,1-2.689-1.3A5.993,5.993,0,0,1,20.1-4.825Zm2.962.185q0,2.531,1.477,2.531a1.458,1.458,0,0,0,1.406-.826V-6.557A1.419,1.419,0,0,0,24.552-7.4q-1.371,0-1.485,2.215Zm7.163-.2a5.613,5.613,0,0,1,.554-2.536,3.96,3.96,0,0,1,1.591-1.709,4.791,4.791,0,0,1,2.435-.6,4.373,4.373,0,0,1,3.366,1.323,5.076,5.076,0,0,1,1.23,3.6v.105a4.925,4.925,0,0,1-1.235,3.529A4.384,4.384,0,0,1,34.818.176a4.434,4.434,0,0,1-3.261-1.217,4.761,4.761,0,0,1-1.327-3.3Zm2.962.185A3.538,3.538,0,0,0,33.6-2.725a1.376,1.376,0,0,0,1.222.615q1.582,0,1.617-2.435v-.3Q36.435-7.4,34.8-7.4q-1.485,0-1.608,2.206Z" transform="translate(-9474.667 -8645.908)" fill="#535353"/>
      </g>
    </g>
    <rect id="Rectángulo_34590" data-name="Rectángulo 34590" width="241" height="159" transform="translate(-9524 -8695)" fill="none"/>
  </g>
</svg>
