<svg xmlns="http://www.w3.org/2000/svg" xmlns:xlink="http://www.w3.org/1999/xlink" width="314" height="314" viewBox="0 0 314 314">
  <defs>
    <clipPath id="clip-path">
      <rect id="Rectángulo_34597" data-name="Rectángulo 34597" width="314" height="314" transform="translate(-9899 -6639)" fill="#fff"/>
    </clipPath>
  </defs>
  <g id="Enmascarar_grupo_145" data-name="Enmascarar grupo 145" transform="translate(9899 6639)" clip-path="url(#clip-path)">
    <g id="Grupo_84452" data-name="Grupo 84452" transform="translate(-34.832 15.164)">
      <g id="Grupo_84449" data-name="Grupo 84449" transform="translate(-9864.169 -6648.164)">
        <circle id="Elipse_4829" data-name="Elipse 4829" cx="121.366" cy="121.366" r="121.366" transform="translate(0 244.977) rotate(-76.304)" fill="#fff5c5"/>
        <g id="Grupo_81600" data-name="Grupo 81600" transform="translate(12.58 0)">
          <path id="Trazado_116590" data-name="Trazado 116590" d="M657.21,284.668a6.993,6.993,0,0,1-6.992-6.992c0-78.2-63.616-141.814-141.812-141.814a140.957,140.957,0,0,0-121.111,67.994,6.992,6.992,0,0,1-11.934-7.29,154.847,154.847,0,0,1,133.045-74.689c85.906,0,155.8,69.89,155.8,155.8A6.993,6.993,0,0,1,657.21,284.668Z" transform="translate(-374.334 -121.877)" fill="#fff5c5"/>
        </g>
        <path id="Trazado_116591" data-name="Trazado 116591" d="M547.427,232.711l12.445-21.557a4.592,4.592,0,0,0-3.977-6.889H531a4.593,4.593,0,0,0-3.979,6.889l12.447,21.557A4.594,4.594,0,0,0,547.427,232.711Z" transform="translate(-247.992 -60.244)" fill="#fff5c5"/>
        <path id="Trazado_116592" data-name="Trazado 116592" d="M522.659,332.826a121.362,121.362,0,0,1-112.7-166.406A121.358,121.358,0,1,0,615.676,289.391,121.086,121.086,0,0,1,522.659,332.826Z" transform="translate(-356.308 -88.555)" fill="#f2e4a0"/>
        <circle id="Elipse_4830" data-name="Elipse 4830" cx="33.837" cy="33.837" r="33.837" transform="translate(33.62 278.972) rotate(-80.726)" fill="#f8e279"/>
        <circle id="Elipse_4831" data-name="Elipse 4831" cx="28.904" cy="28.904" r="28.904" transform="translate(39.287 274.903) rotate(-80.734)" fill="none" stroke="#fff" stroke-miterlimit="10" stroke-width="0.75"/>
      </g>
      <path id="Trazado_119159" data-name="Trazado 119159" d="M10.745.35A8.236,8.236,0,0,1,5.688-1.225a9.6,9.6,0,0,1-3.2-4.428A18.492,18.492,0,0,1,1.4-12.25a18.492,18.492,0,0,1,1.085-6.6,9.6,9.6,0,0,1,3.2-4.428,8.236,8.236,0,0,1,5.058-1.575A8.236,8.236,0,0,1,15.8-23.275a9.6,9.6,0,0,1,3.2,4.428,18.492,18.492,0,0,1,1.085,6.6,18.492,18.492,0,0,1-1.085,6.6,9.6,9.6,0,0,1-3.2,4.428A8.236,8.236,0,0,1,10.745.35Zm0-4.2a3.929,3.929,0,0,0,3.517-2.135A12.381,12.381,0,0,0,15.54-12.25a12.381,12.381,0,0,0-1.278-6.265,3.929,3.929,0,0,0-3.517-2.135,3.929,3.929,0,0,0-3.518,2.135A12.381,12.381,0,0,0,5.95-12.25,12.381,12.381,0,0,0,7.228-5.985,3.929,3.929,0,0,0,10.745-3.85Zm21.1-11.69a6.174,6.174,0,0,1,3.413,1.12,6.936,6.936,0,0,1,2.292,2.748A8.348,8.348,0,0,1,38.36-8.05a8.447,8.447,0,0,1-1.155,4.462A7.547,7.547,0,0,1,33.95-.665,11.14,11.14,0,0,1,29.05.35,10.356,10.356,0,0,1,26.53.035a9.046,9.046,0,0,1-2.2-.84,2.111,2.111,0,0,1-1.3-1.89,2.325,2.325,0,0,1,.595-1.54,1.821,1.821,0,0,1,1.435-.7,2.793,2.793,0,0,1,1.505.525A5.335,5.335,0,0,0,29.89-3.255,4.2,4.2,0,0,0,31.955-3.8a4.208,4.208,0,0,0,1.592-1.575,4.542,4.542,0,0,0,.612-2.363,3.8,3.8,0,0,0-1.138-2.94,3.906,3.906,0,0,0-2.747-1.05,4.782,4.782,0,0,0-1.225.14q-.525.14-.63.175a5.336,5.336,0,0,1-1.5.28,1.516,1.516,0,0,1-1.225-.542,2.026,2.026,0,0,1-.455-1.347,2.093,2.093,0,0,1,.175-.875,3.312,3.312,0,0,1,.6-.84L31.43-20.65H24.5a1.9,1.9,0,0,1-1.4-.56,1.9,1.9,0,0,1-.56-1.4,1.8,1.8,0,0,1,.56-1.347,1.932,1.932,0,0,1,1.4-.543H35.21a2.14,2.14,0,0,1,1.61.577,2.094,2.094,0,0,1,.56,1.523,2.42,2.42,0,0,1-.84,1.68Z" transform="translate(-9815.656 -6383.837)" fill="#fff"/>
      <path id="Trazado_119158" data-name="Trazado 119158" d="M8.408-3.779a1.408,1.408,0,0,0-.532-1.172,6.615,6.615,0,0,0-1.87-.869,17.941,17.941,0,0,1-2.187-.869Q1.055-8.047,1.055-10.42A3.345,3.345,0,0,1,1.743-12.5a4.453,4.453,0,0,1,1.948-1.406,7.582,7.582,0,0,1,2.832-.5,6.632,6.632,0,0,1,2.749.547,4.352,4.352,0,0,1,1.89,1.558A4.068,4.068,0,0,1,11.836-10H8.418a1.719,1.719,0,0,0-.532-1.348,2.075,2.075,0,0,0-1.44-.479A2.339,2.339,0,0,0,5-11.421a1.243,1.243,0,0,0-.532,1.03,1.252,1.252,0,0,0,.586.991,7.389,7.389,0,0,0,2.061.918A12.623,12.623,0,0,1,9.531-7.461a4.07,4.07,0,0,1,2.3,3.662A3.472,3.472,0,0,1,10.43-.869,6.255,6.255,0,0,1,6.572.2a7.653,7.653,0,0,1-3.13-.62,4.719,4.719,0,0,1-2.109-1.7A4.428,4.428,0,0,1,.625-4.609H4.063a2.181,2.181,0,0,0,.591,1.685,2.793,2.793,0,0,0,1.919.542,2.206,2.206,0,0,0,1.343-.366A1.209,1.209,0,0,0,8.408-3.779ZM18.555.2a5.432,5.432,0,0,1-3.936-1.45,5.008,5.008,0,0,1-1.5-3.774V-5.3a6.489,6.489,0,0,1,.6-2.861,4.395,4.395,0,0,1,1.753-1.919,5.292,5.292,0,0,1,2.734-.679A4.574,4.574,0,0,1,21.719-9.38a5.43,5.43,0,0,1,1.289,3.853v1.279H16.465a2.372,2.372,0,0,0,.771,1.4,2.3,2.3,0,0,0,1.543.508,2.958,2.958,0,0,0,2.441-1.094l1.5,1.777A4.2,4.2,0,0,1,20.981-.308,5.891,5.891,0,0,1,18.555.2Zm-.371-8.418q-1.445,0-1.719,1.914h3.32v-.254a1.63,1.63,0,0,0-.4-1.226A1.593,1.593,0,0,0,18.184-8.223Zm5.762,2.861a7.134,7.134,0,0,1,.527-2.832,4.245,4.245,0,0,1,1.514-1.9,3.99,3.99,0,0,1,2.295-.669,3.173,3.173,0,0,1,2.578,1.113l.117-.918h2.988V-.4a4.455,4.455,0,0,1-.649,2.427,4.167,4.167,0,0,1-1.88,1.582,6.91,6.91,0,0,1-2.852.552,5.961,5.961,0,0,1-2.251-.439,4.063,4.063,0,0,1-1.665-1.143L26.045.645a3.018,3.018,0,0,0,2.422,1.084A1.96,1.96,0,0,0,30.654-.518V-.85A3.09,3.09,0,0,1,28.262.2a3.819,3.819,0,0,1-3.125-1.479,6.13,6.13,0,0,1-1.191-3.96Zm3.3.205A3.759,3.759,0,0,0,27.734-3.1a1.541,1.541,0,0,0,1.367.757,1.748,1.748,0,0,0,1.553-.713V-7.5a1.7,1.7,0,0,0-1.533-.723,1.551,1.551,0,0,0-1.377.786A4.287,4.287,0,0,0,27.246-5.156ZM42.129-1.143A3.393,3.393,0,0,1,39.307.2,3.328,3.328,0,0,1,36.675-.815a4.251,4.251,0,0,1-.894-2.905v-6.846h3.291V-3.7a1.183,1.183,0,0,0,1.318,1.357A1.72,1.72,0,0,0,42-3.154v-7.412h3.311V0H42.227ZM50.586,0h-3.3V-10.566h3.3Zm-3.5-13.3A1.482,1.482,0,0,1,47.6-14.46a1.909,1.909,0,0,1,1.318-.452,1.909,1.909,0,0,1,1.318.452,1.482,1.482,0,0,1,.508,1.159,1.482,1.482,0,0,1-.508,1.159,1.909,1.909,0,0,1-1.318.452,1.909,1.909,0,0,1-1.318-.452A1.482,1.482,0,0,1,47.09-13.3Zm8.633,2.734.107,1.24a3.633,3.633,0,0,1,3.018-1.436A2.675,2.675,0,0,1,61.553-9.17a3.516,3.516,0,0,1,3.105-1.592q3.213,0,3.3,3.887V0h-3.3V-6.67a2.014,2.014,0,0,0-.273-1.182,1.164,1.164,0,0,0-1-.371,1.559,1.559,0,0,0-1.455.869l.01.137V0h-3.3V-6.65a2.117,2.117,0,0,0-.264-1.2,1.161,1.161,0,0,0-1.006-.371,1.578,1.578,0,0,0-1.445.869V0H52.637V-10.566ZM73.311,0h-3.3V-10.566h3.3Zm-3.5-13.3a1.482,1.482,0,0,1,.508-1.159,1.909,1.909,0,0,1,1.318-.452,1.909,1.909,0,0,1,1.318.452,1.482,1.482,0,0,1,.508,1.159,1.482,1.482,0,0,1-.508,1.159,1.909,1.909,0,0,1-1.318.452,1.909,1.909,0,0,1-1.318-.452A1.482,1.482,0,0,1,69.814-13.3ZM80.449.2a5.432,5.432,0,0,1-3.936-1.45,5.008,5.008,0,0,1-1.5-3.774V-5.3a6.489,6.489,0,0,1,.6-2.861,4.395,4.395,0,0,1,1.753-1.919,5.292,5.292,0,0,1,2.734-.679A4.574,4.574,0,0,1,83.613-9.38,5.43,5.43,0,0,1,84.9-5.527v1.279H78.359a2.372,2.372,0,0,0,.771,1.4,2.3,2.3,0,0,0,1.543.508,2.958,2.958,0,0,0,2.441-1.094l1.5,1.777A4.2,4.2,0,0,1,82.876-.308,5.891,5.891,0,0,1,80.449.2Zm-.371-8.418q-1.445,0-1.719,1.914h3.32v-.254a1.63,1.63,0,0,0-.4-1.226A1.593,1.593,0,0,0,80.078-8.223Zm9.17-2.344.107,1.24a3.583,3.583,0,0,1,3.018-1.436,3.015,3.015,0,0,1,2.466.986,4.7,4.7,0,0,1,.845,2.969V0h-3.3V-6.67a1.783,1.783,0,0,0-.322-1.177,1.491,1.491,0,0,0-1.172-.376,1.569,1.569,0,0,0-1.436.762V0H86.162V-10.566Zm12.09-2.627v2.627h1.738v2.285h-1.738v4.834a1.234,1.234,0,0,0,.215.83,1.152,1.152,0,0,0,.85.234,4.828,4.828,0,0,0,.82-.059V-.088A6.074,6.074,0,0,1,101.367.2a3.448,3.448,0,0,1-2.51-.8,3.282,3.282,0,0,1-.811-2.432V-8.281H96.7v-2.285h1.348v-2.627Zm2.324,7.813a6.236,6.236,0,0,1,.615-2.817,4.4,4.4,0,0,1,1.768-1.9,5.323,5.323,0,0,1,2.705-.664,4.858,4.858,0,0,1,3.74,1.47,5.64,5.64,0,0,1,1.367,4v.117a5.472,5.472,0,0,1-1.372,3.921A4.871,4.871,0,0,1,108.77.2a4.927,4.927,0,0,1-3.623-1.353,5.29,5.29,0,0,1-1.475-3.667Zm3.291.205a3.932,3.932,0,0,0,.459,2.148,1.529,1.529,0,0,0,1.357.684q1.758,0,1.8-2.705v-.332q0-2.842-1.816-2.842-1.65,0-1.787,2.451ZM10.732,21.795a6.372,6.372,0,0,1-1.108,3.931A3.554,3.554,0,0,1,6.631,27.2a3.046,3.046,0,0,1-2.393-1.064v4.932H.947V16.434H4.023l.1.977a3.046,3.046,0,0,1,2.49-1.172,3.582,3.582,0,0,1,3.037,1.44,6.45,6.45,0,0,1,1.084,3.96ZM7.441,21.59q0-2.812-1.641-2.812a1.549,1.549,0,0,0-1.562.84v4.16a1.6,1.6,0,0,0,1.582.879q1.572,0,1.621-2.715Zm4.326.029a6.236,6.236,0,0,1,.615-2.817,4.4,4.4,0,0,1,1.768-1.9,5.323,5.323,0,0,1,2.705-.664,4.858,4.858,0,0,1,3.74,1.47,5.64,5.64,0,0,1,1.367,4v.117a5.472,5.472,0,0,1-1.372,3.921,4.871,4.871,0,0,1-3.716,1.45,4.927,4.927,0,0,1-3.623-1.353,5.29,5.29,0,0,1-1.475-3.667Zm3.291.205a3.932,3.932,0,0,0,.459,2.148,1.529,1.529,0,0,0,1.357.684q1.758,0,1.8-2.705v-.332q0-2.842-1.816-2.842-1.65,0-1.787,2.451ZM29.8,19.412l-1.084-.078a1.947,1.947,0,0,0-1.992.977V27H23.438V16.434h3.086l.107,1.357a2.548,2.548,0,0,1,2.314-1.553,3.209,3.209,0,0,1,.918.117ZM39.443,27h-3.3V12h3.3Zm7.979,0a3.716,3.716,0,0,1-.312-.947A3.06,3.06,0,0,1,44.57,27.2a3.749,3.749,0,0,1-2.539-.9,2.875,2.875,0,0,1-1.045-2.271,2.955,2.955,0,0,1,1.27-2.6,6.468,6.468,0,0,1,3.691-.879h1.016v-.559q0-1.462-1.26-1.462a1.03,1.03,0,0,0-1.172,1.158H41.24a2.95,2.95,0,0,1,1.3-2.487,5.479,5.479,0,0,1,3.325-.956,4.8,4.8,0,0,1,3.193.986,3.429,3.429,0,0,1,1.2,2.705v4.678a4.79,4.79,0,0,0,.449,2.227V27Zm-2.061-2.148a1.836,1.836,0,0,0,1.021-.264,1.653,1.653,0,0,0,.581-.6V22.3h-.957q-1.719,0-1.719,1.543a.942.942,0,0,0,.3.728A1.1,1.1,0,0,0,45.361,24.852ZM56.65,21.619a6.236,6.236,0,0,1,.615-2.817,4.4,4.4,0,0,1,1.768-1.9,5.323,5.323,0,0,1,2.705-.664,4.858,4.858,0,0,1,3.74,1.47,5.64,5.64,0,0,1,1.367,4v.117a5.472,5.472,0,0,1-1.372,3.921,4.871,4.871,0,0,1-3.716,1.45,4.927,4.927,0,0,1-3.623-1.353,5.29,5.29,0,0,1-1.475-3.667Zm3.291.205a3.932,3.932,0,0,0,.459,2.148,1.529,1.529,0,0,0,1.357.684q1.758,0,1.8-2.705v-.332q0-2.842-1.816-2.842-1.65,0-1.787,2.451Zm14.746-2.412L73.6,19.334a1.947,1.947,0,0,0-1.992.977V27H68.32V16.434h3.086l.107,1.357a2.548,2.548,0,0,1,2.314-1.553,3.209,3.209,0,0,1,.918.117Zm.615,2.227a7.134,7.134,0,0,1,.527-2.832,4.245,4.245,0,0,1,1.514-1.9,3.99,3.99,0,0,1,2.295-.669,3.173,3.173,0,0,1,2.578,1.113l.117-.918h2.988V26.6a4.455,4.455,0,0,1-.649,2.427,4.167,4.167,0,0,1-1.88,1.582,6.91,6.91,0,0,1-2.852.552,5.961,5.961,0,0,1-2.251-.439,4.063,4.063,0,0,1-1.665-1.143L77.4,27.645a3.018,3.018,0,0,0,2.422,1.084,1.96,1.96,0,0,0,2.188-2.246V26.15A3.09,3.09,0,0,1,79.619,27.2a3.819,3.819,0,0,1-3.125-1.479,6.13,6.13,0,0,1-1.191-3.96Zm3.3.205a3.759,3.759,0,0,0,.488,2.056,1.541,1.541,0,0,0,1.367.757,1.748,1.748,0,0,0,1.553-.713V19.5a1.7,1.7,0,0,0-1.533-.723,1.551,1.551,0,0,0-1.377.786A4.287,4.287,0,0,0,78.6,21.844ZM93.145,27a3.716,3.716,0,0,1-.312-.947A3.06,3.06,0,0,1,90.293,27.2a3.749,3.749,0,0,1-2.539-.9,2.875,2.875,0,0,1-1.045-2.271,2.955,2.955,0,0,1,1.27-2.6,6.468,6.468,0,0,1,3.691-.879h1.016v-.559q0-1.462-1.26-1.462a1.03,1.03,0,0,0-1.172,1.158H86.963a2.95,2.95,0,0,1,1.3-2.487,5.479,5.479,0,0,1,3.325-.956,4.8,4.8,0,0,1,3.193.986,3.429,3.429,0,0,1,1.2,2.705v4.678a4.79,4.79,0,0,0,.449,2.227V27Zm-2.061-2.148a1.836,1.836,0,0,0,1.021-.264,1.653,1.653,0,0,0,.581-.6V22.3h-.957q-1.719,0-1.719,1.543a.942.942,0,0,0,.3.728A1.1,1.1,0,0,0,91.084,24.852Zm9.746-8.418.107,1.24a3.583,3.583,0,0,1,3.018-1.436,3.015,3.015,0,0,1,2.466.986,4.7,4.7,0,0,1,.845,2.969V27h-3.3V20.33a1.783,1.783,0,0,0-.322-1.177,1.491,1.491,0,0,0-1.172-.376,1.569,1.569,0,0,0-1.436.762V27H97.744V16.434ZM112.559,27h-3.3V16.434h3.3Zm-3.5-13.3a1.482,1.482,0,0,1,.508-1.159,2.149,2.149,0,0,1,2.637,0,1.577,1.577,0,0,1,0,2.319,2.149,2.149,0,0,1-2.637,0A1.482,1.482,0,0,1,109.063,13.7Zm9.4,10.762h4.814V27h-8.975V25.164l4.688-6.191h-4.482V16.434h8.662v1.777ZM130.83,27a3.716,3.716,0,0,1-.312-.947,3.06,3.06,0,0,1-2.539,1.143,3.749,3.749,0,0,1-2.539-.9,2.875,2.875,0,0,1-1.045-2.271,2.955,2.955,0,0,1,1.27-2.6,6.468,6.468,0,0,1,3.691-.879h1.016v-.559q0-1.462-1.26-1.462a1.03,1.03,0,0,0-1.172,1.158h-3.291a2.95,2.95,0,0,1,1.3-2.487,5.479,5.479,0,0,1,3.325-.956,4.8,4.8,0,0,1,3.193.986,3.429,3.429,0,0,1,1.2,2.705v4.678a4.79,4.79,0,0,0,.449,2.227V27Zm-2.061-2.148a1.836,1.836,0,0,0,1.021-.264,1.653,1.653,0,0,0,.581-.6V22.3h-.957q-1.719,0-1.719,1.543a.942.942,0,0,0,.3.728A1.1,1.1,0,0,0,128.77,24.852Zm11.191-.2a1.464,1.464,0,0,0,1.074-.376,1.379,1.379,0,0,0,.371-1.05h3.086a3.653,3.653,0,0,1-1.245,2.852,4.631,4.631,0,0,1-3.208,1.113,4.689,4.689,0,0,1-3.633-1.445,5.7,5.7,0,0,1-1.328-4v-.137a6.436,6.436,0,0,1,.591-2.827,4.3,4.3,0,0,1,1.7-1.885,5.081,5.081,0,0,1,2.637-.659,4.573,4.573,0,0,1,3.271,1.143,4.053,4.053,0,0,1,1.211,3.1h-3.086a1.807,1.807,0,0,0-.4-1.26,1.382,1.382,0,0,0-1.074-.439q-1.279,0-1.494,1.631a11.507,11.507,0,0,0-.068,1.426,4.52,4.52,0,0,0,.381,2.207A1.319,1.319,0,0,0,139.961,24.656ZM149.355,27h-3.3V16.434h3.3Zm-3.5-13.3a1.482,1.482,0,0,1,.508-1.159,2.149,2.149,0,0,1,2.637,0,1.577,1.577,0,0,1,0,2.319,2.149,2.149,0,0,1-2.637,0A1.482,1.482,0,0,1,145.859,13.7Zm5.107,7.92a6.236,6.236,0,0,1,.615-2.817,4.4,4.4,0,0,1,1.768-1.9,5.323,5.323,0,0,1,2.705-.664,4.858,4.858,0,0,1,3.74,1.47,5.64,5.64,0,0,1,1.367,4v.117a5.472,5.472,0,0,1-1.372,3.921,4.871,4.871,0,0,1-3.716,1.45,4.927,4.927,0,0,1-3.623-1.353,5.29,5.29,0,0,1-1.475-3.667Zm3.291.205a3.932,3.932,0,0,0,.459,2.148,1.529,1.529,0,0,0,1.357.684q1.758,0,1.8-2.705v-.332q0-2.842-1.816-2.842-1.65,0-1.787,2.451ZM156.5,12h3.477l-2.715,3.066-2.686,0Zm9.131,4.434.107,1.24a3.583,3.583,0,0,1,3.018-1.436,3.015,3.015,0,0,1,2.466.986,4.7,4.7,0,0,1,.845,2.969V27h-3.3V20.33a1.783,1.783,0,0,0-.322-1.177,1.491,1.491,0,0,0-1.172-.376,1.569,1.569,0,0,0-1.436.762V27h-3.291V16.434Z" transform="translate(-9788.896 -6528.009)" fill="#12263f"/>
    </g>
  </g>
</svg>
