<svg xmlns="http://www.w3.org/2000/svg" width="241" height="159" viewBox="0 0 241 159">
  <g id="Grupo_84442" data-name="Grupo 84442" transform="translate(10388 8695)">
    <g id="Grupo_84436" data-name="Grupo 84436" transform="translate(2.596 0.884)">
      <g id="Grupo_81586" data-name="Grupo 81586" transform="translate(-10544.165 -8948.945)">
        <path id="Trazado_116559" data-name="Trazado 116559" d="M225.5,604.473h158l-22.592-36.737H248.09Z" transform="translate(0 -204.462)" fill="#535353"/>
        <path id="Trazado_116560" data-name="Trazado 116560" d="M321.842,442.746l-21.394,36.737H410.239l-21.394-36.737Z" transform="translate(-50.63 -120.029)" fill="#f88f05"/>
        <path id="Trazado_116561" data-name="Trazado 116561" d="M402.58,265.061l-32.206,53.882h64.412Z" transform="translate(-97.866)" fill="#f88f05"/>
      </g>
      <path id="Trazado_119155" data-name="Trazado 119155" d="M-26.429,0V-12.8h4.6a6.509,6.509,0,0,1,3.757.905,3.012,3.012,0,0,1,1.288,2.628,3.045,3.045,0,0,1-.457,1.7A2.663,2.663,0,0,1-18.589-6.53a2.7,2.7,0,0,1,1.538.984,2.862,2.862,0,0,1,.536,1.758A3.388,3.388,0,0,1-17.706-.962,5.667,5.667,0,0,1-21.234,0Zm3.085-5.44v3.067h2.021a1.923,1.923,0,0,0,1.283-.382,1.338,1.338,0,0,0,.448-1.077A1.419,1.419,0,0,0-21.182-5.44Zm0-2.021h1.608a2.285,2.285,0,0,0,1.441-.37A1.314,1.314,0,0,0-19.863-8.9a1.379,1.379,0,0,0-.466-1.168,2.493,2.493,0,0,0-1.5-.357h-1.512ZM-9.6,0a3.344,3.344,0,0,1-.281-.853A2.754,2.754,0,0,1-12.164.176a3.374,3.374,0,0,1-2.285-.813,2.588,2.588,0,0,1-.94-2.043,2.66,2.66,0,0,1,1.143-2.338,5.821,5.821,0,0,1,3.322-.791h.914v-.5q0-1.316-1.134-1.316A.927.927,0,0,0-12.2-6.587h-2.962a2.655,2.655,0,0,1,1.173-2.239A4.931,4.931,0,0,1-11-9.686,4.323,4.323,0,0,1-8.121-8.8,3.086,3.086,0,0,1-7.04-6.363v4.21a4.311,4.311,0,0,0,.4,2V0Zm-1.854-1.934a1.652,1.652,0,0,0,.918-.237,1.487,1.487,0,0,0,.523-.536V-4.228h-.861q-1.547,0-1.547,1.389a.848.848,0,0,0,.272.655A.986.986,0,0,0-11.452-1.934Zm.738-11.566h3.129l-2.443,2.76-2.417,0ZM-.422-2.672a.684.684,0,0,0-.4-.606,6.016,6.016,0,0,0-1.5-.475A6.853,6.853,0,0,1-4.148-4.4a3.062,3.062,0,0,1-1.1-.971,2.319,2.319,0,0,1-.378-1.31A2.628,2.628,0,0,1-4.544-8.837a4.453,4.453,0,0,1,2.83-.848,4.934,4.934,0,0,1,3.023.853A2.666,2.666,0,0,1,2.452-6.592H-.519q0-1.143-1.2-1.143a1.194,1.194,0,0,0-.782.259.8.8,0,0,0-.316.646.737.737,0,0,0,.387.642,3.654,3.654,0,0,0,1.235.4,10.671,10.671,0,0,1,1.49.378A2.706,2.706,0,0,1,2.435-2.76,2.491,2.491,0,0,1,1.279-.642,5.068,5.068,0,0,1-1.714.176a5.172,5.172,0,0,1-2.18-.439,3.645,3.645,0,0,1-1.494-1.2A2.707,2.707,0,0,1-5.924-3.05h2.769a1.145,1.145,0,0,0,.439.962,1.808,1.808,0,0,0,1.081.3,1.422,1.422,0,0,0,.91-.246A.787.787,0,0,0-.422-2.672ZM6.943,0H3.973V-9.51H6.943ZM3.8-11.971a1.334,1.334,0,0,1,.457-1.043,1.718,1.718,0,0,1,1.187-.407,1.718,1.718,0,0,1,1.187.407,1.334,1.334,0,0,1,.457,1.043,1.334,1.334,0,0,1-.457,1.043,1.718,1.718,0,0,1-1.187.407,1.718,1.718,0,0,1-1.187-.407A1.334,1.334,0,0,1,3.8-11.971Zm8.991,9.861a1.317,1.317,0,0,0,.967-.338,1.241,1.241,0,0,0,.334-.945h2.777A3.288,3.288,0,0,1,15.746-.826a4.168,4.168,0,0,1-2.887,1,4.22,4.22,0,0,1-3.27-1.3,5.125,5.125,0,0,1-1.2-3.6v-.123A5.792,5.792,0,0,1,8.925-7.4a3.872,3.872,0,0,1,1.534-1.7,4.573,4.573,0,0,1,2.373-.593,4.116,4.116,0,0,1,2.944,1.028,3.647,3.647,0,0,1,1.09,2.786H14.089A1.626,1.626,0,0,0,13.729-7a1.244,1.244,0,0,0-.967-.4q-1.151,0-1.345,1.468a10.357,10.357,0,0,0-.062,1.283A4.068,4.068,0,0,0,11.7-2.663,1.187,1.187,0,0,0,12.788-2.109Zm4.957-2.733A5.613,5.613,0,0,1,18.3-7.378,3.96,3.96,0,0,1,19.89-9.088a4.791,4.791,0,0,1,2.435-.6A4.373,4.373,0,0,1,25.69-8.363a5.076,5.076,0,0,1,1.23,3.6v.105a4.925,4.925,0,0,1-1.235,3.529A4.384,4.384,0,0,1,22.342.176a4.434,4.434,0,0,1-3.261-1.217,4.761,4.761,0,0,1-1.327-3.3Zm2.962.185a3.538,3.538,0,0,0,.413,1.934,1.376,1.376,0,0,0,1.222.615q1.582,0,1.617-2.435v-.3q0-2.558-1.635-2.558-1.485,0-1.608,2.206Z" transform="translate(-10352.167 -8562.017)" fill="#535353"/>
    </g>
    <rect id="Rectángulo_34588" data-name="Rectángulo 34588" width="241" height="159" transform="translate(-10388 -8695)" fill="none"/>
  </g>
</svg>
