<svg xmlns="http://www.w3.org/2000/svg" xmlns:xlink="http://www.w3.org/1999/xlink" width="314" height="314" viewBox="0 0 314 314">
  <defs>
    <clipPath id="clip-path">
      <rect id="Rectángulo_34596" data-name="Rectángulo 34596" width="314" height="314" transform="translate(-10381 -6540)" fill="#fff"/>
    </clipPath>
  </defs>
  <g id="Enmascarar_grupo_146" data-name="Enmascarar grupo 146" transform="translate(10381 6540)" clip-path="url(#clip-path)">
    <g id="Grupo_84451" data-name="Grupo 84451" transform="translate(-8.332 10.193)">
      <g id="Grupo_84448" data-name="Grupo 84448" transform="translate(-10376.669 -6547.193)">
        <circle id="Elipse_4826" data-name="Elipse 4826" cx="121.366" cy="121.366" r="121.366" transform="translate(0 57.472) rotate(-13.696)" fill="#ffd817"/>
        <g id="Grupo_81596" data-name="Grupo 81596" transform="translate(12.081 135.893)">
          <path id="Trazado_116579" data-name="Trazado 116579" d="M337.213,420.164a154.844,154.844,0,0,1-133.045-74.687,6.993,6.993,0,0,1,11.936-7.289,140.955,140.955,0,0,0,121.109,67.992c78.2,0,141.814-63.615,141.814-141.812a6.992,6.992,0,1,1,13.985,0C493.012,350.275,423.121,420.164,337.213,420.164Z" transform="translate(-203.142 -257.375)" fill="#ffd817"/>
        </g>
        <path id="Trazado_116580" data-name="Trazado 116580" d="M376.236,252.822l12.445,21.557a4.593,4.593,0,0,1-3.979,6.889H359.813a4.593,4.593,0,0,1-3.979-6.889l12.445-21.557A4.6,4.6,0,0,1,376.236,252.822Z" transform="translate(-77.299 -126.605)" fill="#ffd817"/>
        <path id="Trazado_116581" data-name="Trazado 116581" d="M351.741,385.352a121.36,121.36,0,0,1-112.7-166.4A121.358,121.358,0,1,0,444.758,341.919,121.084,121.084,0,0,1,351.741,385.352Z" transform="translate(-185.41 -150.229)" fill="#ffe565"/>
        <circle id="Elipse_4827" data-name="Elipse 4827" cx="33.837" cy="33.837" r="33.837" transform="translate(32.328 75.424) rotate(-76.829)" fill="#eac409"/>
        <circle id="Elipse_4828" data-name="Elipse 4828" cx="28.904" cy="28.904" r="28.904" transform="translate(35.154 34.704) rotate(-22.741)" fill="none" stroke="#fff" stroke-miterlimit="10" stroke-width="0.75"/>
        <path id="Trazado_119160" data-name="Trazado 119160" d="M10.745.35A8.236,8.236,0,0,1,5.688-1.225a9.6,9.6,0,0,1-3.2-4.428A18.492,18.492,0,0,1,1.4-12.25a18.492,18.492,0,0,1,1.085-6.6,9.6,9.6,0,0,1,3.2-4.428,8.236,8.236,0,0,1,5.058-1.575A8.236,8.236,0,0,1,15.8-23.275a9.6,9.6,0,0,1,3.2,4.428,18.492,18.492,0,0,1,1.085,6.6,18.492,18.492,0,0,1-1.085,6.6,9.6,9.6,0,0,1-3.2,4.428A8.236,8.236,0,0,1,10.745.35Zm0-4.2a3.929,3.929,0,0,0,3.517-2.135A12.381,12.381,0,0,0,15.54-12.25a12.381,12.381,0,0,0-1.278-6.265,3.929,3.929,0,0,0-3.517-2.135,3.929,3.929,0,0,0-3.518,2.135A12.381,12.381,0,0,0,5.95-12.25,12.381,12.381,0,0,0,7.228-5.985,3.929,3.929,0,0,0,10.745-3.85Zm26.5,0a1.9,1.9,0,0,1,1.4.56,1.9,1.9,0,0,1,.56,1.4,1.8,1.8,0,0,1-.56,1.348A1.932,1.932,0,0,1,37.24,0H25.34a1.872,1.872,0,0,1-1.435-.56A2.014,2.014,0,0,1,23.38-2a2.172,2.172,0,0,1,.63-1.54l7.63-8.155a13.534,13.534,0,0,0,2.048-2.818,5.629,5.629,0,0,0,.752-2.608,3.791,3.791,0,0,0-1.12-2.73A3.506,3.506,0,0,0,30.73-21a3.7,3.7,0,0,0-2.048.682,7.576,7.576,0,0,0-1.872,1.8,1.931,1.931,0,0,1-1.61.84,2.054,2.054,0,0,1-1.418-.6,1.776,1.776,0,0,1-.647-1.33,1.964,1.964,0,0,1,.35-1.068,7.917,7.917,0,0,1,1.05-1.243,10.553,10.553,0,0,1,3.08-2.135,8.033,8.033,0,0,1,3.36-.805,8.17,8.17,0,0,1,4.06.98,6.806,6.806,0,0,1,2.695,2.695,7.915,7.915,0,0,1,.945,3.885A9.732,9.732,0,0,1,37.537-12.9a18.692,18.692,0,0,1-3.062,4.323L30.03-3.85Z" transform="translate(48.676 60.432)" fill="#fff"/>
      </g>
      <path id="Trazado_119157" data-name="Trazado 119157" d="M4.727,0H1.309V-14.219H4.727Zm5.342-10.566.107,1.24a3.633,3.633,0,0,1,3.018-1.436A2.675,2.675,0,0,1,15.9-9.17,3.517,3.517,0,0,1,19-10.762q3.213,0,3.3,3.887V0H19V-6.67a2.014,2.014,0,0,0-.273-1.182,1.164,1.164,0,0,0-1-.371,1.559,1.559,0,0,0-1.455.869l.01.137V0h-3.3V-6.65a2.117,2.117,0,0,0-.264-1.2,1.161,1.161,0,0,0-1.006-.371,1.578,1.578,0,0,0-1.445.869V0H6.982V-10.566ZM33.994-5.205a6.372,6.372,0,0,1-1.108,3.931A3.554,3.554,0,0,1,29.893.2,3.046,3.046,0,0,1,27.5-.869V4.063H24.209V-10.566h3.076l.1.977a3.046,3.046,0,0,1,2.49-1.172,3.582,3.582,0,0,1,3.037,1.44,6.45,6.45,0,0,1,1.084,3.96ZM30.7-5.41q0-2.812-1.641-2.812a1.549,1.549,0,0,0-1.562.84v4.16a1.6,1.6,0,0,0,1.582.879q1.572,0,1.621-2.715ZM38.916,0h-3.3V-15h3.3Zm7.139.2a5.432,5.432,0,0,1-3.936-1.45,5.008,5.008,0,0,1-1.5-3.774V-5.3a6.489,6.489,0,0,1,.6-2.861,4.395,4.395,0,0,1,1.753-1.919,5.292,5.292,0,0,1,2.734-.679A4.574,4.574,0,0,1,49.219-9.38a5.43,5.43,0,0,1,1.289,3.853v1.279H43.965a2.372,2.372,0,0,0,.771,1.4,2.3,2.3,0,0,0,1.543.508,2.958,2.958,0,0,0,2.441-1.094l1.5,1.777A4.2,4.2,0,0,1,48.481-.308,5.891,5.891,0,0,1,46.055.2Zm-.371-8.418q-1.445,0-1.719,1.914h3.32v-.254a1.63,1.63,0,0,0-.4-1.226A1.593,1.593,0,0,0,45.684-8.223Zm9.258-2.344.107,1.24a3.633,3.633,0,0,1,3.018-1.436A2.675,2.675,0,0,1,60.771-9.17a3.516,3.516,0,0,1,3.105-1.592q3.213,0,3.3,3.887V0h-3.3V-6.67A2.014,2.014,0,0,0,63.6-7.852a1.164,1.164,0,0,0-1-.371,1.559,1.559,0,0,0-1.455.869l.01.137V0h-3.3V-6.65a2.117,2.117,0,0,0-.264-1.2,1.161,1.161,0,0,0-1.006-.371,1.578,1.578,0,0,0-1.445.869V0H51.855V-10.566ZM74.17.2a5.432,5.432,0,0,1-3.936-1.45,5.008,5.008,0,0,1-1.5-3.774V-5.3a6.489,6.489,0,0,1,.6-2.861,4.395,4.395,0,0,1,1.753-1.919,5.292,5.292,0,0,1,2.734-.679A4.574,4.574,0,0,1,77.334-9.38a5.43,5.43,0,0,1,1.289,3.853v1.279H72.08a2.372,2.372,0,0,0,.771,1.4,2.3,2.3,0,0,0,1.543.508,2.958,2.958,0,0,0,2.441-1.094l1.5,1.777A4.2,4.2,0,0,1,76.6-.308,5.891,5.891,0,0,1,74.17.2ZM73.8-8.223q-1.445,0-1.719,1.914H75.4v-.254A1.63,1.63,0,0,0,75-7.788,1.593,1.593,0,0,0,73.8-8.223Zm9.17-2.344.107,1.24a3.583,3.583,0,0,1,3.018-1.436,3.015,3.015,0,0,1,2.466.986A4.7,4.7,0,0,1,89.4-6.807V0H86.1V-6.67a1.783,1.783,0,0,0-.322-1.177,1.491,1.491,0,0,0-1.172-.376,1.569,1.569,0,0,0-1.436.762V0H79.883V-10.566Zm12.09-2.627v2.627H96.8v2.285H95.059v4.834a1.234,1.234,0,0,0,.215.83,1.152,1.152,0,0,0,.85.234,4.828,4.828,0,0,0,.82-.059V-.088A6.074,6.074,0,0,1,95.088.2a3.448,3.448,0,0,1-2.51-.8,3.282,3.282,0,0,1-.811-2.432V-8.281H90.42v-2.285h1.348v-2.627ZM104.043,0a3.716,3.716,0,0,1-.312-.947A3.06,3.06,0,0,1,101.191.2a3.749,3.749,0,0,1-2.539-.9,2.875,2.875,0,0,1-1.045-2.271,2.955,2.955,0,0,1,1.27-2.6,6.468,6.468,0,0,1,3.691-.879h1.016v-.559q0-1.462-1.26-1.462a1.03,1.03,0,0,0-1.172,1.158H97.861a2.95,2.95,0,0,1,1.3-2.487,5.479,5.479,0,0,1,3.325-.956,4.8,4.8,0,0,1,3.193.986,3.429,3.429,0,0,1,1.2,2.705v4.678a4.79,4.79,0,0,0,.449,2.227V0Zm-2.061-2.148A1.836,1.836,0,0,0,103-2.412a1.653,1.653,0,0,0,.581-.6V-4.7h-.957q-1.719,0-1.719,1.543a.942.942,0,0,0,.3.728A1.1,1.1,0,0,0,101.982-2.148Zm11.191-.2a1.464,1.464,0,0,0,1.074-.376,1.379,1.379,0,0,0,.371-1.05h3.086A3.653,3.653,0,0,1,116.46-.918,4.631,4.631,0,0,1,113.252.2a4.689,4.689,0,0,1-3.633-1.445,5.7,5.7,0,0,1-1.328-4v-.137a6.436,6.436,0,0,1,.591-2.827,4.3,4.3,0,0,1,1.7-1.885,5.081,5.081,0,0,1,2.637-.659,4.573,4.573,0,0,1,3.271,1.143,4.053,4.053,0,0,1,1.211,3.1h-3.086a1.806,1.806,0,0,0-.4-1.26,1.382,1.382,0,0,0-1.074-.439q-1.279,0-1.494,1.631a11.508,11.508,0,0,0-.068,1.426,4.52,4.52,0,0,0,.381,2.207A1.319,1.319,0,0,0,113.174-2.344ZM122.568,0h-3.3V-10.566h3.3Zm-3.5-13.3a1.482,1.482,0,0,1,.508-1.159,1.909,1.909,0,0,1,1.318-.452,1.909,1.909,0,0,1,1.318.452,1.482,1.482,0,0,1,.508,1.159,1.482,1.482,0,0,1-.508,1.159,1.909,1.909,0,0,1-1.318.452,1.909,1.909,0,0,1-1.318-.452A1.482,1.482,0,0,1,119.072-13.3Zm5.107,7.92a6.236,6.236,0,0,1,.615-2.817,4.4,4.4,0,0,1,1.768-1.9,5.323,5.323,0,0,1,2.705-.664,4.858,4.858,0,0,1,3.74,1.47,5.64,5.64,0,0,1,1.367,4v.117A5.472,5.472,0,0,1,133-1.255,4.871,4.871,0,0,1,129.287.2a4.927,4.927,0,0,1-3.623-1.353,5.29,5.29,0,0,1-1.475-3.667Zm3.291.205a3.932,3.932,0,0,0,.459,2.148,1.529,1.529,0,0,0,1.357.684q1.758,0,1.8-2.705v-.332q0-2.842-1.816-2.842-1.65,0-1.787,2.451ZM129.717-15h3.477l-2.715,3.066-2.686,0Zm9.131,4.434.107,1.24a3.583,3.583,0,0,1,3.018-1.436,3.015,3.015,0,0,1,2.466.986,4.7,4.7,0,0,1,.845,2.969V0h-3.3V-6.67a1.783,1.783,0,0,0-.322-1.177,1.491,1.491,0,0,0-1.172-.376,1.569,1.569,0,0,0-1.436.762V0h-3.291V-10.566ZM5.146,22.391,6.9,16.434H10.43L6.123,28.768l-.186.449A3.272,3.272,0,0,1,2.7,31.268a5.158,5.158,0,0,1-1.357-.195V28.729h.43a2.251,2.251,0,0,0,1.06-.2,1.216,1.216,0,0,0,.542-.718l.264-.7L-.039,16.434H3.477Zm16.23,4.8a5.432,5.432,0,0,1-3.936-1.45,5.008,5.008,0,0,1-1.5-3.774V21.7a6.489,6.489,0,0,1,.6-2.861,4.395,4.395,0,0,1,1.753-1.919,5.292,5.292,0,0,1,2.734-.679,4.574,4.574,0,0,1,3.516,1.382,5.43,5.43,0,0,1,1.289,3.853v1.279H19.287a2.372,2.372,0,0,0,.771,1.4,2.3,2.3,0,0,0,1.543.508,2.958,2.958,0,0,0,2.441-1.094l1.5,1.777A4.2,4.2,0,0,1,23.8,26.692,5.891,5.891,0,0,1,21.377,27.2Zm-.371-8.418q-1.445,0-1.719,1.914h3.32v-.254a1.63,1.63,0,0,0-.4-1.226A1.593,1.593,0,0,0,21.006,18.777Zm9.688-2.344V27.361a3.836,3.836,0,0,1-1.074,2.891,4.127,4.127,0,0,1-2.969,1.016A7.009,7.009,0,0,1,25.1,31.1v-2.49a6.3,6.3,0,0,0,.928.088,1.2,1.2,0,0,0,1.367-1.357V16.434ZM27.148,13.7a1.482,1.482,0,0,1,.508-1.159,2.149,2.149,0,0,1,2.637,0,1.577,1.577,0,0,1,0,2.319,2.149,2.149,0,0,1-2.637,0A1.482,1.482,0,0,1,27.148,13.7ZM37.666,27.2a5.432,5.432,0,0,1-3.936-1.45,5.008,5.008,0,0,1-1.5-3.774V21.7a6.489,6.489,0,0,1,.6-2.861,4.395,4.395,0,0,1,1.753-1.919,5.292,5.292,0,0,1,2.734-.679A4.574,4.574,0,0,1,40.83,17.62a5.43,5.43,0,0,1,1.289,3.853v1.279H35.576a2.372,2.372,0,0,0,.771,1.4,2.3,2.3,0,0,0,1.543.508,2.958,2.958,0,0,0,2.441-1.094l1.5,1.777a4.2,4.2,0,0,1-1.743,1.353A5.891,5.891,0,0,1,37.666,27.2Zm-.371-8.418q-1.445,0-1.719,1.914H38.9v-.254a1.63,1.63,0,0,0-.4-1.226A1.593,1.593,0,0,0,37.295,18.777ZM47.91,24.656a1.464,1.464,0,0,0,1.074-.376,1.379,1.379,0,0,0,.371-1.05h3.086A3.653,3.653,0,0,1,51.2,26.082,4.631,4.631,0,0,1,47.988,27.2a4.689,4.689,0,0,1-3.633-1.445,5.7,5.7,0,0,1-1.328-4v-.137a6.436,6.436,0,0,1,.591-2.827,4.3,4.3,0,0,1,1.7-1.885,5.081,5.081,0,0,1,2.637-.659,4.573,4.573,0,0,1,3.271,1.143,4.053,4.053,0,0,1,1.211,3.1H49.355a1.807,1.807,0,0,0-.4-1.26,1.382,1.382,0,0,0-1.074-.439q-1.279,0-1.494,1.631a11.507,11.507,0,0,0-.068,1.426,4.52,4.52,0,0,0,.381,2.207A1.319,1.319,0,0,0,47.91,24.656Zm12.217,1.2A3.393,3.393,0,0,1,57.3,27.2a3.328,3.328,0,0,1-2.632-1.011,4.251,4.251,0,0,1-.894-2.905V16.434H57.07V23.3a1.183,1.183,0,0,0,1.318,1.357A1.72,1.72,0,0,0,60,23.846V16.434h3.311V27H60.225Zm9.453-1.2a1.464,1.464,0,0,0,1.074-.376,1.379,1.379,0,0,0,.371-1.05h3.086a3.653,3.653,0,0,1-1.245,2.852A4.631,4.631,0,0,1,69.658,27.2a4.689,4.689,0,0,1-3.633-1.445,5.7,5.7,0,0,1-1.328-4v-.137a6.436,6.436,0,0,1,.591-2.827,4.3,4.3,0,0,1,1.7-1.885,5.081,5.081,0,0,1,2.637-.659A4.573,4.573,0,0,1,72.9,17.381a4.053,4.053,0,0,1,1.211,3.1H71.025a1.806,1.806,0,0,0-.4-1.26,1.382,1.382,0,0,0-1.074-.439q-1.279,0-1.494,1.631a11.508,11.508,0,0,0-.068,1.426,4.52,4.52,0,0,0,.381,2.207A1.319,1.319,0,0,0,69.58,24.656ZM78.975,27h-3.3V16.434h3.3Zm-3.5-13.3a1.482,1.482,0,0,1,.508-1.159,2.149,2.149,0,0,1,2.637,0,1.577,1.577,0,0,1,0,2.319,2.149,2.149,0,0,1-2.637,0A1.482,1.482,0,0,1,75.479,13.7Zm5.107,7.92A6.236,6.236,0,0,1,81.2,18.8a4.4,4.4,0,0,1,1.768-1.9,5.323,5.323,0,0,1,2.705-.664,4.858,4.858,0,0,1,3.74,1.47,5.64,5.64,0,0,1,1.367,4v.117a5.472,5.472,0,0,1-1.372,3.921,4.871,4.871,0,0,1-3.716,1.45,4.927,4.927,0,0,1-3.623-1.353A5.29,5.29,0,0,1,80.6,22.176Zm3.291.205a3.932,3.932,0,0,0,.459,2.148,1.529,1.529,0,0,0,1.357.684q1.758,0,1.8-2.705v-.332q0-2.842-1.816-2.842-1.65,0-1.787,2.451ZM86.123,12H89.6l-2.715,3.066-2.686,0Zm9.131,4.434.107,1.24a3.583,3.583,0,0,1,3.018-1.436,3.015,3.015,0,0,1,2.466.986,4.7,4.7,0,0,1,.845,2.969V27h-3.3V20.33a1.783,1.783,0,0,0-.322-1.177,1.491,1.491,0,0,0-1.172-.376,1.569,1.569,0,0,0-1.436.762V27H92.168V16.434ZM.508,48.639a6.455,6.455,0,0,1,1.084-3.955,3.568,3.568,0,0,1,3.027-1.445A3.035,3.035,0,0,1,7,44.352V39h3.3V54H7.344l-.166-1.133A3.116,3.116,0,0,1,4.6,54.2,3.562,3.562,0,0,1,1.611,52.75,6.659,6.659,0,0,1,.508,48.639Zm3.291.205q0,2.813,1.641,2.813A1.62,1.62,0,0,0,7,50.738V46.715a1.576,1.576,0,0,0-1.543-.937q-1.523,0-1.65,2.461ZM17.285,54.2a5.432,5.432,0,0,1-3.936-1.45,5.008,5.008,0,0,1-1.5-3.774V48.7a6.489,6.489,0,0,1,.6-2.861A4.395,4.395,0,0,1,14.2,43.917a5.292,5.292,0,0,1,2.734-.679,4.574,4.574,0,0,1,3.516,1.382,5.43,5.43,0,0,1,1.289,3.853v1.279H15.2a2.372,2.372,0,0,0,.771,1.4,2.3,2.3,0,0,0,1.543.508,2.958,2.958,0,0,0,2.441-1.094l1.5,1.777a4.2,4.2,0,0,1-1.743,1.353A5.891,5.891,0,0,1,17.285,54.2Zm-.371-8.418q-1.445,0-1.719,1.914h3.32v-.254a1.63,1.63,0,0,0-.4-1.226A1.593,1.593,0,0,0,16.914,45.777ZM26.533,54h-3.3V39h3.3Zm10.586-4.824V54H33.691V39.781h5.674a6.608,6.608,0,0,1,2.886.6,4.526,4.526,0,0,1,1.943,1.709,4.667,4.667,0,0,1,.688,2.515,4.114,4.114,0,0,1-1.489,3.325,6.179,6.179,0,0,1-4.087,1.245Zm0-2.646h2.246a2.118,2.118,0,0,0,1.519-.5,1.85,1.85,0,0,0,.522-1.406,2.287,2.287,0,0,0-.537-1.592,1.9,1.9,0,0,0-1.465-.605H37.119Zm18.408,1.436H50.137v3.4H56.5V54H46.709V39.781h9.814v2.646H50.137v3h5.391Zm9.707,2.256a1.408,1.408,0,0,0-.532-1.172,6.615,6.615,0,0,0-1.87-.869,17.942,17.942,0,0,1-2.187-.869q-2.764-1.357-2.764-3.73a3.345,3.345,0,0,1,.688-2.085,4.453,4.453,0,0,1,1.948-1.406,7.582,7.582,0,0,1,2.832-.5,6.632,6.632,0,0,1,2.749.547,4.352,4.352,0,0,1,1.89,1.558A4.068,4.068,0,0,1,68.662,44H65.244a1.719,1.719,0,0,0-.532-1.348,2.075,2.075,0,0,0-1.44-.479,2.339,2.339,0,0,0-1.45.405,1.193,1.193,0,0,0,.054,2.021,7.389,7.389,0,0,0,2.061.918,12.623,12.623,0,0,1,2.422,1.021,4.07,4.07,0,0,1,2.3,3.662,3.472,3.472,0,0,1-1.406,2.93A6.255,6.255,0,0,1,63.4,54.2a7.653,7.653,0,0,1-3.13-.62,4.719,4.719,0,0,1-2.109-1.7,4.428,4.428,0,0,1-.708-2.485h3.438a2.181,2.181,0,0,0,.591,1.685,2.793,2.793,0,0,0,1.919.542,2.206,2.206,0,0,0,1.343-.366A1.209,1.209,0,0,0,65.234,50.221Zm10.7-.088L78.77,39.781H82.6L77.813,54h-3.75L69.316,39.781h3.8Z" transform="translate(-10300.638 -6435.009)" fill="#12263f"/>
    </g>
  </g>
</svg>
