<svg xmlns="http://www.w3.org/2000/svg" xmlns:xlink="http://www.w3.org/1999/xlink" width="314" height="314" viewBox="0 0 314 314">
  <defs>
    <clipPath id="clip-path">
      <rect id="Rectángulo_34598" data-name="Rectángulo 34598" width="314" height="314" transform="translate(-9372 -6558)" fill="#fff"/>
    </clipPath>
  </defs>
  <g id="Enmascarar_grupo_144" data-name="Enmascarar grupo 144" transform="translate(9372 6558)" clip-path="url(#clip-path)">
    <g id="Grupo_84453" data-name="Grupo 84453" transform="translate(-0.057 0.18)">
      <circle id="Elipse_4832" data-name="Elipse 4832" cx="121.366" cy="121.366" r="121.366" transform="translate(-9399.943 -6400.542) rotate(-45)" fill="#535353"/>
      <g id="Grupo_81604" data-name="Grupo 81604" transform="translate(-9362.876 -6411.301)">
        <path id="Trazado_116597" data-name="Trazado 116597" d="M679.153,420.164a154.843,154.843,0,0,1-133.044-74.687,6.991,6.991,0,0,1,11.932-7.289,140.962,140.962,0,0,0,121.111,67.992c78.2,0,141.814-63.615,141.814-141.812a6.992,6.992,0,1,1,13.985,0C834.951,350.275,765.061,420.164,679.153,420.164Z" transform="translate(-545.082 -257.375)" fill="#535353"/>
      </g>
      <g id="Grupo_81605" data-name="Grupo 81605" transform="translate(-9097.044 -6423.272)">
        <path id="Trazado_116598" data-name="Trazado 116598" d="M718.176,252.822l12.445,21.557a4.593,4.593,0,0,1-3.977,6.889H701.753a4.593,4.593,0,0,1-3.979-6.889l12.445-21.557A4.6,4.6,0,0,1,718.176,252.822Z" transform="translate(-697.152 -250.527)" fill="#535353"/>
      </g>
      <path id="Trazado_116599" data-name="Trazado 116599" d="M693.68,385.352a121.357,121.357,0,0,1-112.7-166.4A121.358,121.358,0,1,0,786.7,341.919,121.091,121.091,0,0,1,693.68,385.352Z" transform="translate(-9902.308 -6697.422)" fill="#383333"/>
      <circle id="Elipse_4833" data-name="Elipse 4833" cx="33.837" cy="33.837" r="33.837" transform="translate(-9347.973 -6488.59) rotate(-55.129)" fill="#292929"/>
      <circle id="Elipse_4834" data-name="Elipse 4834" cx="28.904" cy="28.904" r="28.904" transform="matrix(0.876, -0.483, 0.483, 0.876, -9340.131, -6508.368)" fill="none" stroke="#fff" stroke-miterlimit="10" stroke-width="0.75"/>
      <path id="Trazado_119162" data-name="Trazado 119162" d="M10.745.35A8.236,8.236,0,0,1,5.688-1.225a9.6,9.6,0,0,1-3.2-4.428A18.492,18.492,0,0,1,1.4-12.25a18.492,18.492,0,0,1,1.085-6.6,9.6,9.6,0,0,1,3.2-4.428,8.236,8.236,0,0,1,5.058-1.575A8.236,8.236,0,0,1,15.8-23.275a9.6,9.6,0,0,1,3.2,4.428,18.492,18.492,0,0,1,1.085,6.6,18.492,18.492,0,0,1-1.085,6.6,9.6,9.6,0,0,1-3.2,4.428A8.236,8.236,0,0,1,10.745.35Zm0-4.2a3.929,3.929,0,0,0,3.517-2.135A12.381,12.381,0,0,0,15.54-12.25a12.381,12.381,0,0,0-1.278-6.265,3.929,3.929,0,0,0-3.517-2.135,3.929,3.929,0,0,0-3.518,2.135A12.381,12.381,0,0,0,5.95-12.25,12.381,12.381,0,0,0,7.228-5.985,3.929,3.929,0,0,0,10.745-3.85ZM41.51-10.5a1.9,1.9,0,0,1,1.4.56,1.9,1.9,0,0,1,.56,1.4,1.8,1.8,0,0,1-.56,1.348,1.932,1.932,0,0,1-1.4.542H40.04v4.515a2.067,2.067,0,0,1-.612,1.523A2.067,2.067,0,0,1,37.9,0a1.968,1.968,0,0,1-1.47-.613,2.1,2.1,0,0,1-.6-1.523V-6.65h-9.1a2.085,2.085,0,0,1-1.435-.612,1.911,1.911,0,0,1-.665-1.452,2.134,2.134,0,0,1,.525-1.4L36.225-23.66a2.124,2.124,0,0,1,1.75-.84,1.968,1.968,0,0,1,1.47.613,2.1,2.1,0,0,1,.6,1.522V-10.5Zm-11.34,0h5.67v-7Z" transform="translate(-9326.176 -6486.761)" fill="#fff"/>
      <path id="Trazado_119163" data-name="Trazado 119163" d="M5.576-14.219,8.75-4.326l3.164-9.893h4.512V0H12.988V-3.32l.332-6.8L9.883,0H7.617L4.17-10.127,4.5-3.32V0H1.074V-14.219ZM23.564.2a5.432,5.432,0,0,1-3.936-1.45,5.008,5.008,0,0,1-1.5-3.774V-5.3a6.489,6.489,0,0,1,.6-2.861,4.395,4.395,0,0,1,1.753-1.919,5.292,5.292,0,0,1,2.734-.679A4.574,4.574,0,0,1,26.729-9.38a5.43,5.43,0,0,1,1.289,3.853v1.279H21.475a2.372,2.372,0,0,0,.771,1.4,2.3,2.3,0,0,0,1.543.508A2.958,2.958,0,0,0,26.23-3.437l1.5,1.777A4.2,4.2,0,0,1,25.991-.308,5.891,5.891,0,0,1,23.564.2Zm-.371-8.418q-1.445,0-1.719,1.914h3.32v-.254a1.63,1.63,0,0,0-.4-1.226A1.593,1.593,0,0,0,23.193-8.223Zm9.688-2.344V.361a3.836,3.836,0,0,1-1.074,2.891,4.127,4.127,0,0,1-2.969,1.016A7.009,7.009,0,0,1,27.285,4.1V1.611a6.3,6.3,0,0,0,.928.088A1.2,1.2,0,0,0,29.58.342V-10.566ZM29.336-13.3a1.482,1.482,0,0,1,.508-1.159,1.909,1.909,0,0,1,1.318-.452,1.909,1.909,0,0,1,1.318.452,1.482,1.482,0,0,1,.508,1.159,1.482,1.482,0,0,1-.508,1.159,1.909,1.909,0,0,1-1.318.452,1.909,1.909,0,0,1-1.318-.452A1.482,1.482,0,0,1,29.336-13.3Zm4.99,7.92A6.236,6.236,0,0,1,34.941-8.2a4.4,4.4,0,0,1,1.768-1.9,5.323,5.323,0,0,1,2.705-.664,4.858,4.858,0,0,1,3.74,1.47,5.64,5.64,0,0,1,1.367,4v.117a5.472,5.472,0,0,1-1.372,3.921A4.871,4.871,0,0,1,39.434.2a4.927,4.927,0,0,1-3.623-1.353,5.29,5.29,0,0,1-1.475-3.667Zm3.291.205a3.932,3.932,0,0,0,.459,2.148,1.529,1.529,0,0,0,1.357.684q1.758,0,1.8-2.705v-.332q0-2.842-1.816-2.842-1.65,0-1.787,2.451ZM52.363-7.588l-1.084-.078a1.947,1.947,0,0,0-1.992.977V0H46V-10.566h3.086l.107,1.357A2.548,2.548,0,0,1,51.5-10.762a3.209,3.209,0,0,1,.918.117ZM59.209,0A3.716,3.716,0,0,1,58.9-.947,3.06,3.06,0,0,1,56.357.2a3.749,3.749,0,0,1-2.539-.9,2.875,2.875,0,0,1-1.045-2.271,2.955,2.955,0,0,1,1.27-2.6,6.468,6.468,0,0,1,3.691-.879H58.75v-.559q0-1.462-1.26-1.462a1.03,1.03,0,0,0-1.172,1.158H53.027a2.95,2.95,0,0,1,1.3-2.487,5.479,5.479,0,0,1,3.325-.956,4.8,4.8,0,0,1,3.193.986,3.429,3.429,0,0,1,1.2,2.705v4.678A4.79,4.79,0,0,0,62.5-.166V0ZM57.148-2.148a1.836,1.836,0,0,0,1.021-.264,1.653,1.653,0,0,0,.581-.6V-4.7h-.957q-1.719,0-1.719,1.543a.942.942,0,0,0,.3.728A1.1,1.1,0,0,0,57.148-2.148ZM5.391,24.656a1.464,1.464,0,0,0,1.074-.376,1.379,1.379,0,0,0,.371-1.05H9.922a3.653,3.653,0,0,1-1.245,2.852A4.631,4.631,0,0,1,5.469,27.2,4.689,4.689,0,0,1,1.836,25.75a5.7,5.7,0,0,1-1.328-4v-.137A6.436,6.436,0,0,1,1.1,18.782,4.3,4.3,0,0,1,2.8,16.9a5.081,5.081,0,0,1,2.637-.659,4.573,4.573,0,0,1,3.271,1.143,4.053,4.053,0,0,1,1.211,3.1H6.836a1.807,1.807,0,0,0-.4-1.26,1.382,1.382,0,0,0-1.074-.439q-1.279,0-1.494,1.631A11.508,11.508,0,0,0,3.8,21.834a4.52,4.52,0,0,0,.381,2.207A1.319,1.319,0,0,0,5.391,24.656ZM10.9,21.619a6.236,6.236,0,0,1,.615-2.817,4.4,4.4,0,0,1,1.768-1.9,5.323,5.323,0,0,1,2.705-.664,4.858,4.858,0,0,1,3.74,1.47,5.64,5.64,0,0,1,1.367,4v.117a5.472,5.472,0,0,1-1.372,3.921,4.871,4.871,0,0,1-3.716,1.45,4.927,4.927,0,0,1-3.623-1.353,5.29,5.29,0,0,1-1.475-3.667Zm3.291.205a3.932,3.932,0,0,0,.459,2.148,1.529,1.529,0,0,0,1.357.684q1.758,0,1.8-2.705v-.332q0-2.842-1.816-2.842-1.65,0-1.787,2.451Zm11.377-5.391.107,1.24a3.583,3.583,0,0,1,3.018-1.436,3.015,3.015,0,0,1,2.466.986A4.7,4.7,0,0,1,32,20.193V27H28.7V20.33a1.783,1.783,0,0,0-.322-1.177,1.491,1.491,0,0,0-1.172-.376,1.569,1.569,0,0,0-1.436.762V27H22.48V16.434Zm12.09-2.627v2.627h1.738v2.285H37.656v4.834a1.234,1.234,0,0,0,.215.83,1.152,1.152,0,0,0,.85.234,4.828,4.828,0,0,0,.82-.059v2.354a6.074,6.074,0,0,1-1.855.283,3.448,3.448,0,0,1-2.51-.8,3.282,3.282,0,0,1-.811-2.432V18.719H33.018V16.434h1.348V13.807ZM44.16,27h-3.3V16.434h3.3Zm-3.5-13.3a1.482,1.482,0,0,1,.508-1.159,2.149,2.149,0,0,1,2.637,0,1.577,1.577,0,0,1,0,2.319,2.149,2.149,0,0,1-2.637,0A1.482,1.482,0,0,1,40.664,13.7Zm8.545,2.734.107,1.24a3.583,3.583,0,0,1,3.018-1.436,3.015,3.015,0,0,1,2.466.986,4.7,4.7,0,0,1,.845,2.969V27h-3.3V20.33a1.783,1.783,0,0,0-.322-1.177,1.491,1.491,0,0,0-1.172-.376,1.569,1.569,0,0,0-1.436.762V27H46.123V16.434ZM63.76,25.857A3.393,3.393,0,0,1,60.938,27.2a3.328,3.328,0,0,1-2.632-1.011,4.251,4.251,0,0,1-.894-2.905V16.434H60.7V23.3a1.183,1.183,0,0,0,1.318,1.357,1.72,1.72,0,0,0,1.611-.811V16.434h3.311V27H63.857ZM74.7,27a3.716,3.716,0,0,1-.312-.947A3.06,3.06,0,0,1,71.846,27.2a3.749,3.749,0,0,1-2.539-.9,2.875,2.875,0,0,1-1.045-2.271,2.955,2.955,0,0,1,1.27-2.6,6.468,6.468,0,0,1,3.691-.879h1.016v-.559q0-1.462-1.26-1.462a1.03,1.03,0,0,0-1.172,1.158H68.516a2.95,2.95,0,0,1,1.3-2.487,5.479,5.479,0,0,1,3.325-.956,4.8,4.8,0,0,1,3.193.986,3.429,3.429,0,0,1,1.2,2.705v4.678a4.79,4.79,0,0,0,.449,2.227V27Zm-2.061-2.148a1.836,1.836,0,0,0,1.021-.264,1.653,1.653,0,0,0,.581-.6V22.3h-.957q-1.719,0-1.719,1.543a.942.942,0,0,0,.3.728A1.1,1.1,0,0,0,72.637,24.852Zm11.289-3.213a6.455,6.455,0,0,1,1.084-3.955,3.568,3.568,0,0,1,3.027-1.445,3.035,3.035,0,0,1,2.383,1.113V12h3.3V27H90.762L90.6,25.867A3.116,3.116,0,0,1,88.018,27.2a3.562,3.562,0,0,1-2.988-1.445A6.659,6.659,0,0,1,83.926,21.639Zm3.291.205q0,2.813,1.641,2.813a1.62,1.62,0,0,0,1.563-.918V19.715a1.576,1.576,0,0,0-1.543-.937q-1.523,0-1.65,2.461ZM100.7,27.2a5.432,5.432,0,0,1-3.936-1.45,5.008,5.008,0,0,1-1.5-3.774V21.7a6.489,6.489,0,0,1,.6-2.861,4.395,4.395,0,0,1,1.753-1.919,5.292,5.292,0,0,1,2.734-.679,4.574,4.574,0,0,1,3.516,1.382,5.43,5.43,0,0,1,1.289,3.853v1.279H98.613a2.372,2.372,0,0,0,.771,1.4,2.3,2.3,0,0,0,1.543.508,2.958,2.958,0,0,0,2.441-1.094l1.5,1.777a4.2,4.2,0,0,1-1.743,1.353A5.891,5.891,0,0,1,100.7,27.2Zm-.371-8.418q-1.445,0-1.719,1.914h3.32v-.254a1.63,1.63,0,0,0-.4-1.226A1.593,1.593,0,0,0,100.332,18.777ZM109.951,27h-3.3V12h3.3ZM4.5,49.176V54H1.074V39.781H6.748a6.608,6.608,0,0,1,2.886.6,4.526,4.526,0,0,1,1.943,1.709,4.667,4.667,0,0,1,.688,2.515,4.114,4.114,0,0,1-1.489,3.325,6.179,6.179,0,0,1-4.087,1.245Zm0-2.646H6.748a2.118,2.118,0,0,0,1.519-.5,1.85,1.85,0,0,0,.522-1.406,2.287,2.287,0,0,0-.537-1.592,1.9,1.9,0,0,0-1.465-.605H4.5ZM22.91,47.965H17.52v3.4h6.367V54H14.092V39.781h9.814v2.646H17.52v3H22.91Zm9.707,2.256a1.408,1.408,0,0,0-.532-1.172,6.615,6.615,0,0,0-1.87-.869,17.942,17.942,0,0,1-2.187-.869q-2.764-1.357-2.764-3.73a3.345,3.345,0,0,1,.688-2.085A4.453,4.453,0,0,1,27.9,40.089a7.582,7.582,0,0,1,2.832-.5,6.632,6.632,0,0,1,2.749.547,4.352,4.352,0,0,1,1.89,1.558A4.068,4.068,0,0,1,36.045,44H32.627a1.719,1.719,0,0,0-.532-1.348,2.075,2.075,0,0,0-1.44-.479,2.339,2.339,0,0,0-1.45.405,1.193,1.193,0,0,0,.054,2.021,7.389,7.389,0,0,0,2.061.918,12.623,12.623,0,0,1,2.422,1.021,4.07,4.07,0,0,1,2.3,3.662,3.472,3.472,0,0,1-1.406,2.93A6.255,6.255,0,0,1,30.781,54.2a7.653,7.653,0,0,1-3.13-.62,4.719,4.719,0,0,1-2.109-1.7,4.428,4.428,0,0,1-.708-2.485h3.438a2.181,2.181,0,0,0,.591,1.685,2.793,2.793,0,0,0,1.919.542,2.206,2.206,0,0,0,1.343-.366A1.209,1.209,0,0,0,32.617,50.221Zm10.7-.088,2.832-10.352H49.98L45.2,54h-3.75L36.7,39.781h3.8Z" transform="translate(-9285.667 -6428.009)" fill="#fff"/>
    </g>
  </g>
</svg>
