<svg xmlns="http://www.w3.org/2000/svg" width="860.696" height="315" viewBox="0 0 860.696 315">
  <g id="Grupo_84449" data-name="Grupo 84449" transform="translate(8591.363 6470)">
    <path id="Trazado_119160" data-name="Trazado 119160" d="M0,0H860.7V315H0V0Z" transform="translate(-8591.363 -6470)" fill="#f8e99f"/>
    <path id="Trazado_119169" data-name="Trazado 119169" d="M432.686,52.356a35.826,35.826,0,0,1,5.712,1.981s-3.4-2.3-4.235-4.943c-.692-2.2.309-4.56,3.392-5.616a9.108,9.108,0,0,1,7.269.59c4.417,2.235,4.632,7.95,4.64,8.854v0c.019-2.323-.934-6.677,3.384-6.952,4.208-.27,4.277,3.094,4.277,4.858a14.017,14.017,0,0,1,2.232-7.374,9.2,9.2,0,0,1,10.295-2.959,4.564,4.564,0,0,1,1.871,7.283,28.4,28.4,0,0,1-2.362,2.772,11.476,11.476,0,0,0-1.234,1.025,7.883,7.883,0,0,0,1.234-1.025c2.339-1.692,5-2.193,6.828-1.124,2.794,1.631.353,3.907-2.042,5.084a10.331,10.331,0,0,0-1.383.562,9.543,9.543,0,0,0,1.383-.562c4.47-1.507,11.819-1.254,12.64,1.775.951,3.516-4.7,5.161-8.484,5.161-4.751,0-45.018-.135-49.757-.254-7.2-.179-10.694-4.368-8.305-7.126C422.532,51.491,428.809,51.689,432.686,52.356Z" transform="translate(-8234.573 -6497.692)" fill="#fff" opacity="0.65"/>
    <path id="Trazado_119168" data-name="Trazado 119168" d="M335.585,74.623a42.3,42.3,0,0,1,6.762,2.345s-4.029-2.725-5.015-5.853c-.818-2.6.364-5.4,4.015-6.652a10.784,10.784,0,0,1,8.608.7c5.23,2.645,5.486,9.413,5.492,10.482,0,.052,0,.11,0,.16,0,0,0-.066,0-.16.022-2.75-1.1-7.906,4.007-8.234,4.985-.32,5.068,3.668,5.068,5.754,0,0-.028-5.087,2.64-8.73a10.88,10.88,0,0,1,12.191-3.5c4.431,1.863,4.064,6.307,2.216,8.622a34.5,34.5,0,0,1-2.8,3.282,13.234,13.234,0,0,0-1.463,1.212,9.421,9.421,0,0,0,1.463-1.212c2.769-2.006,5.913-2.6,8.085-1.331,3.307,1.929.416,4.624-2.417,6.018a12.541,12.541,0,0,0-1.64.664,11.564,11.564,0,0,0,1.64-.664c5.291-1.786,13.99-1.485,14.963,2.1,1.127,4.164-5.561,6.115-10.044,6.115-5.624,0-53.3-.163-58.911-.3-8.523-.212-12.665-5.172-9.832-8.437C323.563,73.6,330.992,73.832,335.585,74.623Z" transform="translate(-8409.366 -6462.519)" fill="#fff" opacity="0.65"/>
    <path id="Trazado_116604" data-name="Trazado 116604" d="M843.4,94.24c-9.112,1.364-17.629,4.767-26.286,8.92-6.382,3.064-12.182,5.963-18.966,5.043.57-.1-4.95-1.849-4.583-1.681a71.866,71.866,0,0,1-6.53-3.29c-.744-.435-1.253-.73-1.637-.951s-.865-.535-1.589-.978c-3.034-1.857-6.1-3.85-9.206-5.495-9.175-4.858-19.046-7.255-28.793-5.552-12.9,2.257-22.466,10.309-31.785,23.125a83.238,83.238,0,0,1-5.592,7.153c-.295-.116-.461-.16-.5-.132-8.846-6.933-16.4-16.241-26.175-20.873-12.643-5.991-26.161-4.745-38.085,3.8-4.933,3.535-9.179,8.28-13.492,13.2-1.473,1.681-2.926,3.395-4.4,5.076,1.494-1.777-2.917,2.681-3.062,2.794-.22.171-.4.309-.576.452-.044-.058-.136-.094-.329-.08a15.6,15.6,0,0,1-2.607-.355,19.731,19.731,0,0,1-2.645-2.188l-.272-.3c-12.834-14.081-31.346-.344-31.346,22.9v23.651H540.645v-.543c0-23.789-10.814-45.232-26.775-51.336a40.169,40.169,0,0,1-6.117-2.993c-17.306-10.242-35.015-3.6-52.3,3.285-2.639-2.116-5.258-4.29-7.88-6.448-10.675-8.782-22.022-17.429-34.627-17.856-9.621-.328-18.951,3.9-27.068,11.245-2.624,2.378-5.178,4.971-7.892,7.137-.788.628-3.787,2.309-2.714,1.863-.53.24-1.063.46-1.6.65,1.794-.863-5.757-.934-2.81.138a10.3,10.3,0,0,0-1.222-.375c-.465-.705-2.622-3.257-2.85-3.632-.7-1.146-1.1-1.761-1.331-2.078-.147-.3-.3-.623-.5-1.025-5.193-10.521-10.034-22.19-17.1-30.325-21.475-24.712-45.732-11.229-63.615,13.764-3.948,5.517-7.712,11.312-11.707,16.757-1.379,1.879-2.766,3.761-4.212,5.539.092-.281-3.238,3.174-3.351,3.26-4.632,3.585-10.263,1.171-14.555-2.3-4.866-3.943-9.282-9.314-13.834-13.96-6.84-6.977-14.272-13.422-22.409-16.737-10.634-4.329-22.8-4.6-33.328.675a63.6,63.6,0,0,0-16.013,11.937c-2.45,2.433-4.814,5.037-7.136,7.716-2.439,2.808-4.244,5.63-7.591,3.563-3.02-1.863-5.6-6.048-8.062-9.1-2.634-3.257-5.277-6.5-8-9.6-5.443-6.186-11.25-11.774-17.661-15.665-13.609-8.258-28.024-2.3-39.07,10.576-4.051,4.723-12.616,24.979-21.209,26.269-9.827,1.471-19.92-11.769-25.106-14.516a24.464,24.464,0,0,0-15.081-2.571,33.353,33.353,0,0,0-4.7,1.022C7.647,93.838,3.833,95.086,0,96.6v93.562H860.7V96.3A31.892,31.892,0,0,0,843.4,94.24Z" transform="translate(-8591.363 -6457.579)" fill="#ffd817"/>
    <path id="Trazado_119170" data-name="Trazado 119170" d="M0,0H860.7V160H0Z" transform="translate(-8591.363 -6315)" fill="#fff5c5"/>
    <path id="Trazado_119161" data-name="Trazado 119161" d="M998.347,251.18,596.285,91.951H541.55l-403.9,159.957h860.7Z" transform="translate(-8729.014 -6406.908)" fill="#4a4a4f"/>
    <path id="Trazado_119162" data-name="Trazado 119162" d="M504.456,91.951,159.9,251.908H899.812L555.256,91.951Z" transform="translate(-8689.953 -6406.908)" fill="#c3c3c5"/>
    <path id="Trazado_119163" data-name="Trazado 119163" d="M846.806,251.908H171.651L487.806,91.951H530.65Z" transform="translate(-8669.325 -6406.907)" fill="#737377"/>
    <path id="Trazado_116608" data-name="Trazado 116608" d="M293.307,97.289l.067-1.506h3.4l.067,1.506Z" transform="translate(-8455.75 -6400.18)" fill="#e8e8e8"/>
    <path id="Trazado_116609" data-name="Trazado 116609" d="M293.246,98.847l.08-1.8h3.712l.08,1.8Z" transform="translate(-8455.857 -6397.958)" fill="#e8e8e8"/>
    <path id="Trazado_116610" data-name="Trazado 116610" d="M293.172,100.754l.1-2.187h4.084l.1,2.187Z" transform="translate(-8455.987 -6395.292)" fill="#e8e8e8"/>
    <path id="Trazado_116611" data-name="Trazado 116611" d="M293.081,103.14l.121-2.715h4.539l.12,2.715Z" transform="translate(-8456.146 -6392.032)" fill="#e8e8e8"/>
    <path id="Trazado_116612" data-name="Trazado 116612" d="M292.966,106.208l.154-3.461h5.108l.154,3.461Z" transform="translate(-8456.349 -6387.954)" fill="#e8e8e8"/>
    <path id="Trazado_116613" data-name="Trazado 116613" d="M292.815,110.3l.2-4.563h5.84l.2,4.563Z" transform="translate(-8456.613 -6382.708)" fill="#e8e8e8"/>
    <path id="Trazado_116614" data-name="Trazado 116614" d="M292.61,116.012l.279-6.289h6.816l.279,6.289Z" transform="translate(-8456.974 -6375.709)" fill="#e8e8e8"/>
    <path id="Trazado_116615" data-name="Trazado 116615" d="M292.315,124.531l.41-9.22h8.185l.41,9.22Z" transform="translate(-8457.492 -6365.898)" fill="#e8e8e8"/>
    <path id="Trazado_116616" data-name="Trazado 116616" d="M291.852,138.513l.658-14.806h10.24l.658,14.806Z" transform="translate(-8458.305 -6351.159)" fill="#e8e8e8"/>
    <path id="Trazado_116617" data-name="Trazado 116617" d="M291.27,158.283l1.122-16.533H304.91l1.122,16.533Z" transform="translate(-8459.326 -6319.483)" fill="#e8e8e8"/>
    <path id="Trazado_119166" data-name="Trazado 119166" d="M356.419,142.962s-88.784-7.677-150.2,0C206.219,142.962,286.993,156.4,356.419,142.962Z" transform="translate(-8608.638 -6323.346)" fill="#5d6a6d" opacity="0.55" style="mix-blend-mode: multiply;isolation: isolate"/>
    <path id="Trazado_119164" data-name="Trazado 119164" d="M475.933,142.962s-88.784-7.677-150.2,0C325.736,142.962,406.51,156.4,475.933,142.962Z" transform="translate(-8364.1 -6311.727)" fill="#5d6a6d" opacity="0.55" style="mix-blend-mode: multiply;isolation: isolate"/>
    <path id="Trazado_119165" data-name="Trazado 119165" d="M426.511,143.1s-95.979-8.3-162.368,0C264.143,143.1,351.461,157.625,426.511,143.1Z" transform="translate(-8492.949 -6323.589)" fill="#5d6a6d" opacity="0.55" style="mix-blend-mode: multiply;isolation: isolate"/>
    <g id="Grupo_81633" data-name="Grupo 81633" transform="translate(-8150.667 -6265.048)">
      <g id="Grupo_81623" data-name="Grupo 81623" transform="translate(8.569 47.258)">
        <g id="Grupo_81621" data-name="Grupo 81621">
          <path id="Trazado_116636" data-name="Trazado 116636" d="M215.471,127.213v34.161a3.824,3.824,0,0,0,3.965,3.665h12.626a3.822,3.822,0,0,0,3.962-3.665V127.213Z" transform="translate(-215.471 -127.213)" fill="#252525"/>
        </g>
        <g id="Grupo_81622" data-name="Grupo 81622" transform="translate(82.397)">
          <path id="Trazado_116637" data-name="Trazado 116637" d="M245.373,127.213v34.161a3.824,3.824,0,0,0,3.963,3.665h12.629a3.824,3.824,0,0,0,3.963-3.665V127.213Z" transform="translate(-245.373 -127.213)" fill="#252525"/>
        </g>
      </g>
      <g id="Grupo_81624" data-name="Grupo 81624" transform="translate(0 22.944)">
        <path id="Trazado_116638" data-name="Trazado 116638" d="M248.854,125.922s5.034-6.564,7.228-7.352,12.006,1.221,12.135,1.747c.361,1.463.03,2.406,0,3.9q-9.168,3.476-18.333,6.958Z" transform="translate(-148.296 -118.389)" fill="#1795c7"/>
        <path id="Trazado_116639" data-name="Trazado 116639" d="M231.895,125.922s-5.037-6.564-7.231-7.352-12.006,1.221-12.135,1.747c-.361,1.463-.03,2.406,0,3.9q9.164,3.476,18.333,6.958Z" transform="translate(-212.361 -118.389)" fill="#1795c7"/>
      </g>
      <path id="Trazado_116640" data-name="Trazado 116640" d="M315.871,140.515c-.212-.355-.336-.546-.336-.546-3.257-5.288-10.173-24.414-12.711-26.853s-35.709-3.053-35.709-3.053-33.171.609-35.712,3.053-9.454,21.565-12.709,26.853c0,0-.127.19-.339.546-2.813,4.72-3.665,15.249-2.422,20.6a59.9,59.9,0,0,1,1.438,13.5c0,12.05,11.289,11.824,49.743,11.824s49.743.226,49.743-11.824a59.9,59.9,0,0,1,1.438-13.5C319.536,155.764,318.687,145.235,315.871,140.515Z" transform="translate(-207.069 -110.063)" fill="#70cde7"/>
      <path id="Trazado_116641" data-name="Trazado 116641" d="M215.86,130.145a63.28,63.28,0,0,1,.661,9.212c0,12.05,11.289,11.824,49.743,11.824s49.743.226,49.743-11.824a63.313,63.313,0,0,1,.659-9.212l-.829.149a284.969,284.969,0,0,1-99.476-.058Z" transform="translate(-206.219 -74.808)" fill="#70bbcf" style="mix-blend-mode: multiply;isolation: isolate"/>
      <path id="Trazado_116642" data-name="Trazado 116642" d="M294.9,138.517c-1.3-1.929-3.387-5.018-4.376-6.484a1.868,1.868,0,0,0-1.565-.821H242.367a1.9,1.9,0,0,0-1.576.838l-4.357,6.456a1.977,1.977,0,0,1-1.662.84,135.026,135.026,0,0,1-18.666-1.416c.309,11.573,10.286,11.378,49.724,11.378s49.424.2,49.732-11.378a136.642,136.642,0,0,1-19.011,1.422A1.949,1.949,0,0,1,294.9,138.517Z" transform="translate(-205.785 -72.935)" fill="#434544"/>
      <path id="Trazado_116643" data-name="Trazado 116643" d="M291.216,114.263c-2-2.171-28.5-2.808-31.424-2.871-2.924.063-29.427.7-31.427,2.871s-6.365,17.823-8.818,23.171c.19.072,2.971.694,4.246,1.124,3.128,1.058,68.867,1.058,72,0,1.273-.43,4.053-1.053,4.246-1.124C297.584,132.086,293.214,116.432,291.216,114.263Z" transform="translate(-199.746 -107.73)" fill="#252525"/>
      <path id="Trazado_116644" data-name="Trazado 116644" d="M287.969,114.467c-1.885-1.97-26.88-2.546-29.636-2.6-2.758.058-27.754.634-29.639,2.6s-6,16.17-8.316,21.022c.179.066,2.8.628,4,1.02,2.951.962,64.948.962,67.9,0,1.2-.391,3.825-.953,4-1.02C293.973,130.637,289.851,116.434,287.969,114.467Z" transform="translate(-198.287 -106.903)" fill="#515352"/>
      <path id="Trazado_116645" data-name="Trazado 116645" d="M239.756,137.124c6.112-8.236,12.009-16.619,17.534-25.26-1.284.028-5.624.135-10.62.361q-13.053,11.631-25.795,23.59c.884.209,1.965.474,2.634.692C224.424,136.8,231.015,137.008,239.756,137.124Z" transform="translate(-197.415 -106.901)" fill="#838383"/>
      <path id="Trazado_116646" data-name="Trazado 116646" d="M243.748,136.978c5.205-8.115,10.485-16.2,15.729-24.282-3.274-.3-7.093-.535-10.647-.7q-7.891,12.822-16.74,24.982C235.947,136.995,239.9,136.992,243.748,136.978Z" transform="translate(-177.728 -106.664)" fill="#838383"/>
      <path id="Trazado_116647" data-name="Trazado 116647" d="M256.38,120.329c-.915-2.585-1.808-5.012-2.568-6.715q-6.617,10.218-13.263,20.438c2.411-.03,4.635-.069,6.646-.116A142.5,142.5,0,0,0,256.38,120.329Z" transform="translate(-162.876 -103.829)" fill="#838383"/>
      <path id="Trazado_116648" data-name="Trazado 116648" d="M288.911,115.374c-10.918,5.445-42.392,6.8-63.284.714-1.659,4.808-3.461,11.375-4.715,14.108.174.063,2.695.626,3.85,1.017,2.838.962,62.43.962,65.265,0,1.155-.391,3.676-.953,3.85-1.017C292.562,127.325,290.639,120.32,288.911,115.374Z" transform="translate(-197.35 -100.739)" fill="#838383" opacity="0.55" style="mix-blend-mode: multiply;isolation: isolate"/>
      <path id="Trazado_116649" data-name="Trazado 116649" d="M250.53,142.107c10.4,0,18.84.008,25.7-.185-1.061-2.342-2.565-5.032-4.136-5.693-2.9-1.221-40.237-1.221-43.138,0-1.568.661-3.072,3.351-4.136,5.693C231.687,142.115,240.127,142.107,250.53,142.107Z" transform="translate(-190.484 -65.734)" fill="#1e201f"/>
      <g id="Grupo_81631" data-name="Grupo 81631" transform="translate(12.119 43.444)">
        <g id="Grupo_81625" data-name="Grupo 81625">
          <path id="Trazado_116650" data-name="Trazado 116650" d="M232.195,137.893s-4.274-11.887-8.564-12.058a8.537,8.537,0,0,0-6.156,2.5,2.222,2.222,0,0,0-.711,1.755c.1,1.629.532,4.85,2.3,5.44C221.446,136.325,232.195,137.893,232.195,137.893Z" transform="translate(-216.759 -125.829)" fill="#bfc2c4"/>
          <path id="Trazado_116651" data-name="Trazado 116651" d="M230.057,136.536s-3.577-10.256-7.164-10.4a7.05,7.05,0,0,0-5.15,2.158,1.945,1.945,0,0,0-.6,1.516c.085,1.405.446,4.18,1.923,4.69C221.063,135.183,230.057,136.536,230.057,136.536Z" transform="translate(-216.085 -125.302)" fill="#fdfad6"/>
          <path id="Trazado_116652" data-name="Trazado 116652" d="M223.2,129.7a2.645,2.645,0,1,1-2.645-2.645A2.644,2.644,0,0,1,223.2,129.7Z" transform="translate(-214.734 -123.671)" fill="#fff"/>
        </g>
        <g id="Grupo_81626" data-name="Grupo 81626" transform="translate(80.414)">
          <path id="Trazado_116653" data-name="Trazado 116653" d="M245.942,137.893s4.277-11.887,8.567-12.058a8.529,8.529,0,0,1,6.153,2.5,2.234,2.234,0,0,1,.714,1.755c-.1,1.629-.535,4.85-2.3,5.44C256.691,136.325,245.942,137.893,245.942,137.893Z" transform="translate(-245.942 -125.829)" fill="#bfc2c4"/>
          <path id="Trazado_116654" data-name="Trazado 116654" d="M246.473,136.536s3.577-10.256,7.167-10.4a7.037,7.037,0,0,1,5.147,2.158,1.957,1.957,0,0,1,.6,1.516c-.088,1.405-.446,4.18-1.923,4.69C255.467,135.183,246.473,136.536,246.473,136.536Z" transform="translate(-245.01 -125.302)" fill="#fdfad6"/>
          <path id="Trazado_116655" data-name="Trazado 116655" d="M248.471,129.7a2.644,2.644,0,1,0,2.643-2.645A2.641,2.641,0,0,0,248.471,129.7Z" transform="translate(-241.502 -123.671)" fill="#fff"/>
        </g>
        <g id="Grupo_81628" data-name="Grupo 81628" transform="translate(84.525 12.899)">
          <g id="Grupo_81627" data-name="Grupo 81627" transform="translate(0.014)">
            <path id="Trazado_116656" data-name="Trazado 116656" d="M255.37,134.475a3.965,3.965,0,1,1-3.965-3.965A3.964,3.964,0,0,1,255.37,134.475Z" transform="translate(-247.439 -130.51)" fill="#5b5b5b"/>
            <circle id="Elipse_4835" data-name="Elipse 4835" cx="2.799" cy="2.799" r="2.799" transform="translate(1.166 1.167)" fill="#bfbfbf"/>
          </g>
          <path id="Trazado_116657" data-name="Trazado 116657" d="M254.224,134.58l-5.709.758a1.027,1.027,0,0,0-.89.942l-.187,2.414a1.031,1.031,0,0,0,1.292,1.077c1.874-.493,5.117-1.6,6.476-3.577A1.032,1.032,0,0,0,254.224,134.58Z" transform="translate(-247.434 -123.382)" fill="#8c8e8d"/>
        </g>
        <g id="Grupo_81630" data-name="Grupo 81630" transform="translate(3.283 12.899)">
          <g id="Grupo_81629" data-name="Grupo 81629" transform="translate(0.015)">
            <path id="Trazado_116658" data-name="Trazado 116658" d="M225.887,134.475a3.965,3.965,0,1,1-3.968-3.965A3.967,3.967,0,0,1,225.887,134.475Z" transform="translate(-217.956 -130.51)" fill="#5b5b5b"/>
            <path id="Trazado_116659" data-name="Trazado 116659" d="M223.976,133.731a2.8,2.8,0,1,1-2.8-2.8A2.8,2.8,0,0,1,223.976,133.731Z" transform="translate(-217.213 -129.766)" fill="#bfbfbf"/>
          </g>
          <path id="Trazado_116660" data-name="Trazado 116660" d="M219.12,134.58l5.707.758a1.033,1.033,0,0,1,.893.942l.185,2.414a1.03,1.03,0,0,1-1.29,1.077c-1.874-.493-5.117-1.6-6.478-3.577A1.034,1.034,0,0,1,219.12,134.58Z" transform="translate(-217.951 -123.382)" fill="#8c8e8d"/>
        </g>
      </g>
      <g id="Grupo_81632" data-name="Grupo 81632" transform="translate(24.333 35.729)">
        <path id="Trazado_116661" data-name="Trazado 116661" d="M229.658,138.157c2.224,1.328,7.018,2.235,11.912,2.849a121.277,121.277,0,0,0,30.669,0c4.894-.614,9.689-1.521,11.912-2.849,3.745-2.237,6.258-6.376,7.906-9.948,1.389-3,.132-5.18-3.114-5.18H224.866c-3.246,0-4.5,2.182-3.117,5.18C223.4,131.781,225.913,135.92,229.658,138.157Z" transform="translate(-221.192 -123.029)" fill="#90d8ed"/>
        <path id="Trazado_116662" data-name="Trazado 116662" d="M286.244,127.842c-2.519,1.328-7.947,2.235-13.486,2.849a155.263,155.263,0,0,1-34.717,0c-5.539-.614-10.967-1.521-13.483-2.849a15.822,15.822,0,0,1-2.51-1.714,18.673,18.673,0,0,0,6.106,6.589c2.224,1.328,7.018,2.235,11.912,2.849a121.274,121.274,0,0,0,30.669,0c4.894-.614,9.689-1.521,11.912-2.849a18.674,18.674,0,0,0,6.106-6.589A16.01,16.01,0,0,1,286.244,127.842Z" transform="translate(-219.688 -117.589)" fill="#434544"/>
        <path id="Trazado_116663" data-name="Trazado 116663" d="M237.223,128.039a1.889,1.889,0,1,1-1.876-1.662A1.779,1.779,0,0,1,237.223,128.039Z" transform="translate(-199.631 -117.151)" fill="#434544"/>
      </g>
    </g>
    <rect id="Rectángulo_34238" data-name="Rectángulo 34238" width="35.594" height="5.778" transform="translate(-8108.588 -6204.167)" fill="#ababab"/>
    <path id="Trazado_116678" data-name="Trazado 116678" d="M173.649,235.441a46.519,46.519,0,0,1,4.878.53c.863.264,3.124,3.123,3.363,4.835s-.873,4.119-1.814,2.208a5.183,5.183,0,0,0-3.921-2.564c-1.029-.218-4.6-.13-4.365-2.474S173.649,235.441,173.649,235.441Z" transform="translate(-8471.722 -6485.143)" fill="#ffbd81"/>
    <path id="Trazado_116679" data-name="Trazado 116679" d="M147.836,196.21s-.011,9.389-1.555,12.383c0,0,8.449,1.316,10.827.772,0,0-3.378-2.673-2.536-9.613C155.406,192.877,147.836,196.21,147.836,196.21Z" transform="translate(-8479.748 -6497.748)" fill="#ffbd81"/>
    <g id="Grupo_81645" data-name="Grupo 81645" transform="translate(-8336.544 -6314.956)">
      <path id="Trazado_116680" data-name="Trazado 116680" d="M151.435,187.757l6.9,1.265s2.185,4.945,2.185,7.936,1.955,3.795,1.381,4.6-2.185.23-2.185.919.911,6.306-3,6.306-7.125-1.6-9.77-7.813S145.861,186.734,151.435,187.757Z" transform="translate(-143.389 -185.226)" fill="#ffbd81"/>
      <path id="Trazado_116681" data-name="Trazado 116681" d="M161.429,191.772s-9.431,4.566-16.791-2.07C144.638,189.7,157.173,179.7,161.429,191.772Z" transform="translate(-143.722 -185.811)" fill="#99602b"/>
      <path id="Trazado_116682" data-name="Trazado 116682" d="M147.781,196.754c1.178-1,2.411.885,3.2,1.645a51.226,51.226,0,0,0-.255-8.236c-1.381-5.362-5.867-1.077-5.867-1.077-3.334,9.627,3.52,14.274,3.52,14.274a4.487,4.487,0,0,0,1.77-2.478C148.251,200.547,145.879,198.369,147.781,196.754Z" transform="translate(-143.941 -185.29)" fill="#99602b"/>
    </g>
    <g id="Grupo_81646" data-name="Grupo 81646" transform="translate(-8356.208 -6256.344)">
      <path id="Trazado_116683" data-name="Trazado 116683" d="M130.391,283.571s-.774,3.413-1.141,4.3-.534,2.382.743,2.7,6.21.206,9.577,1.892,9.121,1.611,8.122-1.074-4.239-1.795-5.222-2.945-4.086-6.775-5.562-7.285S132.013,282.435,130.391,283.571Z" transform="translate(-128.985 -214.436)" fill="#1d1e17"/>
      <path id="Trazado_116684" data-name="Trazado 116684" d="M148.779,231.926s-2.047.208-3.416,11.309c-.788,6.4-3.383,14.024-3.752,20.707-.059,1.079-4.808,7.634-5.918,13.216-.6,3.008-6.352,22.224-6.352,22.224l9.284,2.159s9.979-29.466,10.8-31.41,15.3-37.128,14.886-39.06S148.779,231.926,148.779,231.926Z" transform="translate(-128.873 -230.389)" fill="#065492"/>
    </g>
    <g id="Grupo_81647" data-name="Grupo 81647" transform="translate(-8334.273 -6253.875)">
      <path id="Trazado_116685" data-name="Trazado 116685" d="M166.824,283.786s-.354,3.483-.61,4.406-.241,2.428,1.065,2.588,6.19-.551,9.736.714,9.25.489,7.931-2.054-4.426-1.266-5.542-2.289-4.881-6.228-6.406-6.556S168.3,282.462,166.824,283.786Z" transform="translate(-139.241 -217.064)" fill="#1d1e17"/>
      <path id="Trazado_116686" data-name="Trazado 116686" d="M145.668,233.327s14.437,30.3,14.636,31.787a32.311,32.311,0,0,0,3.61,14.9c.168.337,7.567,20.188,7.567,20.188l9.636-4.034s-10.629-29.435-10.864-32.534-7.638-30.319-7.638-30.319S146.921,230.953,145.668,233.327Z" transform="translate(-145.668 -232.268)" fill="#065492"/>
    </g>
    <path id="Trazado_116687" data-name="Trazado 116687" d="M166.654,225.224c-1.854-4.238-5.3-12.472-7.274-16.84-1.158.5-5.222,5.405-6.794,6.218,1.621,4.907,5.395,14.141,6.34,16.154,1.256,2.672,18.369,18.69,18.369,18.69l5.648-6.553S169.9,232.642,166.654,225.224Z" transform="translate(-8477.763 -6493.661)" fill="#1d1e17"/>
    <path id="Trazado_116688" data-name="Trazado 116688" d="M164.252,223.957c.406-3.359,2.789-14.71-6.682-18.665a12.228,12.228,0,0,1-6.573.024,6.027,6.027,0,0,1-2.471-1.149c-3.2,1.125-4.786,1.855-4.786,1.855-3.967,3.654-1.143,11.346-1.385,14.824-.346,4.954-.807,26.044-.807,26.044,10.267,2.535,23.355.316,23.355.316S163.79,227.759,164.252,223.957Z" transform="translate(-8481.238 -6494.989)" fill="#70cde7"/>
    <g id="Grupo_81648" data-name="Grupo 81648" transform="translate(-8360.666 -6288.971)">
      <path id="Trazado_116689" data-name="Trazado 116689" d="M135.175,241.863s-.314,3.4-1.128,4.545c-.492.694-4.054,2.68-5.794,2.492s-3.884-1.775-1.8-2.181,2.858-2.539,3.291-3.429c.179-.366,2.01-5.154,3.346-4.7A3.269,3.269,0,0,1,135.175,241.863Z" transform="translate(-125.594 -195.191)" fill="#ffbd81"/>
      <path id="Trazado_116690" data-name="Trazado 116690" d="M150.505,211.185a12.5,12.5,0,0,0-2.517-5.608,18.555,18.555,0,0,0-4.265,2.669c-5.518,5.527-8.867,17.265-9.618,19.1-1.093,2.673-6.049,24.68-6.049,24.68l7.739,1.8s6.536-21.372,7.158-23.064A74.129,74.129,0,0,1,148.3,220.22C148.662,219.2,150.918,216.308,150.505,211.185Z" transform="translate(-124.819 -205.574)" fill="#1d1e17"/>
    </g>
    <g id="Grupo_81662" data-name="Grupo 81662" transform="translate(-8456.075 -6552.014)">
      <g id="Grupo_81655" data-name="Grupo 81655">
        <g id="Grupo_81654" data-name="Grupo 81654">
          <g id="Grupo_81653" data-name="Grupo 81653">
            <g id="Grupo_81652" data-name="Grupo 81652">
              <g id="Grupo_81651" data-name="Grupo 81651">
                <g id="Grupo_81650" data-name="Grupo 81650">
                  <path id="Trazado_116691" data-name="Trazado 116691" d="M487.512,291.543s10.3-6.363,11.831-12.469-3.043-8.461-3.043-8.461-10.714,13.413-14.6,19C476.787,296.692,487.512,291.543,487.512,291.543Z" fill="#ffbe9e"/>
                </g>
              </g>
            </g>
          </g>
        </g>
      </g>
      <g id="Grupo_81661" data-name="Grupo 81661">
        <g id="Grupo_81660" data-name="Grupo 81660">
          <g id="Grupo_81659" data-name="Grupo 81659">
            <g id="Grupo_81658" data-name="Grupo 81658">
              <g id="Grupo_81657" data-name="Grupo 81657">
                <g id="Grupo_81656" data-name="Grupo 81656">
                  <path id="Trazado_116692" data-name="Trazado 116692" d="M501.84,264.44c7.373,5.768-5.259,21.527-5.259,21.527l-8.957-4.662S494.653,258.817,501.84,264.44Z" fill="#90b3dd"/>
                </g>
              </g>
            </g>
          </g>
        </g>
      </g>
    </g>
    <g id="Grupo_81699" data-name="Grupo 81699" transform="translate(-8456.075 -6552.014)">
      <g id="Grupo_81668" data-name="Grupo 81668">
        <g id="Grupo_81667" data-name="Grupo 81667">
          <g id="Grupo_81666" data-name="Grupo 81666">
            <g id="Grupo_81665" data-name="Grupo 81665">
              <g id="Grupo_81664" data-name="Grupo 81664">
                <g id="Grupo_81663" data-name="Grupo 81663">
                  <path id="Trazado_116693" data-name="Trazado 116693" d="M521.213,324.762l-30.389-22.249.6-4.556,28.893-2.276Z" fill="#2f4463"/>
                </g>
              </g>
            </g>
          </g>
        </g>
      </g>
      <g id="Grupo_81670" data-name="Grupo 81670">
        <g id="Grupo_81669" data-name="Grupo 81669">
          <path id="Trazado_116694" data-name="Trazado 116694" d="M491.7,376.674s-1.165,1.414-2.536,3.328-2.4,3.91-.48,4.825,4.25-1.331,5-2.662,1.608-1.186,2.646-2.072.491-4.165.491-4.165Z" fill="#302e3b"/>
        </g>
      </g>
      <g id="Grupo_81672" data-name="Grupo 81672">
        <g id="Grupo_81671" data-name="Grupo 81671">
          <path id="Trazado_116695" data-name="Trazado 116695" d="M509.323,313.789c-2.8,3.682-12.138,63-12.138,63-2.8,2.447-7.011,0-7.011,0-3.038-30.245.721-75.167.721-75.167s21.232,15.853,18.428,12.171Z" fill="#2f4463"/>
        </g>
      </g>
      <g id="Grupo_81679" data-name="Grupo 81679">
        <g id="Grupo_81678" data-name="Grupo 81678">
          <g id="Grupo_81677" data-name="Grupo 81677">
            <g id="Grupo_81676" data-name="Grupo 81676">
              <g id="Grupo_81675" data-name="Grupo 81675">
                <g id="Grupo_81674" data-name="Grupo 81674">
                  <g id="Grupo_81673" data-name="Grupo 81673">
                    <path id="Trazado_116696" data-name="Trazado 116696" d="M495.946,302.472c-3.456,24.523-6.516,50.43-4.023,75.163.058.572.928.578.87,0-2.486-24.659.547-50.479,3.992-74.924.08-.568-.758-.813-.839-.239Z" fill="#192c47"/>
                  </g>
                </g>
              </g>
            </g>
          </g>
        </g>
      </g>
      <g id="Grupo_81685" data-name="Grupo 81685">
        <g id="Grupo_81684" data-name="Grupo 81684">
          <g id="Grupo_81683" data-name="Grupo 81683">
            <g id="Grupo_81682" data-name="Grupo 81682">
              <g id="Grupo_81681" data-name="Grupo 81681">
                <g id="Grupo_81680" data-name="Grupo 81680">
                  <path id="Trazado_116697" data-name="Trazado 116697" d="M519.66,377.647s1.165,1.415,2.536,3.328,2.4,3.911.48,4.826-4.25-1.331-5-2.662-1.609-1.186-2.646-2.072-.491-4.166-.491-4.166Z" fill="#302e3b"/>
                </g>
              </g>
            </g>
          </g>
        </g>
      </g>
      <g id="Grupo_81691" data-name="Grupo 81691">
        <g id="Grupo_81690" data-name="Grupo 81690">
          <g id="Grupo_81689" data-name="Grupo 81689">
            <g id="Grupo_81688" data-name="Grupo 81688">
              <g id="Grupo_81687" data-name="Grupo 81687">
                <g id="Grupo_81686" data-name="Grupo 81686">
                  <path id="Trazado_116698" data-name="Trazado 116698" d="M502.04,314.763c2.8,3.681,12.138,63,12.138,63,2.8,2.447,7.011,0,7.011,0,3.038-30.245-.262-77.916-.262-77.916s-21.691,18.6-18.887,14.92Z" fill="#2f4463"/>
                </g>
              </g>
            </g>
          </g>
        </g>
      </g>
      <g id="Grupo_81698" data-name="Grupo 81698">
        <g id="Grupo_81697" data-name="Grupo 81697">
          <g id="Grupo_81696" data-name="Grupo 81696">
            <g id="Grupo_81695" data-name="Grupo 81695">
              <g id="Grupo_81694" data-name="Grupo 81694">
                <g id="Grupo_81693" data-name="Grupo 81693">
                  <g id="Grupo_81692" data-name="Grupo 81692">
                    <path id="Trazado_116699" data-name="Trazado 116699" d="M514.578,303.685c3.445,24.442,6.477,50.267,3.992,74.924-.058.577.812.573.87,0,2.492-24.733-.567-50.64-4.023-75.164-.081-.572-.919-.329-.839.24Z" fill="#192c47"/>
                  </g>
                </g>
              </g>
            </g>
          </g>
        </g>
      </g>
    </g>
    <g id="Grupo_81701" data-name="Grupo 81701" transform="translate(-8456.075 -6552.014)">
      <g id="Grupo_81700" data-name="Grupo 81700">
        <path id="Trazado_116700" data-name="Trazado 116700" d="M494.886,267.622c1.989-6.613,11.571-6.954,19.365-5.729,5.253.827,8.214,4.412,8.223,10.882.006,4.242.349,22.1-2.216,27.135,0,0-8.776,6.731-29.024-1.39C491.234,298.52,490.637,281.756,494.886,267.622Z" fill="#90b3dd"/>
      </g>
    </g>
    <g id="Grupo_81703" data-name="Grupo 81703" transform="translate(-8456.075 -6552.014)">
      <g id="Grupo_81702" data-name="Grupo 81702">
        <path id="Trazado_116701" data-name="Trazado 116701" d="M521.319,301.41s-18.977,3.818-30.843-2.06l.81-3.139a57.555,57.555,0,0,0,29.732,1.594Z" fill="#192c47"/>
      </g>
    </g>
    <g id="Grupo_81709" data-name="Grupo 81709" transform="translate(-8456.075 -6552.014)">
      <g id="Grupo_81708" data-name="Grupo 81708">
        <g id="Grupo_81707" data-name="Grupo 81707">
          <g id="Grupo_81706" data-name="Grupo 81706">
            <g id="Grupo_81705" data-name="Grupo 81705">
              <g id="Grupo_81704" data-name="Grupo 81704">
                <path id="Trazado_116702" data-name="Trazado 116702" d="M511.874,298.225h-1.689l-.4,5.249h2.781Z" fill="#2f4463"/>
              </g>
            </g>
          </g>
        </g>
      </g>
    </g>
    <g id="Grupo_81715" data-name="Grupo 81715" transform="translate(-8456.075 -6552.014)">
      <g id="Grupo_81714" data-name="Grupo 81714">
        <g id="Grupo_81713" data-name="Grupo 81713">
          <g id="Grupo_81712" data-name="Grupo 81712">
            <g id="Grupo_81711" data-name="Grupo 81711">
              <g id="Grupo_81710" data-name="Grupo 81710">
                <path id="Trazado_116703" data-name="Trazado 116703" d="M500.092,297.619l-1.222-.4-2.092,4.814,2.51.817Z" fill="#2f4463"/>
              </g>
            </g>
          </g>
        </g>
      </g>
    </g>
    <g id="Grupo_81716" data-name="Grupo 81716" transform="translate(-8456.075 -6552.014)">
      <path id="Trazado_116704" data-name="Trazado 116704" d="M508.21,266.624l3.706,4.732,5.367-8.912a23.889,23.889,0,0,0-5.935-.869C509.013,261.7,508.21,266.624,508.21,266.624Z" fill="#6590c4"/>
    </g>
    <g id="Grupo_81717" data-name="Grupo 81717" transform="translate(-8456.075 -6552.014)">
      <path id="Trazado_116705" data-name="Trazado 116705" d="M508.348,266.753l-4.585,3.886-3.251-8.312s1.244-.992,5.784-1.152C508.633,261.092,508.348,266.753,508.348,266.753Z" fill="#6590c4"/>
    </g>
    <g id="Grupo_81813" data-name="Grupo 81813" transform="translate(-8456.075 -6552.014)">
      <g id="Grupo_81726" data-name="Grupo 81726">
        <g id="Grupo_81725" data-name="Grupo 81725">
          <g id="Grupo_81724" data-name="Grupo 81724">
            <g id="Grupo_81723" data-name="Grupo 81723">
              <g id="Grupo_81722" data-name="Grupo 81722">
                <g id="Grupo_81721" data-name="Grupo 81721">
                  <g id="Grupo_81720" data-name="Grupo 81720">
                    <g id="Grupo_81719" data-name="Grupo 81719">
                      <g id="Grupo_81718" data-name="Grupo 81718">
                        <path id="Trazado_116706" data-name="Trazado 116706" d="M513.738,254.048s-8.026,1.791-7.58,2.472-.334,2.053-.354,3.381a7.672,7.672,0,0,1-2.183,4.423c-.865,1.018.672,2.236,2.04,2.5,5.892,1.151,9.612-1.136,8.366-3.117C511.228,259.26,513.738,254.048,513.738,254.048Z" fill="#e9b79c"/>
                      </g>
                    </g>
                  </g>
                </g>
              </g>
            </g>
          </g>
        </g>
      </g>
      <g id="Grupo_81737" data-name="Grupo 81737">
        <g id="Grupo_81736" data-name="Grupo 81736">
          <g id="Grupo_81735" data-name="Grupo 81735">
            <g id="Grupo_81734" data-name="Grupo 81734">
              <g id="Grupo_81733" data-name="Grupo 81733">
                <g id="Grupo_81732" data-name="Grupo 81732">
                  <g id="Grupo_81731" data-name="Grupo 81731">
                    <g id="Grupo_81730" data-name="Grupo 81730">
                      <g id="Grupo_81729" data-name="Grupo 81729">
                        <g id="Grupo_81728" data-name="Grupo 81728">
                          <g id="Grupo_81727" data-name="Grupo 81727">
                            <path id="Trazado_116707" data-name="Trazado 116707" d="M505.8,259.9c.02-1.328.8-2.7.354-3.381s8.213-2.611,8.213-2.611a6.579,6.579,0,0,0-1.539,3.495,23.993,23.993,0,0,1-7.508,4.381A5.378,5.378,0,0,0,505.8,259.9Z" fill="#c58063"/>
                          </g>
                        </g>
                      </g>
                    </g>
                  </g>
                </g>
              </g>
            </g>
          </g>
        </g>
      </g>
      <g id="Grupo_81751" data-name="Grupo 81751">
        <g id="Grupo_81750" data-name="Grupo 81750">
          <g id="Grupo_81749" data-name="Grupo 81749">
            <g id="Grupo_81748" data-name="Grupo 81748">
              <g id="Grupo_81747" data-name="Grupo 81747">
                <g id="Grupo_81746" data-name="Grupo 81746">
                  <g id="Grupo_81745" data-name="Grupo 81745">
                    <g id="Grupo_81744" data-name="Grupo 81744">
                      <g id="Grupo_81743" data-name="Grupo 81743">
                        <g id="Grupo_81742" data-name="Grupo 81742">
                          <g id="Grupo_81741" data-name="Grupo 81741">
                            <g id="Grupo_81740" data-name="Grupo 81740">
                              <g id="Grupo_81739" data-name="Grupo 81739">
                                <g id="Grupo_81738" data-name="Grupo 81738">
                                  <path id="Trazado_116708" data-name="Trazado 116708" d="M505.4,243.079c-3.372,2.646-6.248,11.784-2.719,16.137,1.938,2.391,8.988-.149,12.3-5.352a11.636,11.636,0,0,0-.277-8.768C513.913,243.184,508.91,240.328,505.4,243.079Z" fill="#e9b79c"/>
                                </g>
                              </g>
                            </g>
                          </g>
                        </g>
                      </g>
                    </g>
                  </g>
                </g>
              </g>
            </g>
          </g>
        </g>
      </g>
      <g id="Grupo_81753" data-name="Grupo 81753">
        <g id="Grupo_81752" data-name="Grupo 81752">
          <path id="Trazado_116709" data-name="Trazado 116709" d="M501.511,250.274c.005.561.758-5.527,4.054-5.94,1.34-.168,1.039,1.3,2.6,1.418,1.328.1,5.31-2.673,3.777,5.544-.073.395.287.859.462,1.215.217.436-.459,1.435-.449,1.926.01.474,1.38-.979,1.353-.507-.044.755-.562,1.427-.623,2.188-.111,1.391,1.046.611,1.511-.047l1.912-2.705a4.173,4.173,0,0,0,.758-1.434c.055-.228.225-1.356.416-1.431.393-.153.4-1.2.823-1.152,0-1.207.28-1.434-.149-2.562a5.827,5.827,0,0,0-2.172-2.824,7.976,7.976,0,0,0,1.356.013.314.314,0,0,0,.212-.072c.1-.107.017-.282-.072-.4a10.728,10.728,0,0,0-2.327-2.25c-.534-.379-2.051-1.494-2.764-1.2a1.4,1.4,0,0,0,.656-.556,24.236,24.236,0,0,0-5.585.291,9.088,9.088,0,0,0,.923-1.472,8.04,8.04,0,0,0-4.192,2.355,5.852,5.852,0,0,0-1.318,4.823c.046.385-.1.443-.253.717a6.22,6.22,0,0,0-.453,1.242A9.663,9.663,0,0,0,501.511,250.274Z" fill="#302e3b"/>
        </g>
      </g>
      <g id="Grupo_81764" data-name="Grupo 81764">
        <g id="Grupo_81763" data-name="Grupo 81763">
          <g id="Grupo_81762" data-name="Grupo 81762">
            <g id="Grupo_81761" data-name="Grupo 81761">
              <g id="Grupo_81760" data-name="Grupo 81760">
                <g id="Grupo_81759" data-name="Grupo 81759">
                  <g id="Grupo_81758" data-name="Grupo 81758">
                    <g id="Grupo_81757" data-name="Grupo 81757">
                      <g id="Grupo_81756" data-name="Grupo 81756">
                        <g id="Grupo_81755" data-name="Grupo 81755">
                          <g id="Grupo_81754" data-name="Grupo 81754">
                            <path id="Trazado_116710" data-name="Trazado 116710" d="M511.113,253.336s2.435-2.225,3.777-1.584-.542,4.439-3.314,3.914S510.365,253.937,511.113,253.336Z" fill="#e9b79c"/>
                          </g>
                        </g>
                      </g>
                    </g>
                  </g>
                </g>
              </g>
            </g>
          </g>
        </g>
      </g>
    </g>
    <g id="Grupo_81814" data-name="Grupo 81814" transform="translate(-8456.075 -6552.014)">
      <path id="Trazado_116717" data-name="Trazado 116717" d="M504.33,261.785l-3.258,1.974,2.691,6.88,4.448-3.5Z" fill="#6590c4"/>
    </g>
    <g id="Grupo_81815" data-name="Grupo 81815" transform="translate(-8456.075 -6552.014)">
      <path id="Trazado_116718" data-name="Trazado 116718" d="M514.074,262.806l2,1.644-4.149,6.964-3.715-4.278Z" fill="#6590c4"/>
    </g>
    <g id="Grupo_81816" data-name="Grupo 81816" transform="translate(-8456.075 -6552.014)">
      <path id="Trazado_116719" data-name="Trazado 116719" d="M508.21,267.137l1.858,2.139-2.126,2.495-2.057-2.8Z" fill="#2f4463"/>
    </g>
    <g id="Grupo_81817" data-name="Grupo 81817" transform="translate(-8456.075 -6552.014)">
      <path id="Trazado_116720" data-name="Trazado 116720" d="M509.005,270.523l2.173,16.672-4.329,5.742-3.894-6.373,3.894-16.283Z" fill="#2f4463"/>
    </g>
    <g id="Grupo_81818" data-name="Grupo 81818" transform="translate(-8456.075 -6552.014)">
      <rect id="Rectángulo_34239" data-name="Rectángulo 34239" width="7.138" height="4.935" transform="translate(508.039 303.392) rotate(-176.192)" fill="#a1c3e5"/>
    </g>
    <g id="Grupo_81819" data-name="Grupo 81819" transform="translate(-8456.075 -6552.014)">
      <rect id="Rectángulo_34240" data-name="Rectángulo 34240" width="5.412" height="3.131" transform="translate(507.218 302.591) rotate(-176.192)" fill="#192c47"/>
    </g>
    <g id="Grupo_81820" data-name="Grupo 81820" transform="translate(-8456.075 -6552.014)">
      <path id="Trazado_116721" data-name="Trazado 116721" d="M517.493,276.442h-5.845s-.469,5.057,1.573,5.877S517.947,282.454,517.493,276.442Z" fill="#6590c4"/>
    </g>
    <g id="Grupo_81821" data-name="Grupo 81821" transform="translate(-8456.075 -6552.014)">
      <path id="Trazado_116722" data-name="Trazado 116722" d="M502.2,275.707h-5.845s-.47,5.057,1.572,5.877S502.657,281.719,502.2,275.707Z" fill="#6590c4"/>
    </g>
    <g id="Grupo_81831" data-name="Grupo 81831" transform="translate(-8456.075 -6552.014)">
      <g id="Grupo_81822" data-name="Grupo 81822">
        <rect id="Rectángulo_34241" data-name="Rectángulo 34241" width="12.065" height="2.842" rx="1.172" transform="matrix(0.149, -0.989, 0.989, 0.149, 489.124, 302.256)" fill="#302e3b"/>
      </g>
      <g id="Grupo_81823" data-name="Grupo 81823">
        <rect id="Rectángulo_34242" data-name="Rectángulo 34242" width="22.606" height="2.165" rx="0.892" transform="translate(486.361 322.809) rotate(-81.407)" fill="#302e3b"/>
      </g>
      <g id="Grupo_81830" data-name="Grupo 81830">
        <g id="Grupo_81824" data-name="Grupo 81824">
          <path id="Trazado_116723" data-name="Trazado 116723" d="M489.223,303.866l1.817,2.464-.265,1.752-1.817-2.464Z" fill="#a1c3e5"/>
        </g>
        <g id="Grupo_81825" data-name="Grupo 81825">
          <path id="Trazado_116724" data-name="Trazado 116724" d="M488.763,306.908l1.817,2.464-.265,1.753L488.5,308.66Z" fill="#a1c3e5"/>
        </g>
        <g id="Grupo_81826" data-name="Grupo 81826">
          <path id="Trazado_116725" data-name="Trazado 116725" d="M488.253,310.287l1.817,2.464L489.8,314.5l-1.817-2.464Z" fill="#a1c3e5"/>
        </g>
        <g id="Grupo_81827" data-name="Grupo 81827">
          <path id="Trazado_116726" data-name="Trazado 116726" d="M487.793,313.329l1.817,2.464-.265,1.752-1.817-2.464Z" fill="#a1c3e5"/>
        </g>
        <g id="Grupo_81828" data-name="Grupo 81828">
          <path id="Trazado_116727" data-name="Trazado 116727" d="M487.283,316.709l1.817,2.464-.265,1.753-1.817-2.464Z" fill="#a1c3e5"/>
        </g>
        <g id="Grupo_81829" data-name="Grupo 81829">
          <path id="Trazado_116728" data-name="Trazado 116728" d="M486.823,319.75l1.817,2.464-.088.58a.343.343,0,0,1-.389.287l-.5-.075-1.109-1.5Z" fill="#a1c3e5"/>
        </g>
      </g>
    </g>
    <g id="Grupo_81836" data-name="Grupo 81836" transform="translate(-8456.075 -6552.014)">
      <g id="Grupo_81832" data-name="Grupo 81832">
        <rect id="Rectángulo_34243" data-name="Rectángulo 34243" width="4.922" height="9.107" rx="0.503" transform="translate(518.998 305.821) rotate(172.138)" fill="#302e3b"/>
      </g>
      <g id="Grupo_81833" data-name="Grupo 81833">
        <rect id="Rectángulo_34244" data-name="Rectángulo 34244" width="0.473" height="5.396" rx="0.048" transform="translate(514.663 298.995) rotate(172.137)" fill="#302e3b"/>
      </g>
      <g id="Grupo_81834" data-name="Grupo 81834">
        <circle id="Elipse_4839" data-name="Elipse 4839" cx="1.694" cy="1.694" r="1.694" transform="translate(514.011 298.275)" fill="#4a4956"/>
      </g>
      <g id="Grupo_81835" data-name="Grupo 81835">
        <rect id="Rectángulo_34245" data-name="Rectángulo 34245" width="3.388" height="0.284" transform="matrix(-0.991, 0.137, -0.137, -0.991, 517.705, 302.063)" fill="#4a4956"/>
      </g>
    </g>
    <g id="Grupo_81840" data-name="Grupo 81840" transform="translate(-8456.075 -6552.014)">
      <g id="Grupo_81837" data-name="Grupo 81837">
        <path id="Trazado_116729" data-name="Trazado 116729" d="M518.016,249.541s4.353-3.235,1.379-6.518c-3.015-3.326-8.724-8.136-12.049-7.788s-7.538,5.767-4.995,9.351Z" fill="#192c47"/>
      </g>
      <g id="Grupo_81838" data-name="Grupo 81838">
        <path id="Trazado_116730" data-name="Trazado 116730" d="M514.162,247.086s-4.1,3.948-9.511,2.955-9.348-3.049-1.823-6.061S514.162,247.086,514.162,247.086Z" fill="#192c47"/>
      </g>
      <g id="Grupo_81839" data-name="Grupo 81839">
        <path id="Trazado_116731" data-name="Trazado 116731" d="M518.016,249.541l-16.045-5.2-.358-1.538Z" fill="#142438"/>
      </g>
    </g>
    <g id="Grupo_81843" data-name="Grupo 81843" transform="translate(-8456.075 -6552.014)">
      <g id="Grupo_81841" data-name="Grupo 81841">
        <path id="Trazado_116732" data-name="Trazado 116732" d="M508.9,239.917s-1.154,4.842-3.918,3.382c-2.709-1.431.624-5.134.624-5.134a1.671,1.671,0,0,0,2.245-.206S507.774,239.449,508.9,239.917Z" fill="#ffaa3b"/>
      </g>
      <g id="Grupo_81842" data-name="Grupo 81842">
        <path id="Trazado_116733" data-name="Trazado 116733" d="M507.04,239.459l-.79.568-.916-.329.3.927-.6.769.973,0,.548.8.305-.924.934-.272-.784-.576Z" fill="#e88813"/>
      </g>
    </g>
    <g id="Grupo_81846" data-name="Grupo 81846" transform="translate(-8456.075 -6552.014)">
      <g id="Grupo_81845" data-name="Grupo 81845">
        <g id="Grupo_81844" data-name="Grupo 81844">
          <path id="Trazado_116734" data-name="Trazado 116734" d="M494.825,279.522H477.408l10.908,16.943h16.427Z" fill="#8fa1d3"/>
        </g>
      </g>
    </g>
    <g id="Grupo_81876" data-name="Grupo 81876" transform="translate(-8456.075 -6552.014)">
      <g id="Grupo_81852" data-name="Grupo 81852">
        <g id="Grupo_81851" data-name="Grupo 81851">
          <g id="Grupo_81850" data-name="Grupo 81850">
            <g id="Grupo_81849" data-name="Grupo 81849">
              <g id="Grupo_81848" data-name="Grupo 81848">
                <g id="Grupo_81847" data-name="Grupo 81847">
                  <path id="Trazado_116735" data-name="Trazado 116735" d="M522.612,294.052s5.038-11.009,2.925-16.939-7.225-5.351-7.225-5.351,1.513,14.62-1.864,20.532S522.612,294.052,522.612,294.052Z" fill="#ffbe9e"/>
                </g>
              </g>
            </g>
          </g>
        </g>
      </g>
      <g id="Grupo_81858" data-name="Grupo 81858">
        <g id="Grupo_81857" data-name="Grupo 81857">
          <g id="Grupo_81856" data-name="Grupo 81856">
            <g id="Grupo_81855" data-name="Grupo 81855">
              <g id="Grupo_81854" data-name="Grupo 81854">
                <g id="Grupo_81853" data-name="Grupo 81853">
                  <path id="Trazado_116736" data-name="Trazado 116736" d="M518.191,263.3c9.321.863,8.872,21.08,8.872,21.08l-10.038,1.09S512.85,262.806,518.191,263.3Z" fill="#90b3dd"/>
                </g>
              </g>
            </g>
          </g>
        </g>
      </g>
      <g id="Grupo_81870" data-name="Grupo 81870">
        <g id="Grupo_81869" data-name="Grupo 81869">
          <g id="Grupo_81868" data-name="Grupo 81868">
            <g id="Grupo_81867" data-name="Grupo 81867">
              <g id="Grupo_81866" data-name="Grupo 81866">
                <g id="Grupo_81865" data-name="Grupo 81865">
                  <g id="Grupo_81864" data-name="Grupo 81864">
                    <g id="Grupo_81863" data-name="Grupo 81863">
                      <g id="Grupo_81862" data-name="Grupo 81862">
                        <g id="Grupo_81861" data-name="Grupo 81861">
                          <g id="Grupo_81860" data-name="Grupo 81860">
                            <g id="Grupo_81859" data-name="Grupo 81859">
                              <path id="Trazado_116737" data-name="Trazado 116737" d="M520.691,295.37c-4.8,1.5-18.115.635-18.115.635l2.158-3.273,16.208-3.864S525.58,293.842,520.691,295.37Z" fill="#ffbe9e"/>
                            </g>
                          </g>
                        </g>
                      </g>
                    </g>
                  </g>
                </g>
              </g>
            </g>
          </g>
        </g>
      </g>
      <g id="Grupo_81875" data-name="Grupo 81875">
        <g id="Grupo_81874" data-name="Grupo 81874">
          <g id="Grupo_81873" data-name="Grupo 81873">
            <g id="Grupo_81872" data-name="Grupo 81872">
              <g id="Grupo_81871" data-name="Grupo 81871">
                <path id="Trazado_116738" data-name="Trazado 116738" d="M505.189,292.2a5.686,5.686,0,0,1-.739-1.12,7.141,7.141,0,0,0-1.823-1.659c-.374-.266-.847-1.266-1.412-1.093-.926.282.315,1.73.468,2.136a.955.955,0,0,1-.2,1.094,1.194,1.194,0,0,1-.755.165,23.988,23.988,0,0,1-2.492-.283c-.432-.055-.86-.08-1.294-.109a4.676,4.676,0,0,0-1.061-.115.446.446,0,0,0-.356.577c.1.232.347.187.555.238.466.116.929.244,1.392.377.1.029.582.1.627.2.22.528-1.07.366-1.275.35a2.566,2.566,0,0,0-1.527.206.237.237,0,0,0-.134.154c-.015.111.107.188.212.226.619.228,1.3.224,1.918.466.1.04.211.1.224.21.049.428-.812.5-1.092.546-.177.029-.394.084-.433.259a.3.3,0,0,0,.146.3.9.9,0,0,0,.333.105,8.693,8.693,0,0,0,1.036.166c.166.007.66-.014.7.211a.155.155,0,0,1-.043.123.883.883,0,0,1-.428.22c-.154.055-.319.159-.332.322-.016.2.205.334.4.394a7.5,7.5,0,0,0,2.183.181c.768,0,1.536-.031,2.3-.1a25.5,25.5,0,0,0,3.026-.452,4,4,0,0,0,2.43-1.194,4.561,4.561,0,0,0,.708-1.674,1.381,1.381,0,0,0-.222-.99.3.3,0,0,0-.1-.1.325.325,0,0,0-.178-.013,9.592,9.592,0,0,1-1.382.123A2.388,2.388,0,0,1,505.189,292.2Z" fill="#ffbe9e"/>
              </g>
            </g>
          </g>
        </g>
      </g>
    </g>
    <g id="Grupo_81881" data-name="Grupo 81881" transform="translate(-8456.075 -6552.014)">
      <g id="Grupo_81880" data-name="Grupo 81880">
        <g id="Grupo_81879" data-name="Grupo 81879">
          <g id="Grupo_81878" data-name="Grupo 81878">
            <g id="Grupo_81877" data-name="Grupo 81877">
              <path id="Trazado_116739" data-name="Trazado 116739" d="M482.693,288.963c.4-.223.98-1.166,1.523-.933.89.381-.5,1.686-.7,2.072a.958.958,0,0,0,.083,1.11,1.2,1.2,0,0,0,.733.246,24.4,24.4,0,0,0,2.508-.01c.435-.008.864.013,1.3.032a4.641,4.641,0,0,1,1.067,0,.444.444,0,0,1,.292.611c-.127.22-.365.149-.577.177-.477.065-.951.142-1.425.223-.1.018-.589.032-.646.136-.276.5,1.024.479,1.23.485a2.571,2.571,0,0,1,1.495.371.238.238,0,0,1,.116.168c0,.112-.126.175-.235.2-.639.159-1.322.081-1.957.255-.1.028-.221.079-.245.184-.1.42.753.584,1.026.661.172.049.382.127.4.3a.3.3,0,0,1-.178.279.859.859,0,0,1-.342.068,8.539,8.539,0,0,1-1.047.053c-.166-.011-.655-.086-.717.134a.159.159,0,0,0,.028.127.886.886,0,0,0,.4.265c.147.071.3.193.294.356-.006.2-.24.31-.438.348a7.513,7.513,0,0,1-2.189-.056,6.348,6.348,0,0,1-2.322-.75C478.366,293.9,481.973,289.364,482.693,288.963Z" fill="#ffbe9e"/>
            </g>
          </g>
        </g>
      </g>
    </g>
    <g id="Trazado_119174" data-name="Trazado 119174" transform="translate(-16694.863 -17927.574)" fill="#fff">
      <path d="M 8463.1962890625 11737.322265625 L 8384 11737.322265625 C 8379.8642578125 11737.322265625 8376.5 11733.9580078125 8376.5 11729.822265625 L 8376.5 11708 C 8376.5 11703.8642578125 8379.8642578125 11700.5 8384 11700.5 L 8463.1962890625 11700.5 C 8467.33203125 11700.5 8470.6962890625 11703.8642578125 8470.6962890625 11708 L 8470.6962890625 11729.822265625 C 8470.6962890625 11733.9580078125 8467.33203125 11737.322265625 8463.1962890625 11737.322265625 Z" stroke="none"/>
      <path d="M 8384 11701 C 8380.140625 11701 8377 11704.140625 8377 11708 L 8377 11729.822265625 C 8377 11733.681640625 8380.140625 11736.822265625 8384 11736.822265625 L 8463.1962890625 11736.822265625 C 8467.0556640625 11736.822265625 8470.1962890625 11733.681640625 8470.1962890625 11729.822265625 L 8470.1962890625 11708 C 8470.1962890625 11704.140625 8467.0556640625 11701 8463.1962890625 11701 L 8384 11701 M 8384 11700 L 8463.1962890625 11700 C 8467.6142578125 11700 8471.1962890625 11703.58203125 8471.1962890625 11708 L 8471.1962890625 11729.822265625 C 8471.1962890625 11734.240234375 8467.6142578125 11737.822265625 8463.1962890625 11737.822265625 L 8384 11737.822265625 C 8379.58203125 11737.822265625 8376 11734.240234375 8376 11729.822265625 L 8376 11708 C 8376 11703.58203125 8379.58203125 11700 8384 11700 Z" stroke="none" fill="#f88f05"/>
    </g>
    <path id="Trazado_119176" data-name="Trazado 119176" d="M3.359,10.992V15H1.016V3.625H5.453a5.134,5.134,0,0,1,2.254.469A3.454,3.454,0,0,1,9.2,5.426a3.714,3.714,0,0,1,.523,1.965,3.266,3.266,0,0,1-1.145,2.637,4.767,4.767,0,0,1-3.168.965Zm0-1.9H5.453a2.059,2.059,0,0,0,1.418-.437,1.591,1.591,0,0,0,.488-1.25,1.876,1.876,0,0,0-.492-1.352,1.839,1.839,0,0,0-1.359-.531H3.359Zm11.617,6.063a4.15,4.15,0,0,1-3.027-1.141,4.054,4.054,0,0,1-1.168-3.039v-.219a5.106,5.106,0,0,1,.492-2.277,3.612,3.612,0,0,1,1.395-1.547,3.914,3.914,0,0,1,2.059-.543,3.508,3.508,0,0,1,2.73,1.094,4.444,4.444,0,0,1,1,3.1v.922H13.07a2.1,2.1,0,0,0,.66,1.328,2,2,0,0,0,1.395.5,2.437,2.437,0,0,0,2.039-.945l1.109,1.242A3.389,3.389,0,0,1,16.9,14.754,4.511,4.511,0,0,1,14.977,15.156Zm-.258-6.945a1.411,1.411,0,0,0-1.09.455,2.357,2.357,0,0,0-.535,1.3h3.141V9.788a1.681,1.681,0,0,0-.406-1.165A1.456,1.456,0,0,0,14.719,8.211ZM24.633,15a2.507,2.507,0,0,1-.227-.758,2.732,2.732,0,0,1-2.133.914,3,3,0,0,1-2.059-.719,2.312,2.312,0,0,1-.816-1.812,2.389,2.389,0,0,1,1-2.062,4.915,4.915,0,0,1,2.879-.727h1.039V9.352a1.393,1.393,0,0,0-.3-.937,1.183,1.183,0,0,0-.949-.352,1.345,1.345,0,0,0-.895.273.929.929,0,0,0-.324.75H19.586a2.268,2.268,0,0,1,.453-1.359,3,3,0,0,1,1.281-.98,4.669,4.669,0,0,1,1.859-.355,3.689,3.689,0,0,1,2.48.785,2.747,2.747,0,0,1,.918,2.207v3.664a4.041,4.041,0,0,0,.336,1.82V15Zm-1.867-1.57a1.945,1.945,0,0,0,.922-.223,1.462,1.462,0,0,0,.625-.6V11.156h-.844q-1.7,0-1.8,1.172l-.008.133a.9.9,0,0,0,.3.7A1.153,1.153,0,0,0,22.766,13.43Zm8.25-8.961V6.547h1.445V8.2H31.016v4.219a1.007,1.007,0,0,0,.18.672.9.9,0,0,0,.688.2,3.6,3.6,0,0,0,.664-.055v1.711a4.648,4.648,0,0,1-1.367.2,2.156,2.156,0,0,1-2.422-2.4V8.2H27.523V6.547h1.234V4.469ZM33.133,10.7a5.013,5.013,0,0,1,.484-2.242A3.546,3.546,0,0,1,35.012,6.93a4.069,4.069,0,0,1,2.113-.539,3.849,3.849,0,0,1,2.793,1.047,4.2,4.2,0,0,1,1.207,2.844l.016.578a4.418,4.418,0,0,1-1.086,3.121,4.209,4.209,0,0,1-5.832,0,4.5,4.5,0,0,1-1.09-3.187Zm2.258.16a3.16,3.16,0,0,0,.453,1.843,1.628,1.628,0,0,0,2.578.008,3.457,3.457,0,0,0,.461-2.015,3.128,3.128,0,0,0-.461-1.831,1.5,1.5,0,0,0-1.3-.649,1.474,1.474,0,0,0-1.281.646A3.516,3.516,0,0,0,35.391,10.856Zm9.219-4.309.07.977a2.951,2.951,0,0,1,2.43-1.133,2.453,2.453,0,0,1,2,.789,3.682,3.682,0,0,1,.672,2.359V15H47.523V9.581a1.47,1.47,0,0,0-.312-1.045,1.4,1.4,0,0,0-1.039-.325,1.553,1.553,0,0,0-1.43.814V15H42.484V6.547Zm10.773,8.609a4.15,4.15,0,0,1-3.027-1.141,4.054,4.054,0,0,1-1.168-3.039v-.219A5.106,5.106,0,0,1,51.68,8.48a3.612,3.612,0,0,1,1.395-1.547,3.914,3.914,0,0,1,2.059-.543,3.508,3.508,0,0,1,2.73,1.094,4.444,4.444,0,0,1,1,3.1v.922H53.477a2.1,2.1,0,0,0,.66,1.328,2,2,0,0,0,1.395.5,2.437,2.437,0,0,0,2.039-.945l1.109,1.242A3.389,3.389,0,0,1,57.3,14.754,4.511,4.511,0,0,1,55.383,15.156Zm-.258-6.945a1.411,1.411,0,0,0-1.09.455,2.357,2.357,0,0,0-.535,1.3h3.141V9.788a1.681,1.681,0,0,0-.406-1.165A1.456,1.456,0,0,0,55.125,8.211Zm9.594,4.453a.727.727,0,0,0-.41-.652,4.659,4.659,0,0,0-1.316-.426q-3.016-.633-3.016-2.562a2.323,2.323,0,0,1,.934-1.879,3.766,3.766,0,0,1,2.441-.754,4.053,4.053,0,0,1,2.574.758,2.388,2.388,0,0,1,.965,1.969H64.633a1.092,1.092,0,0,0-.312-.8A1.322,1.322,0,0,0,63.344,8a1.351,1.351,0,0,0-.883.258.814.814,0,0,0-.312.656.7.7,0,0,0,.355.605,3.657,3.657,0,0,0,1.2.4,9.8,9.8,0,0,1,1.422.379,2.336,2.336,0,0,1,1.789,2.273,2.2,2.2,0,0,1-.992,1.871,4.28,4.28,0,0,1-2.562.715,4.47,4.47,0,0,1-1.887-.379,3.166,3.166,0,0,1-1.293-1.039,2.414,2.414,0,0,1-.469-1.426h2.141a1.179,1.179,0,0,0,.445.922,1.766,1.766,0,0,0,1.109.32,1.635,1.635,0,0,0,.98-.246A.766.766,0,0,0,64.719,12.664Z" transform="translate(-8306.861 -6218.574)" fill="#12263f"/>
    <g id="Trazado_119175" data-name="Trazado 119175" transform="translate(-16364.314 -17927.574)" fill="#fff">
      <path d="M 8556.294921875 11737.322265625 L 8384 11737.322265625 C 8379.8642578125 11737.322265625 8376.5 11733.9580078125 8376.5 11729.822265625 L 8376.5 11708 C 8376.5 11703.8642578125 8379.8642578125 11700.5 8384 11700.5 L 8556.294921875 11700.5 C 8560.4306640625 11700.5 8563.794921875 11703.8642578125 8563.794921875 11708 L 8563.794921875 11729.822265625 C 8563.794921875 11733.9580078125 8560.4306640625 11737.322265625 8556.294921875 11737.322265625 Z" stroke="none"/>
      <path d="M 8384 11701 C 8380.140625 11701 8377 11704.140625 8377 11708 L 8377 11729.822265625 C 8377 11733.681640625 8380.140625 11736.822265625 8384 11736.822265625 L 8556.294921875 11736.822265625 C 8560.154296875 11736.822265625 8563.294921875 11733.681640625 8563.294921875 11729.822265625 L 8563.294921875 11708 C 8563.294921875 11704.140625 8560.154296875 11701 8556.294921875 11701 L 8384 11701 M 8384 11700 L 8556.294921875 11700 C 8560.712890625 11700 8564.294921875 11703.58203125 8564.294921875 11708 L 8564.294921875 11729.822265625 C 8564.294921875 11734.240234375 8560.712890625 11737.822265625 8556.294921875 11737.822265625 L 8384 11737.822265625 C 8379.58203125 11737.822265625 8376 11734.240234375 8376 11729.822265625 L 8376 11708 C 8376 11703.58203125 8379.58203125 11700 8384 11700 Z" stroke="none" fill="#f88f05"/>
    </g>
    <path id="Trazado_119177" data-name="Trazado 119177" d="M7.438,12.656H3.328L2.547,15H.055L4.289,3.625H6.461L10.719,15H8.227Zm-3.477-1.9H6.8L5.375,6.5Zm12.648,3.383A2.831,2.831,0,0,1,14.3,15.156a2.67,2.67,0,0,1-2.074-.781,3.335,3.335,0,0,1-.73-2.289V6.547H13.75v5.467q0,1.322,1.2,1.322a1.63,1.63,0,0,0,1.578-.8V6.547H18.8V15H16.672ZM23.2,4.469V6.547h1.445V8.2H23.2v4.219a1.007,1.007,0,0,0,.18.672.9.9,0,0,0,.688.2,3.6,3.6,0,0,0,.664-.055v1.711a4.648,4.648,0,0,1-1.367.2,2.156,2.156,0,0,1-2.422-2.4V8.2H19.711V6.547h1.234V4.469ZM25.32,10.7A5.013,5.013,0,0,1,25.8,8.453,3.546,3.546,0,0,1,27.2,6.93a4.069,4.069,0,0,1,2.113-.539,3.849,3.849,0,0,1,2.793,1.047,4.2,4.2,0,0,1,1.207,2.844l.016.578a4.418,4.418,0,0,1-1.086,3.121,3.775,3.775,0,0,1-2.914,1.176,3.793,3.793,0,0,1-2.918-1.172A4.5,4.5,0,0,1,25.32,10.8Zm2.258.16a3.16,3.16,0,0,0,.453,1.843,1.628,1.628,0,0,0,2.578.008,3.457,3.457,0,0,0,.461-2.015,3.128,3.128,0,0,0-.461-1.831,1.5,1.5,0,0,0-1.3-.649,1.474,1.474,0,0,0-1.281.646A3.516,3.516,0,0,0,27.578,10.856ZM39.469,8.664a6.134,6.134,0,0,0-.812-.062,1.654,1.654,0,0,0-1.68.867V15H34.719V6.547h2.133l.063,1.008A2.092,2.092,0,0,1,38.8,6.391a2.366,2.366,0,0,1,.7.1ZM42.938,15H40.672V6.547h2.266Zm-2.4-10.641a1.112,1.112,0,0,1,.34-.836,1.465,1.465,0,0,1,1.848,0,1.105,1.105,0,0,1,.344.836,1.108,1.108,0,0,1-.348.844,1.448,1.448,0,0,1-1.836,0A1.108,1.108,0,0,1,40.539,4.359Zm3.906,6.352a5.094,5.094,0,0,1,.887-3.148,2.877,2.877,0,0,1,2.426-1.172,2.589,2.589,0,0,1,2.039.922V3h2.266V15H50.023l-.109-.9a2.657,2.657,0,0,1-2.172,1.055,2.869,2.869,0,0,1-2.395-1.176A5.258,5.258,0,0,1,44.445,10.711Zm2.258.161a3.355,3.355,0,0,0,.414,1.829,1.348,1.348,0,0,0,1.2.636,1.51,1.51,0,0,0,1.477-.887V9.1a1.489,1.489,0,0,0-1.461-.887Q46.7,8.211,46.7,10.872ZM58.711,15a2.507,2.507,0,0,1-.227-.758,2.732,2.732,0,0,1-2.133.914,3,3,0,0,1-2.059-.719,2.312,2.312,0,0,1-.816-1.812,2.389,2.389,0,0,1,1-2.062,4.915,4.915,0,0,1,2.879-.727h1.039V9.352a1.393,1.393,0,0,0-.3-.937,1.183,1.183,0,0,0-.949-.352,1.345,1.345,0,0,0-.895.273.929.929,0,0,0-.324.75H53.664a2.268,2.268,0,0,1,.453-1.359,3,3,0,0,1,1.281-.98,4.669,4.669,0,0,1,1.859-.355,3.689,3.689,0,0,1,2.48.785,2.747,2.747,0,0,1,.918,2.207v3.664a4.041,4.041,0,0,0,.336,1.82V15Zm-1.867-1.57a1.945,1.945,0,0,0,.922-.223,1.462,1.462,0,0,0,.625-.6V11.156h-.844q-1.7,0-1.8,1.172l-.008.133a.9.9,0,0,0,.3.7A1.153,1.153,0,0,0,56.844,13.43Zm5.2-2.719a5.094,5.094,0,0,1,.887-3.148,2.877,2.877,0,0,1,2.426-1.172,2.589,2.589,0,0,1,2.039.922V3h2.266V15H67.617l-.109-.9a2.657,2.657,0,0,1-2.172,1.055,2.869,2.869,0,0,1-2.395-1.176A5.258,5.258,0,0,1,62.039,10.711Zm2.258.161a3.355,3.355,0,0,0,.414,1.829,1.348,1.348,0,0,0,1.2.636,1.51,1.51,0,0,0,1.477-.887V9.1a1.489,1.489,0,0,0-1.461-.887Q64.3,8.211,64.3,10.872Zm11,4.285a4.15,4.15,0,0,1-3.027-1.141A4.054,4.054,0,0,1,71.1,10.977v-.219a5.106,5.106,0,0,1,.492-2.277,3.612,3.612,0,0,1,1.395-1.547,3.914,3.914,0,0,1,2.059-.543,3.508,3.508,0,0,1,2.73,1.094,4.444,4.444,0,0,1,1,3.1v.922H73.391a2.1,2.1,0,0,0,.66,1.328,2,2,0,0,0,1.395.5,2.437,2.437,0,0,0,2.039-.945l1.109,1.242a3.389,3.389,0,0,1-1.375,1.121A4.511,4.511,0,0,1,75.3,15.156Zm-.258-6.945a1.411,1.411,0,0,0-1.09.455,2.357,2.357,0,0,0-.535,1.3h3.141V9.788a1.681,1.681,0,0,0-.406-1.165A1.456,1.456,0,0,0,75.039,8.211Zm9.594,4.453a.727.727,0,0,0-.41-.652,4.659,4.659,0,0,0-1.316-.426q-3.016-.633-3.016-2.562a2.323,2.323,0,0,1,.934-1.879,3.766,3.766,0,0,1,2.441-.754,4.053,4.053,0,0,1,2.574.758A2.388,2.388,0,0,1,86.8,9.117H84.547a1.092,1.092,0,0,0-.312-.8A1.322,1.322,0,0,0,83.258,8a1.351,1.351,0,0,0-.883.258.814.814,0,0,0-.312.656.7.7,0,0,0,.355.605,3.657,3.657,0,0,0,1.2.4,9.8,9.8,0,0,1,1.422.379,2.336,2.336,0,0,1,1.789,2.273,2.2,2.2,0,0,1-.992,1.871,4.28,4.28,0,0,1-2.562.715,4.47,4.47,0,0,1-1.887-.379,3.166,3.166,0,0,1-1.293-1.039,2.414,2.414,0,0,1-.469-1.426h2.141a1.179,1.179,0,0,0,.445.922,1.766,1.766,0,0,0,1.109.32,1.635,1.635,0,0,0,.98-.246A.766.766,0,0,0,84.633,12.664Zm7.281-1.953A5.094,5.094,0,0,1,92.8,7.563a2.877,2.877,0,0,1,2.426-1.172,2.589,2.589,0,0,1,2.039.922V3h2.266V15H97.492l-.109-.9a2.657,2.657,0,0,1-2.172,1.055,2.869,2.869,0,0,1-2.395-1.176A5.258,5.258,0,0,1,91.914,10.711Zm2.258.161a3.355,3.355,0,0,0,.414,1.829,1.348,1.348,0,0,0,1.2.636,1.51,1.51,0,0,0,1.477-.887V9.1A1.489,1.489,0,0,0,95.8,8.211Q94.172,8.211,94.172,10.872Zm11,4.285a4.15,4.15,0,0,1-3.027-1.141,4.054,4.054,0,0,1-1.168-3.039v-.219a5.106,5.106,0,0,1,.492-2.277,3.612,3.612,0,0,1,1.395-1.547,3.914,3.914,0,0,1,2.059-.543,3.508,3.508,0,0,1,2.73,1.094,4.444,4.444,0,0,1,1,3.1v.922h-5.383a2.1,2.1,0,0,0,.66,1.328,2,2,0,0,0,1.395.5,2.437,2.437,0,0,0,2.039-.945l1.109,1.242a3.389,3.389,0,0,1-1.375,1.121A4.511,4.511,0,0,1,105.172,15.156Zm-.258-6.945a1.411,1.411,0,0,0-1.09.455,2.357,2.357,0,0,0-.535,1.3h3.141V9.788a1.681,1.681,0,0,0-.406-1.165A1.456,1.456,0,0,0,104.914,8.211Zm11.7-3.742V6.547h1.445V8.2h-1.445v4.219a1.007,1.007,0,0,0,.18.672.9.9,0,0,0,.688.2,3.6,3.6,0,0,0,.664-.055v1.711a4.648,4.648,0,0,1-1.367.2,2.156,2.156,0,0,1-2.422-2.4V8.2h-1.234V6.547h1.234V4.469Zm7.453,4.2a6.134,6.134,0,0,0-.812-.062,1.654,1.654,0,0,0-1.68.867V15H119.32V6.547h2.133l.063,1.008A2.092,2.092,0,0,1,123.4,6.391a2.366,2.366,0,0,1,.7.1ZM129.82,15a2.507,2.507,0,0,1-.227-.758,2.732,2.732,0,0,1-2.133.914,3,3,0,0,1-2.059-.719,2.312,2.312,0,0,1-.816-1.812,2.389,2.389,0,0,1,1-2.062,4.915,4.915,0,0,1,2.879-.727H129.5V9.352a1.393,1.393,0,0,0-.3-.937,1.183,1.183,0,0,0-.949-.352,1.345,1.345,0,0,0-.895.273.929.929,0,0,0-.324.75h-2.258a2.268,2.268,0,0,1,.453-1.359,3,3,0,0,1,1.281-.98,4.669,4.669,0,0,1,1.859-.355,3.689,3.689,0,0,1,2.48.785,2.747,2.747,0,0,1,.918,2.207v3.664a4.041,4.041,0,0,0,.336,1.82V15Zm-1.867-1.57a1.945,1.945,0,0,0,.922-.223,1.462,1.462,0,0,0,.625-.6V11.156h-.844q-1.7,0-1.8,1.172l-.008.133a.9.9,0,0,0,.3.7A1.153,1.153,0,0,0,127.953,13.43ZM128.813,3h2.461l-2.164,2.422h-1.836Zm6.766,3.547.07.977a2.951,2.951,0,0,1,2.43-1.133,2.453,2.453,0,0,1,2,.789,3.682,3.682,0,0,1,.672,2.359V15h-2.258V9.581a1.47,1.47,0,0,0-.312-1.045,1.4,1.4,0,0,0-1.039-.325,1.553,1.553,0,0,0-1.43.814V15h-2.258V6.547Zm11.461,6.117a.727.727,0,0,0-.41-.652,4.659,4.659,0,0,0-1.316-.426q-3.016-.633-3.016-2.562a2.323,2.323,0,0,1,.934-1.879,3.766,3.766,0,0,1,2.441-.754,4.053,4.053,0,0,1,2.574.758,2.388,2.388,0,0,1,.965,1.969h-2.258a1.092,1.092,0,0,0-.312-.8A1.322,1.322,0,0,0,145.664,8a1.351,1.351,0,0,0-.883.258.814.814,0,0,0-.312.656.7.7,0,0,0,.355.605,3.657,3.657,0,0,0,1.2.4,9.8,9.8,0,0,1,1.422.379,2.336,2.336,0,0,1,1.789,2.273,2.205,2.205,0,0,1-.992,1.871,4.28,4.28,0,0,1-2.562.715,4.47,4.47,0,0,1-1.887-.379,3.166,3.166,0,0,1-1.293-1.039,2.414,2.414,0,0,1-.469-1.426h2.141a1.179,1.179,0,0,0,.445.922,1.766,1.766,0,0,0,1.109.32,1.635,1.635,0,0,0,.98-.246A.766.766,0,0,0,147.039,12.664ZM153.07,15H150.8V6.547h2.266Zm-2.4-10.641a1.112,1.112,0,0,1,.34-.836,1.465,1.465,0,0,1,1.848,0,1.105,1.105,0,0,1,.344.836,1.109,1.109,0,0,1-.348.844,1.448,1.448,0,0,1-1.836,0A1.109,1.109,0,0,1,150.672,4.359Zm6.961.109V6.547h1.445V8.2h-1.445v4.219a1.007,1.007,0,0,0,.18.672.9.9,0,0,0,.688.2,3.6,3.6,0,0,0,.664-.055v1.711a4.648,4.648,0,0,1-1.367.2,2.156,2.156,0,0,1-2.422-2.4V8.2h-1.234V6.547h1.234V4.469ZM159.75,10.7a5.013,5.013,0,0,1,.484-2.242,3.546,3.546,0,0,1,1.395-1.523,4.069,4.069,0,0,1,2.113-.539,3.849,3.849,0,0,1,2.793,1.047,4.2,4.2,0,0,1,1.207,2.844l.016.578a4.418,4.418,0,0,1-1.086,3.121,4.209,4.209,0,0,1-5.832,0,4.5,4.5,0,0,1-1.09-3.187Zm2.258.16a3.16,3.16,0,0,0,.453,1.843,1.628,1.628,0,0,0,2.578.008,3.457,3.457,0,0,0,.461-2.015,3.128,3.128,0,0,0-.461-1.831,1.5,1.5,0,0,0-1.3-.649,1.474,1.474,0,0,0-1.281.646A3.516,3.516,0,0,0,162.008,10.856Z" transform="translate(-7976.313 -6218.574)" fill="#12263f"/>
    <g id="Trazado_119171" data-name="Trazado 119171" transform="translate(-16516.666 -17990.074)" fill="#fff">
      <path d="M 8478.1962890625 11737.322265625 L 8384 11737.322265625 C 8379.8642578125 11737.322265625 8376.5 11733.9580078125 8376.5 11729.822265625 L 8376.5 11708 C 8376.5 11703.8642578125 8379.8642578125 11700.5 8384 11700.5 L 8478.1962890625 11700.5 C 8482.33203125 11700.5 8485.6962890625 11703.8642578125 8485.6962890625 11708 L 8485.6962890625 11729.822265625 C 8485.6962890625 11733.9580078125 8482.33203125 11737.322265625 8478.1962890625 11737.322265625 Z" stroke="none"/>
      <path d="M 8384 11701 C 8380.140625 11701 8377 11704.140625 8377 11708 L 8377 11729.822265625 C 8377 11733.681640625 8380.140625 11736.822265625 8384 11736.822265625 L 8478.1962890625 11736.822265625 C 8482.0556640625 11736.822265625 8485.1962890625 11733.681640625 8485.1962890625 11729.822265625 L 8485.1962890625 11708 C 8485.1962890625 11704.140625 8482.0556640625 11701 8478.1962890625 11701 L 8384 11701 M 8384 11700 L 8478.1962890625 11700 C 8482.6142578125 11700 8486.1962890625 11703.58203125 8486.1962890625 11708 L 8486.1962890625 11729.822265625 C 8486.1962890625 11734.240234375 8482.6142578125 11737.822265625 8478.1962890625 11737.822265625 L 8384 11737.822265625 C 8379.58203125 11737.822265625 8376 11734.240234375 8376 11729.822265625 L 8376 11708 C 8376 11703.58203125 8379.58203125 11700 8384 11700 Z" stroke="none" fill="#f88f05"/>
    </g>
    <path id="Trazado_119172" data-name="Trazado 119172" d="M9.945,11.211A4.025,4.025,0,0,1,8.59,14.1a4.76,4.76,0,0,1-3.223,1.055,4.28,4.28,0,0,1-3.441-1.473A6.038,6.038,0,0,1,.672,9.641v-.7A6.819,6.819,0,0,1,1.25,6.055,4.332,4.332,0,0,1,2.9,4.137a4.629,4.629,0,0,1,2.5-.668A4.637,4.637,0,0,1,8.57,4.523,4.326,4.326,0,0,1,9.961,7.484H7.617A2.376,2.376,0,0,0,7,5.887a2.271,2.271,0,0,0-1.605-.5,1.991,1.991,0,0,0-1.754.84,4.707,4.707,0,0,0-.6,2.605V9.7a5.038,5.038,0,0,0,.559,2.7,1.954,1.954,0,0,0,1.762.852,2.314,2.314,0,0,0,1.621-.5A2.241,2.241,0,0,0,7.6,11.211Zm1.039-.516a5.013,5.013,0,0,1,.484-2.242A3.546,3.546,0,0,1,12.863,6.93a4.069,4.069,0,0,1,2.113-.539A3.849,3.849,0,0,1,17.77,7.438a4.2,4.2,0,0,1,1.207,2.844l.016.578a4.418,4.418,0,0,1-1.086,3.121,3.775,3.775,0,0,1-2.914,1.176,3.793,3.793,0,0,1-2.918-1.172,4.5,4.5,0,0,1-1.09-3.187Zm2.258.16A3.16,3.16,0,0,0,13.7,12.7a1.628,1.628,0,0,0,2.578.008,3.457,3.457,0,0,0,.461-2.015,3.128,3.128,0,0,0-.461-1.831,1.5,1.5,0,0,0-1.3-.649,1.474,1.474,0,0,0-1.281.646A3.516,3.516,0,0,0,13.242,10.856Zm9.219-4.309.07.977a2.951,2.951,0,0,1,2.43-1.133,2.453,2.453,0,0,1,2,.789,3.682,3.682,0,0,1,.672,2.359V15H25.375V9.581a1.47,1.47,0,0,0-.312-1.045,1.4,1.4,0,0,0-1.039-.325,1.553,1.553,0,0,0-1.43.814V15H20.336V6.547Zm6.531,4.164a5.094,5.094,0,0,1,.887-3.148A2.877,2.877,0,0,1,32.3,6.391a2.589,2.589,0,0,1,2.039.922V3h2.266V15H34.57l-.109-.9a2.657,2.657,0,0,1-2.172,1.055,2.869,2.869,0,0,1-2.395-1.176A5.258,5.258,0,0,1,28.992,10.711Zm2.258.161a3.355,3.355,0,0,0,.414,1.829,1.348,1.348,0,0,0,1.2.636,1.51,1.51,0,0,0,1.477-.887V9.1a1.489,1.489,0,0,0-1.461-.887Q31.25,8.211,31.25,10.872Zm12.172,3.269a2.831,2.831,0,0,1-2.312,1.016,2.67,2.67,0,0,1-2.074-.781,3.335,3.335,0,0,1-.73-2.289V6.547h2.258v5.467q0,1.322,1.2,1.322a1.63,1.63,0,0,0,1.578-.8V6.547h2.266V15H43.484Zm7.406-.8a1.481,1.481,0,0,0,1.016-.344,1.2,1.2,0,0,0,.406-.914h2.117a2.9,2.9,0,0,1-.469,1.574,3.093,3.093,0,0,1-1.262,1.109,3.949,3.949,0,0,1-1.77.395A3.67,3.67,0,0,1,48.008,14a4.56,4.56,0,0,1-1.047-3.184v-.148A4.508,4.508,0,0,1,48,7.555a3.627,3.627,0,0,1,2.852-1.164,3.555,3.555,0,0,1,2.543.9,3.2,3.2,0,0,1,.973,2.4H52.25a1.551,1.551,0,0,0-.406-1.072,1.51,1.51,0,0,0-2.223.163,3.333,3.333,0,0,0-.4,1.866v.235a3.375,3.375,0,0,0,.4,1.878A1.377,1.377,0,0,0,50.828,13.336Zm7.531-8.867V6.547H59.8V8.2H58.359v4.219a1.007,1.007,0,0,0,.18.672.9.9,0,0,0,.688.2,3.6,3.6,0,0,0,.664-.055v1.711a4.648,4.648,0,0,1-1.367.2,2.156,2.156,0,0,1-2.422-2.4V8.2H54.867V6.547H56.1V4.469ZM60.477,10.7a5.013,5.013,0,0,1,.484-2.242A3.546,3.546,0,0,1,62.355,6.93a4.069,4.069,0,0,1,2.113-.539,3.849,3.849,0,0,1,2.793,1.047,4.2,4.2,0,0,1,1.207,2.844l.016.578A4.418,4.418,0,0,1,67.4,13.98a4.209,4.209,0,0,1-5.832,0,4.5,4.5,0,0,1-1.09-3.187Zm2.258.16a3.16,3.16,0,0,0,.453,1.843,1.628,1.628,0,0,0,2.578.008,3.457,3.457,0,0,0,.461-2.015,3.128,3.128,0,0,0-.461-1.831,1.5,1.5,0,0,0-1.3-.649,1.474,1.474,0,0,0-1.281.646A3.516,3.516,0,0,0,62.734,10.856ZM74.625,8.664a6.134,6.134,0,0,0-.812-.062,1.654,1.654,0,0,0-1.68.867V15H69.875V6.547h2.133l.063,1.008a2.092,2.092,0,0,1,1.883-1.164,2.366,2.366,0,0,1,.7.1Zm4.828,6.492a4.15,4.15,0,0,1-3.027-1.141,4.054,4.054,0,0,1-1.168-3.039v-.219A5.106,5.106,0,0,1,75.75,8.48a3.612,3.612,0,0,1,1.395-1.547A3.914,3.914,0,0,1,79.2,6.391a3.508,3.508,0,0,1,2.73,1.094,4.444,4.444,0,0,1,1,3.1v.922H77.547a2.1,2.1,0,0,0,.66,1.328,2,2,0,0,0,1.395.5,2.437,2.437,0,0,0,2.039-.945l1.109,1.242a3.389,3.389,0,0,1-1.375,1.121A4.511,4.511,0,0,1,79.453,15.156ZM79.2,8.211a1.411,1.411,0,0,0-1.09.455,2.357,2.357,0,0,0-.535,1.3h3.141V9.788A1.681,1.681,0,0,0,80.3,8.623,1.456,1.456,0,0,0,79.2,8.211Zm9.594,4.453a.727.727,0,0,0-.41-.652,4.659,4.659,0,0,0-1.316-.426q-3.016-.633-3.016-2.562a2.323,2.323,0,0,1,.934-1.879,3.766,3.766,0,0,1,2.441-.754A4.053,4.053,0,0,1,90,7.148a2.388,2.388,0,0,1,.965,1.969H88.7a1.092,1.092,0,0,0-.312-.8A1.322,1.322,0,0,0,87.414,8a1.351,1.351,0,0,0-.883.258.814.814,0,0,0-.312.656.7.7,0,0,0,.355.605,3.657,3.657,0,0,0,1.2.4A9.8,9.8,0,0,1,89.2,10.3a2.336,2.336,0,0,1,1.789,2.273,2.2,2.2,0,0,1-.992,1.871,4.28,4.28,0,0,1-2.562.715,4.47,4.47,0,0,1-1.887-.379,3.166,3.166,0,0,1-1.293-1.039,2.414,2.414,0,0,1-.469-1.426h2.141a1.179,1.179,0,0,0,.445.922,1.766,1.766,0,0,0,1.109.32,1.635,1.635,0,0,0,.98-.246A.766.766,0,0,0,88.789,12.664Z" transform="translate(-8132.715 -6281.075)" fill="#12263f"/>
    <rect id="Rectángulo_34339" data-name="Rectángulo 34339" width="5.22" height="218.519" transform="translate(-8436.601 -6421.759)" fill="#37474f"/>
    <g id="Grupo_83927" data-name="Grupo 83927" transform="translate(-8456 -6418.419)">
      <path id="Trazado_117449" data-name="Trazado 117449" d="M671.932,62.932v51.433H627.916V62.932h44.016Z" transform="translate(-627.916 -62.932)" fill="#ffc727"/>
      <path id="Trazado_117450" data-name="Trazado 117450" d="M670.407,67.2v45.7H632.388V67.2h38.019Z" transform="translate(-629.389 -64.339)" fill="none" stroke="#263238" stroke-miterlimit="10" stroke-width="1"/>
      <path id="Trazado_117451" data-name="Trazado 117451" d="M660.739,123.956" transform="translate(-638.73 -83.037)" fill="none" stroke="#000" stroke-miterlimit="10" stroke-width="1"/>
      <g id="Grupo_83924" data-name="Grupo 83924" transform="translate(11.316 13.035)">
        <g id="Grupo_83923" data-name="Grupo 83923">
          <path id="Trazado_117452" data-name="Trazado 117452" d="M666.176,97.789H644.792V88.507l1.877-12.1H664.3l1.877,12.1Z" transform="translate(-644.792 -76.406)" fill="#263238"/>
          <rect id="Rectángulo_34340" data-name="Rectángulo 34340" width="2.315" height="4.296" transform="translate(1.457 21.384)" fill="#263238"/>
          <rect id="Rectángulo_34341" data-name="Rectángulo 34341" width="2.315" height="4.296" transform="translate(17.612 21.384)" fill="#263238"/>
          <path id="Trazado_117453" data-name="Trazado 117453" d="M649.261,100.841a1.119,1.119,0,1,1-1.119-1.119A1.119,1.119,0,0,1,649.261,100.841Z" transform="translate(-645.527 -84.088)" fill="#ffc727"/>
          <path id="Trazado_117454" data-name="Trazado 117454" d="M673.353,100.841a1.118,1.118,0,1,1-1.118-1.119A1.119,1.119,0,0,1,673.353,100.841Z" transform="translate(-653.465 -84.088)" fill="#ffc727"/>
          <path id="Trazado_117455" data-name="Trazado 117455" d="M663.67,82.652H649.752l-1.236,7.913h16.389Z" transform="translate(-646.019 -78.464)" fill="#ffc727"/>
          <rect id="Rectángulo_34342" data-name="Rectángulo 34342" width="7.986" height="1.535" transform="translate(6.699 1.054)" fill="#ffc727"/>
        </g>
      </g>
      <g id="Grupo_83925" data-name="Grupo 83925" transform="translate(20.988 3.632)">
        <path id="Trazado_117456" data-name="Trazado 117456" d="M661.256,69.37a1.02,1.02,0,1,1-1.02-1.021A1.02,1.02,0,0,1,661.256,69.37Z" transform="translate(-659.216 -68.349)" fill="#dbdbdb"/>
        <path id="Trazado_117457" data-name="Trazado 117457" d="M661.256,132.2a1.02,1.02,0,1,1-1.02-1.021A1.021,1.021,0,0,1,661.256,132.2Z" transform="translate(-659.216 -89.048)" fill="#dbdbdb"/>
      </g>
    </g>
    <rect id="Rectángulo_34343" data-name="Rectángulo 34343" width="8.953" height="58.227" transform="translate(-8438.467 -6261.468)" fill="#263238"/>
    <path id="Trazado_119167" data-name="Trazado 119167" d="M356.419,142.962s-88.784-7.677-150.2,0C206.219,142.962,286.993,156.4,356.419,142.962Z" transform="translate(-8768.403 -6362.815)" fill="#5d6a6d" opacity="0.55" style="mix-blend-mode: multiply;isolation: isolate"/>
    <g id="Grupo_83760" data-name="Grupo 83760" transform="translate(-8475.111 -6311.754)">
      <g id="Grupo_83742" data-name="Grupo 83742" transform="translate(2.626 5.851)">
        <g id="Grupo_83741" data-name="Grupo 83741">
          <g id="Grupo_83740" data-name="Grupo 83740">
            <g id="Grupo_83739" data-name="Grupo 83739">
              <path id="Trazado_117417" data-name="Trazado 117417" d="M455.082,294.056s-7.164-6.126-7.612-11.007,3.351-6.146,3.351-6.146,3.718,10.823,8.039,13.893S455.082,294.056,455.082,294.056Z" transform="translate(-447.434 -276.903)" fill="#ffbe9e"/>
            </g>
          </g>
        </g>
      </g>
      <g id="Grupo_83746" data-name="Grupo 83746">
        <g id="Grupo_83745" data-name="Grupo 83745">
          <g id="Grupo_83744" data-name="Grupo 83744">
            <g id="Grupo_83743" data-name="Grupo 83743">
              <path id="Trazado_117418" data-name="Trazado 117418" d="M446.766,270.308c-6.361,3.556,1.474,17.189,1.474,17.189l7.447-2.516S452.968,266.84,446.766,270.308Z" transform="translate(-444.276 -269.867)" fill="#bc3159"/>
            </g>
          </g>
        </g>
      </g>
      <g id="Grupo_83756" data-name="Grupo 83756" transform="translate(9.416 16.219)">
        <g id="Grupo_83755" data-name="Grupo 83755">
          <g id="Grupo_83754" data-name="Grupo 83754">
            <g id="Grupo_83753" data-name="Grupo 83753">
              <g id="Grupo_83752" data-name="Grupo 83752">
                <g id="Grupo_83751" data-name="Grupo 83751">
                  <g id="Grupo_83750" data-name="Grupo 83750">
                    <g id="Grupo_83749" data-name="Grupo 83749">
                      <g id="Grupo_83748" data-name="Grupo 83748">
                        <g id="Grupo_83747" data-name="Grupo 83747">
                          <path id="Trazado_117419" data-name="Trazado 117419" d="M458.246,296.457c3.884-.512,13-5.482,13-5.482l-2.6-1.605-12.714,2.576S454.292,296.978,458.246,296.457Z" transform="translate(-455.599 -289.37)" fill="#ffbe9e"/>
                        </g>
                      </g>
                    </g>
                  </g>
                </g>
              </g>
            </g>
          </g>
        </g>
      </g>
      <g id="Grupo_83759" data-name="Grupo 83759" transform="translate(19.959 11.951)">
        <g id="Grupo_83758" data-name="Grupo 83758">
          <g id="Grupo_83757" data-name="Grupo 83757">
            <path id="Trazado_117420" data-name="Trazado 117420" d="M470.293,288.279a4.415,4.415,0,0,0,.156-1.033,5.57,5.57,0,0,1,.744-1.769c.177-.309.185-1.171.64-1.234.746-.1.344,1.326.368,1.662a.743.743,0,0,0,.5.706.928.928,0,0,0,.587-.131,18.846,18.846,0,0,0,1.668-1.015c.287-.18.581-.338.878-.5a3.62,3.62,0,0,1,.712-.428.345.345,0,0,1,.44.29c0,.2-.184.246-.313.35-.292.234-.577.477-.86.722-.062.054-.38.258-.377.35.017.444.876-.092,1.015-.171a2,2,0,0,1,1.146-.354.185.185,0,0,1,.145.066c.047.073-.014.167-.076.229-.363.363-.849.585-1.2.957a.239.239,0,0,0-.09.221c.106.319.737.086.951.028.135-.037.306-.069.39.042a.232.232,0,0,1-.006.257.678.678,0,0,1-.2.184,6.6,6.6,0,0,1-.677.456c-.115.06-.471.206-.423.378a.129.129,0,0,0,.07.073.7.7,0,0,0,.375.015.342.342,0,0,1,.339.118c.077.137-.036.3-.152.409a5.864,5.864,0,0,1-1.482.842q-.813.379-1.658.683a19.637,19.637,0,0,1-2.285.671,3.112,3.112,0,0,1-2.107-.047,2.64,2.64,0,0,1-.5-.358,2.688,2.688,0,0,1-.549-.592,1.073,1.073,0,0,1-.167-.772.229.229,0,0,1,.042-.1.265.265,0,0,1,.122-.067,7.462,7.462,0,0,0,1.016-.366A1.853,1.853,0,0,0,470.293,288.279Z" transform="translate(-468.277 -284.238)" fill="#ffbe9e"/>
          </g>
        </g>
      </g>
    </g>
    <g id="Grupo_83764" data-name="Grupo 83764" transform="translate(-8490.967 -6288.153)">
      <g id="Grupo_83763" data-name="Grupo 83763">
        <g id="Grupo_83762" data-name="Grupo 83762">
          <g id="Grupo_83761" data-name="Grupo 83761">
            <path id="Trazado_117421" data-name="Trazado 117421" d="M425.211,321.629l25.36-17.89-.5-3.663-24.112-1.83Z" transform="translate(-425.211 -298.246)" fill="#2f4463"/>
          </g>
        </g>
      </g>
    </g>
    <g id="Grupo_83768" data-name="Grupo 83768" transform="translate(-8492.556 -6313.447)">
      <g id="Grupo_83767" data-name="Grupo 83767" transform="translate(0 0)">
        <g id="Grupo_83766" data-name="Grupo 83766">
          <g id="Grupo_83765" data-name="Grupo 83765">
            <path id="Trazado_117422" data-name="Trazado 117422" d="M446.8,272.8c-1.631-5.223-9.489-5.491-15.881-4.524-4.309.653-7.082,2.052-7.56,7.435-.306,3.432.639,18.446,2.742,22.421,0,0,7.338,4.108,23.7-.931C449.793,297.2,450.282,283.958,446.8,272.8Z" transform="translate(-423.299 -267.832)" fill="#ce3a5e"/>
          </g>
        </g>
      </g>
    </g>
    <g id="Grupo_83772" data-name="Grupo 83772" transform="translate(-8490.736 -6286.324)">
      <g id="Grupo_83771" data-name="Grupo 83771">
        <g id="Grupo_83770" data-name="Grupo 83770">
          <g id="Grupo_83769" data-name="Grupo 83769">
            <path id="Trazado_117423" data-name="Trazado 117423" d="M425.487,304.553s15.564,3.015,25.3-1.627l-.664-2.479a48.9,48.9,0,0,1-24.384,1.259Z" transform="translate(-425.487 -300.446)" fill="#192c47"/>
          </g>
        </g>
      </g>
    </g>
    <g id="Grupo_83776" data-name="Grupo 83776" transform="translate(-8483.56 -6284.733)">
      <g id="Grupo_83775" data-name="Grupo 83775" transform="translate(0 0)">
        <g id="Grupo_83774" data-name="Grupo 83774">
          <g id="Grupo_83773" data-name="Grupo 83773">
            <path id="Trazado_117424" data-name="Trazado 117424" d="M434.686,302.359h1.385l.326,4.145h-2.281Z" transform="translate(-434.117 -302.359)" fill="#2f4463"/>
          </g>
        </g>
      </g>
    </g>
    <g id="Grupo_83780" data-name="Grupo 83780" transform="translate(-8473.327 -6285.526)">
      <g id="Grupo_83779" data-name="Grupo 83779" transform="translate(0)">
        <g id="Grupo_83778" data-name="Grupo 83778">
          <g id="Grupo_83777" data-name="Grupo 83777">
            <path id="Trazado_117425" data-name="Trazado 117425" d="M446.421,301.72l1-.314,1.716,3.8-2.059.645Z" transform="translate(-446.421 -301.406)" fill="#2f4463"/>
          </g>
        </g>
      </g>
    </g>
    <g id="Grupo_83787" data-name="Grupo 83787" transform="translate(-8484.689 -6319.951)">
      <g id="Grupo_83786" data-name="Grupo 83786" transform="translate(0 0)">
        <g id="Grupo_83785" data-name="Grupo 83785">
          <g id="Grupo_83784" data-name="Grupo 83784">
            <g id="Grupo_83783" data-name="Grupo 83783">
              <g id="Grupo_83782" data-name="Grupo 83782">
                <g id="Grupo_83781" data-name="Grupo 83781">
                  <path id="Trazado_117426" data-name="Trazado 117426" d="M433.193,260.01s6.582,1.414,6.216,1.952.274,1.621.291,2.67a5.966,5.966,0,0,0,1.79,3.492c.709.805-.551,1.766-1.673,1.977-4.832.909-7.883-.9-6.862-2.461C435.251,264.126,433.193,260.01,433.193,260.01Z" transform="translate(-432.758 -260.01)" fill="#ffbe9e"/>
                </g>
              </g>
            </g>
          </g>
        </g>
      </g>
    </g>
    <g id="Grupo_83796" data-name="Grupo 83796" transform="translate(-8484.774 -6320.062)">
      <g id="Grupo_83795" data-name="Grupo 83795" transform="translate(0)">
        <g id="Grupo_83794" data-name="Grupo 83794">
          <g id="Grupo_83793" data-name="Grupo 83793">
            <g id="Grupo_83792" data-name="Grupo 83792">
              <g id="Grupo_83791" data-name="Grupo 83791">
                <g id="Grupo_83790" data-name="Grupo 83790">
                  <g id="Grupo_83789" data-name="Grupo 83789">
                    <g id="Grupo_83788" data-name="Grupo 83788">
                      <path id="Trazado_117427" data-name="Trazado 117427" d="M439.682,264.61c-.017-1.05-.659-2.133-.291-2.67s-6.735-2.062-6.735-2.062a5.122,5.122,0,0,1,1.262,2.76c1.972,2.668,4.787,3.493,6.569,4.186A5.351,5.351,0,0,1,439.682,264.61Z" transform="translate(-432.656 -259.877)" fill="#ff9c81"/>
                    </g>
                  </g>
                </g>
              </g>
            </g>
          </g>
        </g>
      </g>
    </g>
    <g id="Grupo_83808" data-name="Grupo 83808" transform="translate(-8485.53 -6328.382)">
      <g id="Grupo_83807" data-name="Grupo 83807" transform="translate(0)">
        <g id="Grupo_83806" data-name="Grupo 83806">
          <g id="Grupo_83805" data-name="Grupo 83805">
            <g id="Grupo_83804" data-name="Grupo 83804">
              <g id="Grupo_83803" data-name="Grupo 83803">
                <g id="Grupo_83802" data-name="Grupo 83802">
                  <g id="Grupo_83801" data-name="Grupo 83801">
                    <g id="Grupo_83800" data-name="Grupo 83800">
                      <g id="Grupo_83799" data-name="Grupo 83799">
                        <g id="Grupo_83798" data-name="Grupo 83798">
                          <g id="Grupo_83797" data-name="Grupo 83797">
                            <path id="Trazado_117428" data-name="Trazado 117428" d="M439.647,250.715c2.591,1.957,4.8,8.717,2.089,11.936-1.489,1.77-6.9-.109-9.445-3.958a8.313,8.313,0,0,1,.213-6.486C433.11,250.793,436.955,248.68,439.647,250.715Z" transform="translate(-431.747 -249.873)" fill="#ffbe9e"/>
                          </g>
                        </g>
                      </g>
                    </g>
                  </g>
                </g>
              </g>
            </g>
          </g>
        </g>
      </g>
    </g>
    <g id="Grupo_83818" data-name="Grupo 83818" transform="translate(-8488.266 -6330.955)">
      <g id="Grupo_83817" data-name="Grupo 83817" transform="translate(0 0)">
        <g id="Grupo_83816" data-name="Grupo 83816">
          <g id="Grupo_83815" data-name="Grupo 83815">
            <g id="Grupo_83814" data-name="Grupo 83814">
              <g id="Grupo_83813" data-name="Grupo 83813">
                <g id="Grupo_83812" data-name="Grupo 83812">
                  <g id="Grupo_83811" data-name="Grupo 83811">
                    <g id="Grupo_83810" data-name="Grupo 83810">
                      <g id="Grupo_83809" data-name="Grupo 83809">
                        <path id="Trazado_117429" data-name="Trazado 117429" d="M442.084,255.517c0,.415-.582-4.088-3.114-4.394-1.03-.124-.8.961-1.993,1.049-1.02.076-4.079-1.978-2.9,4.1.057.292-.22.635-.355.9-.166.323.353,1.062.345,1.425s-1.06-.724-1.04-.375c.032.53.948,2.008.186,2.21-.369.1-.819-.5-1.09-.7a13.459,13.459,0,0,1-2.263-1.68,5.791,5.791,0,0,1-1.291-2.892,5.462,5.462,0,0,1,.264-3.118,4.021,4.021,0,0,1,2.375-2.171,15.068,15.068,0,0,0,1.908-.515c.52-.254,1.087-.319,1.613-.575a2.252,2.252,0,0,0,.842-.806,3.083,3.083,0,0,1,2.508-1.2,2.563,2.563,0,0,1,2.241,1.56c.2.507.266,1.153.753,1.392.177.087.386.1.554.207a1.017,1.017,0,0,1,.344.435,4.247,4.247,0,0,1,.222,2.891,3.759,3.759,0,0,0-.209,1.165C442.009,254.8,442.087,255.147,442.084,255.517Z" transform="translate(-428.459 -246.778)" fill="#1e1240"/>
                      </g>
                    </g>
                  </g>
                </g>
              </g>
            </g>
          </g>
        </g>
      </g>
    </g>
    <g id="Grupo_83827" data-name="Grupo 83827" transform="translate(-8485.259 -6321.209)">
      <g id="Grupo_83826" data-name="Grupo 83826" transform="translate(0 0)">
        <g id="Grupo_83825" data-name="Grupo 83825">
          <g id="Grupo_83824" data-name="Grupo 83824">
            <g id="Grupo_83823" data-name="Grupo 83823">
              <g id="Grupo_83822" data-name="Grupo 83822">
                <g id="Grupo_83821" data-name="Grupo 83821">
                  <g id="Grupo_83820" data-name="Grupo 83820">
                    <g id="Grupo_83819" data-name="Grupo 83819">
                      <path id="Trazado_117430" data-name="Trazado 117430" d="M435.317,259.754s-1.87-1.645-2.9-1.172.417,3.285,2.546,2.9S435.891,260.2,435.317,259.754Z" transform="translate(-432.074 -258.497)" fill="#ffbe9e"/>
                    </g>
                  </g>
                </g>
              </g>
            </g>
          </g>
        </g>
      </g>
    </g>
    <g id="Grupo_83831" data-name="Grupo 83831" transform="translate(-8470.741 -6223.631)">
      <g id="Grupo_83830" data-name="Grupo 83830" transform="translate(0 0)">
        <g id="Grupo_83829" data-name="Grupo 83829">
          <g id="Grupo_83828" data-name="Grupo 83828">
            <path id="Trazado_117431" data-name="Trazado 117431" d="M453.933,376.433s.972,1.138,2.116,2.676,2,3.144.4,3.88-3.546-1.07-4.176-2.141-1.342-.954-2.208-1.666-.41-3.35-.41-3.35Z" transform="translate(-449.531 -375.833)" fill="#e79e30"/>
          </g>
        </g>
      </g>
    </g>
    <g id="Grupo_83835" data-name="Grupo 83835" transform="translate(-8481.257 -6283.38)">
      <g id="Grupo_83834" data-name="Grupo 83834" transform="translate(0)">
        <g id="Grupo_83833" data-name="Grupo 83833">
          <g id="Grupo_83832" data-name="Grupo 83832">
            <path id="Trazado_117432" data-name="Trazado 117432" d="M437.1,313.772c2.34,2.961,10.13,50.652,10.13,50.652,2.34,1.968,5.85,0,5.85,0,2.536-24.318-.6-60.438-.6-60.438s-17.718,12.747-15.378,9.786Z" transform="translate(-436.886 -303.986)" fill="#2f4463"/>
          </g>
        </g>
      </g>
    </g>
    <g id="Grupo_83841" data-name="Grupo 83841" transform="translate(-8470.584 -6282.957)">
      <g id="Grupo_83840" data-name="Grupo 83840" transform="translate(0)">
        <g id="Grupo_83839" data-name="Grupo 83839">
          <g id="Grupo_83838" data-name="Grupo 83838">
            <g id="Grupo_83837" data-name="Grupo 83837">
              <g id="Grupo_83836" data-name="Grupo 83836">
                <path id="Trazado_117433" data-name="Trazado 117433" d="M450.423,304.759c2.884,19.717,5.437,40.548,3.357,60.435-.048.46-.774.465-.726,0,2.074-19.827-.457-40.588-3.331-60.242-.067-.457.632-.654.7-.193Z" transform="translate(-449.72 -304.496)" fill="#192c47"/>
              </g>
            </g>
          </g>
        </g>
      </g>
    </g>
    <g id="Grupo_83847" data-name="Grupo 83847" transform="translate(-8468.634 -6282.947)">
      <g id="Grupo_83846" data-name="Grupo 83846" transform="translate(0 0)">
        <g id="Grupo_83845" data-name="Grupo 83845">
          <g id="Grupo_83844" data-name="Grupo 83844">
            <g id="Grupo_83843" data-name="Grupo 83843">
              <g id="Grupo_83842" data-name="Grupo 83842">
                <path id="Trazado_117434" data-name="Trazado 117434" d="M452.8,304.857c-.032,1.978.03,7.519,2.86,7.519a.363.363,0,0,1,0,.726c-3.463,0-3.625-5.822-3.586-8.245a.363.363,0,0,1,.726,0Z" transform="translate(-452.065 -304.507)" fill="#192c47"/>
              </g>
            </g>
          </g>
        </g>
      </g>
    </g>
    <g id="Grupo_83851" data-name="Grupo 83851" transform="translate(-8493.067 -6222.848)">
      <g id="Grupo_83850" data-name="Grupo 83850" transform="translate(0)">
        <g id="Grupo_83849" data-name="Grupo 83849">
          <g id="Grupo_83848" data-name="Grupo 83848">
            <path id="Trazado_117435" data-name="Trazado 117435" d="M426.081,377.375s-.972,1.137-2.117,2.676-2,3.144-.4,3.879,3.546-1.07,4.176-2.141,1.342-.954,2.208-1.666.41-3.349.41-3.349Z" transform="translate(-422.684 -376.775)" fill="#e79e30"/>
          </g>
        </g>
      </g>
    </g>
    <g id="Grupo_83855" data-name="Grupo 83855" transform="translate(-8492.021 -6282.218)">
      <g id="Grupo_83854" data-name="Grupo 83854" transform="translate(0 0)">
        <g id="Grupo_83853" data-name="Grupo 83853">
          <g id="Grupo_83852" data-name="Grupo 83852">
            <path id="Trazado_117436" data-name="Trazado 117436" d="M441,314.79c-2.34,2.961-10.13,50.653-10.13,50.653-2.34,1.967-5.85,0-5.85,0-2.536-24.318.21-60.059.21-60.059S443.338,317.751,441,314.79Z" transform="translate(-423.942 -305.384)" fill="#2f4463"/>
          </g>
        </g>
      </g>
    </g>
    <g id="Grupo_83861" data-name="Grupo 83861" transform="translate(-8490.245 -6282.173)">
      <g id="Grupo_83860" data-name="Grupo 83860" transform="translate(0)">
        <g id="Grupo_83859" data-name="Grupo 83859">
          <g id="Grupo_83858" data-name="Grupo 83858">
            <g id="Grupo_83857" data-name="Grupo 83857">
              <g id="Grupo_83856" data-name="Grupo 83856">
                <path id="Trazado_117437" data-name="Trazado 117437" d="M430.893,305.893c-2.874,19.653-5.4,40.417-3.331,60.243.048.464-.678.46-.726,0-2.08-19.887.473-40.718,3.357-60.436.067-.46.767-.265.7.193Z" transform="translate(-426.078 -305.437)" fill="#192c47"/>
              </g>
            </g>
          </g>
        </g>
      </g>
    </g>
    <g id="Grupo_83867" data-name="Grupo 83867" transform="translate(-8491.316 -6282.164)">
      <g id="Grupo_83866" data-name="Grupo 83866">
        <g id="Grupo_83865" data-name="Grupo 83865">
          <g id="Grupo_83864" data-name="Grupo 83864">
            <g id="Grupo_83863" data-name="Grupo 83863">
              <g id="Grupo_83862" data-name="Grupo 83862">
                <path id="Trazado_117438" data-name="Trazado 117438" d="M428.726,305.8c.039,2.423-.123,8.245-3.586,8.245a.363.363,0,0,1,0-.725c2.831,0,2.892-5.539,2.86-7.519a.363.363,0,0,1,.726,0Z" transform="translate(-424.789 -305.448)" fill="#192c47"/>
              </g>
            </g>
          </g>
        </g>
      </g>
    </g>
    <g id="Grupo_83921" data-name="Grupo 83921" transform="translate(-8493.968 -6312.112)">
      <g id="Grupo_83903" data-name="Grupo 83903" transform="translate(0.904 6.376)">
        <g id="Grupo_83902" data-name="Grupo 83902">
          <g id="Grupo_83901" data-name="Grupo 83901">
            <g id="Grupo_83900" data-name="Grupo 83900">
              <path id="Trazado_117445" data-name="Trazado 117445" d="M425.732,294.565s-4.212-8.432-2.725-13.1,5.48-4.355,5.48-4.355-.79,11.416,1.994,15.926S425.732,294.565,425.732,294.565Z" transform="translate(-422.689 -277.104)" fill="#ffbe9e"/>
            </g>
          </g>
        </g>
      </g>
      <g id="Grupo_83907" data-name="Grupo 83907" transform="translate(0 0)">
        <g id="Grupo_83906" data-name="Grupo 83906">
          <g id="Grupo_83905" data-name="Grupo 83905">
            <g id="Grupo_83904" data-name="Grupo 83904">
              <path id="Trazado_117446" data-name="Trazado 117446" d="M427.165,269.461c-7.244.8-5.336,16.407-5.336,16.407l7.84.582S434.228,268.682,427.165,269.461Z" transform="translate(-421.602 -269.436)" fill="#bc3159"/>
            </g>
          </g>
        </g>
      </g>
      <g id="Grupo_83917" data-name="Grupo 83917" transform="translate(3.667 19.76)">
        <g id="Grupo_83916" data-name="Grupo 83916">
          <g id="Grupo_83915" data-name="Grupo 83915">
            <g id="Grupo_83914" data-name="Grupo 83914">
              <g id="Grupo_83913" data-name="Grupo 83913">
                <g id="Grupo_83912" data-name="Grupo 83912">
                  <g id="Grupo_83911" data-name="Grupo 83911">
                    <g id="Grupo_83910" data-name="Grupo 83910">
                      <g id="Grupo_83909" data-name="Grupo 83909">
                        <g id="Grupo_83908" data-name="Grupo 83908">
                          <path id="Trazado_117447" data-name="Trazado 117447" d="M427.821,298.25c3.777,1.041,14.112.015,14.112.015l-1.766-2.49L427.453,293.2S423.976,297.19,427.821,298.25Z" transform="translate(-426.011 -293.197)" fill="#ffbe9e"/>
                        </g>
                      </g>
                    </g>
                  </g>
                </g>
              </g>
            </g>
          </g>
        </g>
      </g>
      <g id="Grupo_83920" data-name="Grupo 83920" transform="translate(14.944 18.806)">
        <g id="Grupo_83919" data-name="Grupo 83919">
          <g id="Grupo_83918" data-name="Grupo 83918">
            <path id="Trazado_117448" data-name="Trazado 117448" d="M442.083,295.18a4.429,4.429,0,0,0,.545-.891A5.568,5.568,0,0,1,444,292.95c.284-.216.625-1.006,1.07-.887.728.2-.2,1.355-.308,1.674a.746.746,0,0,0,.186.847.937.937,0,0,0,.592.108,18.866,18.866,0,0,0,1.932-.286c.334-.054.667-.086,1-.119a3.594,3.594,0,0,1,.822-.117.346.346,0,0,1,.293.438c-.074.184-.265.155-.426.2-.36.1-.717.215-1.073.33-.078.026-.451.09-.483.175-.157.417.842.256,1,.239a1.99,1.99,0,0,1,1.193.12.186.186,0,0,1,.109.116c.015.086-.078.149-.159.181-.476.194-1.01.21-1.48.413-.077.033-.161.086-.168.17-.027.334.644.366.863.4.139.018.309.055.344.19a.233.233,0,0,1-.106.234.689.689,0,0,1-.256.091,6.79,6.79,0,0,1-.8.156c-.13.01-.514.007-.538.183a.123.123,0,0,0,.037.095.689.689,0,0,0,.339.16c.121.038.252.116.266.241.018.156-.15.265-.3.317a5.817,5.817,0,0,1-1.693.2c-.6.022-1.2.016-1.793-.017a19.829,19.829,0,0,1-2.366-.272,3.106,3.106,0,0,1-1.923-.864,3.548,3.548,0,0,1-.595-1.283,1.072,1.072,0,0,1,.146-.777.218.218,0,0,1,.078-.077.258.258,0,0,1,.138-.014,7.576,7.576,0,0,0,1.079.059A1.86,1.86,0,0,0,442.083,295.18Z" transform="translate(-439.571 -292.05)" fill="#ffbe9e"/>
          </g>
        </g>
      </g>
    </g>
    <g id="Trazado_119173" data-name="Trazado 119173" transform="translate(-16916.863 -17932.396)" fill="#fff">
      <path d="M 8463.1962890625 11737.322265625 L 8384 11737.322265625 C 8379.8642578125 11737.322265625 8376.5 11733.9580078125 8376.5 11729.822265625 L 8376.5 11708 C 8376.5 11703.8642578125 8379.8642578125 11700.5 8384 11700.5 L 8463.1962890625 11700.5 C 8467.33203125 11700.5 8470.6962890625 11703.8642578125 8470.6962890625 11708 L 8470.6962890625 11729.822265625 C 8470.6962890625 11733.9580078125 8467.33203125 11737.322265625 8463.1962890625 11737.322265625 Z" stroke="none"/>
      <path d="M 8384 11701 C 8380.140625 11701 8377 11704.140625 8377 11708 L 8377 11729.822265625 C 8377 11733.681640625 8380.140625 11736.822265625 8384 11736.822265625 L 8463.1962890625 11736.822265625 C 8467.0556640625 11736.822265625 8470.1962890625 11733.681640625 8470.1962890625 11729.822265625 L 8470.1962890625 11708 C 8470.1962890625 11704.140625 8467.0556640625 11701 8463.1962890625 11701 L 8384 11701 M 8384 11700 L 8463.1962890625 11700 C 8467.6142578125 11700 8471.1962890625 11703.58203125 8471.1962890625 11708 L 8471.1962890625 11729.822265625 C 8471.1962890625 11734.240234375 8467.6142578125 11737.822265625 8463.1962890625 11737.822265625 L 8384 11737.822265625 C 8379.58203125 11737.822265625 8376 11734.240234375 8376 11729.822265625 L 8376 11708 C 8376 11703.58203125 8379.58203125 11700 8384 11700 Z" stroke="none" fill="#f88f05"/>
    </g>
    <path id="Trazado_119178" data-name="Trazado 119178" d="M3.359,10.992V15H1.016V3.625H5.453a5.134,5.134,0,0,1,2.254.469A3.454,3.454,0,0,1,9.2,5.426a3.714,3.714,0,0,1,.523,1.965,3.266,3.266,0,0,1-1.145,2.637,4.767,4.767,0,0,1-3.168.965Zm0-1.9H5.453a2.059,2.059,0,0,0,1.418-.437,1.591,1.591,0,0,0,.488-1.25,1.876,1.876,0,0,0-.492-1.352,1.839,1.839,0,0,0-1.359-.531H3.359ZM16,15a2.507,2.507,0,0,1-.227-.758,2.732,2.732,0,0,1-2.133.914,3,3,0,0,1-2.059-.719,2.312,2.312,0,0,1-.816-1.812,2.389,2.389,0,0,1,1-2.062,4.915,4.915,0,0,1,2.879-.727H15.68V9.352a1.393,1.393,0,0,0-.3-.937,1.183,1.183,0,0,0-.949-.352,1.345,1.345,0,0,0-.895.273.929.929,0,0,0-.324.75H10.953a2.268,2.268,0,0,1,.453-1.359,3,3,0,0,1,1.281-.98,4.669,4.669,0,0,1,1.859-.355,3.689,3.689,0,0,1,2.48.785,2.747,2.747,0,0,1,.918,2.207v3.664a4.041,4.041,0,0,0,.336,1.82V15Zm-1.867-1.57a1.945,1.945,0,0,0,.922-.223,1.462,1.462,0,0,0,.625-.6V11.156h-.844q-1.7,0-1.8,1.172l-.008.133a.9.9,0,0,0,.3.7A1.153,1.153,0,0,0,14.133,13.43Zm10.125-.766a.727.727,0,0,0-.41-.652,4.659,4.659,0,0,0-1.316-.426q-3.016-.633-3.016-2.562a2.323,2.323,0,0,1,.934-1.879,3.766,3.766,0,0,1,2.441-.754,4.053,4.053,0,0,1,2.574.758,2.388,2.388,0,0,1,.965,1.969H24.172a1.092,1.092,0,0,0-.312-.8A1.322,1.322,0,0,0,22.883,8,1.351,1.351,0,0,0,22,8.258a.814.814,0,0,0-.312.656.7.7,0,0,0,.355.605,3.657,3.657,0,0,0,1.2.4,9.8,9.8,0,0,1,1.422.379,2.336,2.336,0,0,1,1.789,2.273,2.2,2.2,0,0,1-.992,1.871,4.28,4.28,0,0,1-2.562.715,4.47,4.47,0,0,1-1.887-.379,3.166,3.166,0,0,1-1.293-1.039,2.414,2.414,0,0,1-.469-1.426h2.141a1.179,1.179,0,0,0,.445.922,1.766,1.766,0,0,0,1.109.32,1.635,1.635,0,0,0,.98-.246A.766.766,0,0,0,24.258,12.664ZM32.8,15a2.507,2.507,0,0,1-.227-.758,2.732,2.732,0,0,1-2.133.914,3,3,0,0,1-2.059-.719,2.312,2.312,0,0,1-.816-1.812,2.389,2.389,0,0,1,1-2.062,4.915,4.915,0,0,1,2.879-.727h1.039V9.352a1.393,1.393,0,0,0-.3-.937,1.183,1.183,0,0,0-.949-.352,1.345,1.345,0,0,0-.895.273.929.929,0,0,0-.324.75H27.758a2.268,2.268,0,0,1,.453-1.359,3,3,0,0,1,1.281-.98,4.669,4.669,0,0,1,1.859-.355,3.689,3.689,0,0,1,2.48.785,2.747,2.747,0,0,1,.918,2.207v3.664a4.041,4.041,0,0,0,.336,1.82V15Zm-1.867-1.57a1.945,1.945,0,0,0,.922-.223,1.462,1.462,0,0,0,.625-.6V11.156h-.844q-1.7,0-1.8,1.172l-.008.133a.9.9,0,0,0,.3.7A1.153,1.153,0,0,0,30.938,13.43Zm7.938-6.883v8.914a3.024,3.024,0,0,1-.742,2.176,2.821,2.821,0,0,1-2.141.777,4.591,4.591,0,0,1-1.117-.133V16.492a4.238,4.238,0,0,0,.711.07q1.023,0,1.023-1.086V6.547ZM36.43,4.359a1.112,1.112,0,0,1,.34-.836,1.47,1.47,0,0,1,1.852,0,1.112,1.112,0,0,1,.34.836,1.108,1.108,0,0,1-.348.844,1.448,1.448,0,0,1-1.836,0A1.108,1.108,0,0,1,36.43,4.359Zm8.1,10.8A4.15,4.15,0,0,1,41.5,14.016a4.054,4.054,0,0,1-1.168-3.039v-.219a5.106,5.106,0,0,1,.492-2.277,3.612,3.612,0,0,1,1.395-1.547,3.914,3.914,0,0,1,2.059-.543,3.508,3.508,0,0,1,2.73,1.094,4.444,4.444,0,0,1,1,3.1v.922H42.625a2.1,2.1,0,0,0,.66,1.328,2,2,0,0,0,1.395.5,2.437,2.437,0,0,0,2.039-.945l1.109,1.242a3.389,3.389,0,0,1-1.375,1.121A4.511,4.511,0,0,1,44.531,15.156Zm-.258-6.945a1.411,1.411,0,0,0-1.09.455,2.357,2.357,0,0,0-.535,1.3h3.141V9.788a1.681,1.681,0,0,0-.406-1.165A1.456,1.456,0,0,0,44.273,8.211Zm9.766.453a6.134,6.134,0,0,0-.812-.062,1.654,1.654,0,0,0-1.68.867V15H49.289V6.547h2.133l.063,1.008a2.092,2.092,0,0,1,1.883-1.164,2.366,2.366,0,0,1,.7.1Zm.453,2.031a5.013,5.013,0,0,1,.484-2.242A3.546,3.546,0,0,1,56.371,6.93a4.069,4.069,0,0,1,2.113-.539,3.849,3.849,0,0,1,2.793,1.047,4.2,4.2,0,0,1,1.207,2.844l.016.578a4.418,4.418,0,0,1-1.086,3.121,4.209,4.209,0,0,1-5.832,0,4.5,4.5,0,0,1-1.09-3.187Zm2.258.16A3.16,3.16,0,0,0,57.2,12.7a1.628,1.628,0,0,0,2.578.008,3.457,3.457,0,0,0,.461-2.015,3.128,3.128,0,0,0-.461-1.831,1.5,1.5,0,0,0-1.3-.649,1.474,1.474,0,0,0-1.281.646A3.516,3.516,0,0,0,56.75,10.856Zm11.719,1.808a.727.727,0,0,0-.41-.652,4.659,4.659,0,0,0-1.316-.426q-3.016-.633-3.016-2.562a2.323,2.323,0,0,1,.934-1.879A3.766,3.766,0,0,1,67.1,6.391a4.053,4.053,0,0,1,2.574.758,2.388,2.388,0,0,1,.965,1.969H68.383a1.092,1.092,0,0,0-.312-.8A1.322,1.322,0,0,0,67.094,8a1.351,1.351,0,0,0-.883.258.814.814,0,0,0-.312.656.7.7,0,0,0,.355.605,3.657,3.657,0,0,0,1.2.4,9.8,9.8,0,0,1,1.422.379,2.336,2.336,0,0,1,1.789,2.273,2.2,2.2,0,0,1-.992,1.871,4.28,4.28,0,0,1-2.562.715,4.47,4.47,0,0,1-1.887-.379,3.166,3.166,0,0,1-1.293-1.039,2.414,2.414,0,0,1-.469-1.426H65.6a1.179,1.179,0,0,0,.445.922,1.766,1.766,0,0,0,1.109.32,1.635,1.635,0,0,0,.98-.246A.766.766,0,0,0,68.469,12.664Z" transform="translate(-8528.861 -6223.396)" fill="#12263f"/>
  </g>
</svg>
