<svg xmlns="http://www.w3.org/2000/svg" width="145.199" height="103.01" viewBox="0 0 145.199 103.01">
  <g id="Grupo_81944" data-name="Grupo 81944" transform="translate(-59.457 -257.723)">
    <g id="Grupo_81943" data-name="Grupo 81943">
      <g id="Grupo_81942" data-name="Grupo 81942">
        <g id="Grupo_81940" data-name="Grupo 81940" style="isolation: isolate">
          <g id="Grupo_81935" data-name="Grupo 81935">
            <g id="Grupo_81934" data-name="Grupo 81934" style="isolation: isolate">
              <path id="Trazado_116790" data-name="Trazado 116790" d="M142.916,358.377l-82.5-47.623a2.234,2.234,0,0,1-.929-2.047l82.5,47.624a2.233,2.233,0,0,0,.929,2.046Z" fill="#337"/>
            </g>
          </g>
          <g id="Grupo_81936" data-name="Grupo 81936">
            <path id="Trazado_116791" data-name="Trazado 116791" d="M141.987,356.331l-82.5-47.624-.032-11.13,82.5,47.624Z" fill="#f88f05"/>
          </g>
          <g id="Grupo_81937" data-name="Grupo 81937">
            <path id="Trazado_116792" data-name="Trazado 116792" d="M145.133,339.682l-82.5-47.624L122.1,257.723l82.5,47.624Z" fill="#ffd817"/>
          </g>
          <g id="Grupo_81939" data-name="Grupo 81939">
            <g id="Grupo_81938" data-name="Grupo 81938" style="isolation: isolate">
              <path id="Trazado_116793" data-name="Trazado 116793" d="M141.956,345.2l-82.5-47.624a7.021,7.021,0,0,1,3.177-5.519l82.5,47.624a7.021,7.021,0,0,0-3.177,5.519Z" fill="#fff5c5"/>
            </g>
          </g>
          <path id="Trazado_116794" data-name="Trazado 116794" d="M145.186,358.153c-1.764,1.018-3.193.2-3.2-1.822l-.031-11.13a7.021,7.021,0,0,1,3.177-5.519L204.6,305.346l.02,1.319-1.732.989-3.483,8.02,3.456,5.958,1.788,1.056,0,1.13Z" fill="#ffd817"/>
        </g>
        <path id="Trazado_116795" data-name="Trazado 116795" d="M143.049,356.329a1.311,1.311,0,0,0,.4,1.131,1.337,1.337,0,0,0,1.2-.226l60-34.545-1.725-1-3.918-5.061,3.882-8.978L145.664,340.6a5.973,5.973,0,0,0-2.647,4.6Z" fill="#6161c9"/>
        <path id="Trazado_116796" data-name="Trazado 116796" d="M202.888,307.656,145.664,340.6a5.973,5.973,0,0,0-2.647,4.6l.032,10.971,59.879-34.476Z" fill="#f8f7f7"/>
        <g id="Grupo_81941" data-name="Grupo 81941" style="mix-blend-mode: multiply;isolation: isolate">
          <path id="Trazado_116797" data-name="Trazado 116797" d="M202.888,307.656,145.664,340.6a5.466,5.466,0,0,0-1.857,1.98,6.282,6.282,0,0,0-.612,1.458l59.7-34.372Z" fill="#e4dfe5" opacity="0.8" style="mix-blend-mode: multiply;isolation: isolate"/>
          <path id="Trazado_116798" data-name="Trazado 116798" d="M152.558,342.383l-2.507,1.427-2.506,1.468-2.187,1.308c-1.28.776-2.133,1.316-2.133,1.316s.853-.444,2.133-1.147l2.187-1.216,2.506-1.427,2.507-1.467c.8-.467,1.547-.927,2.187-1.309,1.28-.775,2.133-1.316,2.133-1.316s-.853.444-2.133,1.146C154.1,341.523,153.358,341.926,152.558,342.383Z" fill="#e4dfe5" opacity="0.8" style="mix-blend-mode: multiply;isolation: isolate"/>
        </g>
        <path id="Trazado_116799" data-name="Trazado 116799" d="M150.692,343.506l-3.1,1.821c10.843.022,17.575,12.227,20.579,15.406l3.236-1.771S162,344.207,150.692,343.506Z" fill="#cc8bc1"/>
      </g>
      <path id="Trazado_116800" data-name="Trazado 116800" d="M194.82,307.345c-1.922-1.117-1.911-2.934.017-4.047.183-.106.19-.273.008-.379-5.506-3.2-60.853-35.345-68.269-39.655a.717.717,0,0,0-.655,0,7.71,7.71,0,0,1-6.986,0,.727.727,0,0,0-.661,0L73.006,289.4c-.183.106-.178.274,0,.38,1.922,1.116,1.912,2.933-.023,4.05-.183.106-.19.273-.008.379,52.367,30.432,42.177,24.492,68.269,39.655a.717.717,0,0,0,.655,0,7.714,7.714,0,0,1,6.992,0,.717.717,0,0,0,.655,0l45.268-26.136A.2.2,0,0,0,194.82,307.345ZM149.211,333.3a9.355,9.355,0,0,0-7.612,0c-7.516-4.368-60.141-34.931-67.646-39.293,1.87-1.263,1.887-3.145.031-4.409l44.635-25.77a9.335,9.335,0,0,0,7.612,0c7.175,4.17,61.94,35.977,67.646,39.293-1.876,1.267-1.887,3.145-.031,4.409Z" fill="#fff5c5"/>
    </g>
  </g>
</svg>
